SplineFontDB: 3.2
FontName: Walbaum-FrakturUNZ1
FullName: Walbaum-Fraktur UNZ1
FamilyName: Walbaum-Fraktur UNZ1
Weight: Book
Copyright: Copyright (c) Typographer Mediengestaltung, 2002. All rights reserved.
Version: OTF 1.000;PS 001.002;Core 1.0.29
ItalicAngle: 0
UnderlinePosition: -143
UnderlineWidth: 26
Ascent: 750
Descent: 250
InvalidEm: 0
sfntRevision: 0x00010000
LayerCount: 2
Layer: 0 1 "Hinten" 1
Layer: 1 1 "Vorne" 0
XUID: [1021 247 30481810 96]
StyleMap: 0x0040
FSType: 4
OS2Version: 3
OS2_WeightWidthSlopeOnly: 0
OS2_UseTypoMetrics: 0
CreationTime: 1013244306
ModificationTime: 1719675255
PfmFamily: 17
TTFWeight: 400
TTFWidth: 5
LineGap: 0
VLineGap: 0
Panose: 2 0 0 0 0 0 0 0 0 0
OS2TypoAscent: 750
OS2TypoAOffset: 0
OS2TypoDescent: -250
OS2TypoDOffset: 0
OS2TypoLinegap: 0
OS2WinAscent: 964
OS2WinAOffset: 0
OS2WinDescent: 255
OS2WinDOffset: 0
HheadAscent: 750
HheadAOffset: 0
HheadDescent: -250
HheadDOffset: 0
OS2SubXSize: 650
OS2SubYSize: 600
OS2SubXOff: 0
OS2SubYOff: 75
OS2SupXSize: 650
OS2SupYSize: 600
OS2SupXOff: 0
OS2SupYOff: 350
OS2StrikeYSize: 0
OS2StrikeYPos: 0
OS2CapHeight: 790
OS2XHeight: 661
OS2Vendor: 'DST '
OS2CodePages: 20000111.40000000
OS2UnicodeRanges: 8000002f.4000004a.00000000.00000000
Lookup: 4 0 0 "'ccmp' Glyphen-Zusammensetzung/Zerlegung in Lateinisch Nachschlagetabelle 0" { "'ccmp' Glyphen-Zusammensetzung/Zerlegung in Lateinisch Nachschlagetabelle 0-1"  } ['ccmp' ('DFLT' <'dflt' > 'latn' <'dflt' > ) ]
Lookup: 260 0 0 "'mark' Akzent-Positionierung in Lateinisch Nachschlagetabelle 0" { "'mark' Akzent-Positionierung in Lateinisch Nachschlagetabelle 0-1"  } ['mark' ('DFLT' <'dflt' > 'latn' <'dflt' > ) ]
MarkAttachClasses: 1
DEI: 91125
TtTable: prep
PUSHW_1
 0
CALL
SVTCA[y-axis]
PUSHW_3
 1
 4
 7
CALL
PUSHW_1
 0
DUP
RCVT
RDTG
ROUND[Black]
RTG
WCVTP
EndTTInstrs
TtTable: fpgm
PUSHW_1
 0
FDEF
MPPEM
PUSHW_1
 9
LT
IF
PUSHB_2
 1
 1
INSTCTRL
EIF
PUSHW_1
 511
SCANCTRL
PUSHW_1
 68
SCVTCI
PUSHW_2
 9
 3
SDS
SDB
ENDF
PUSHW_1
 1
FDEF
DUP
DUP
RCVT
ROUND[Black]

StartChar: percent
Encoding: 37 37 4
Width: 757
GlyphClass: 1
Flags: W
LayerCount: 2
Fore
SplineSet
570 406 m 0,0,1
 647 406 647 406 695 337 c 0,2,3
 737 275 737 275 737 195 c 0,4,5
 737 111 737 111 694 55 c 0,6,7
 648 -6 648 -6 567 -6 c 0,8,9
 487 -6 487 -6 441 55 c 0,10,11
 399 110 399 110 399 194 c 0,12,13
 399 277 399 277 442 338 c 0,14,15
 490 406 490 406 570 406 c 0,0,1
569 383 m 256,16,17
 524 383 524 383 504 340 c 128,-1,18
 484 297 484 297 484 198 c 0,19,20
 484 12 484 12 567 12 c 0,21,22
 613 12 613 12 632 55.5 c 128,-1,23
 651 99 651 99 651 203 c 0,24,25
 651 301 651 301 632.5 342 c 128,-1,26
 614 383 614 383 569 383 c 256,16,17
191 693 m 0,27,28
 269 693 269 693 316 624 c 0,29,30
 358 562 358 562 358 482 c 0,31,32
 358 398 358 398 315 342 c 0,33,34
 268 279 268 279 188 279 c 256,35,36
 108 279 108 279 62 342 c 0,37,38
 20 399 20 399 20 481 c 0,39,40
 20 564 20 564 63 625 c 0,41,42
 111 693 111 693 191 693 c 0,27,28
190 670 m 0,43,44
 144 670 144 670 124.5 627 c 128,-1,45
 105 584 105 584 105 485 c 0,46,47
 105 299 105 299 187 299 c 0,48,49
 234 299 234 299 253 342 c 128,-1,50
 272 385 272 385 272 490 c 0,51,52
 272 589 272 589 253.5 629.5 c 128,-1,53
 235 670 235 670 190 670 c 0,43,44
606 693 m 1,54,-1
 197 0 l 1,55,-1
 164 0 l 1,56,-1
 573 693 l 1,57,-1
 606 693 l 1,54,-1
EndSplineSet
Validated: 1
EndChar

StartChar: ampersand
Encoding: 38 38 5
Width: 587
GlyphClass: 1
Flags: W
LayerCount: 2
Fore
SplineSet
572 339 m 1,0,-1
 492 244 l 1,1,2
 490 247 490 247 486.5 251 c 128,-1,3
 483 255 483 255 478 260 c 2,4,-1
 454 286 l 1,5,-1
 432 311 l 2,6,7
 426 317 426 317 422 320 c 1,8,-1
 361 244 l 1,9,-1
 422 117 l 2,10,11
 438 82 438 82 479 68 c 1,12,-1
 538 154 l 1,13,-1
 554 142 l 1,14,15
 549 136 549 136 536 117 c 128,-1,16
 523 98 523 98 500 66 c 0,17,18
 492 53 492 53 477 31.5 c 128,-1,19
 462 10 462 10 441 -21 c 1,20,-1
 382 7 l 2,21,22
 348 23 348 23 319 87 c 2,23,-1
 288 154 l 1,24,-1
 149 -21 l 1,25,26
 99 17 99 17 61 87 c 0,27,28
 22 160 22 160 22 221 c 0,29,30
 22 300 22 300 87 360 c 2,31,-1
 143 412 l 2,32,33
 145 414 145 414 149.5 417.5 c 128,-1,34
 154 421 154 421 159 426 c 1,35,-1
 152 442 l 2,36,37
 113 530 113 530 113 560 c 0,38,39
 113 625 113 625 199 690 c 2,40,-1
 249 727 l 2,41,42
 277 748 277 748 306 775 c 1,43,44
 308 772 308 772 310.5 767.5 c 128,-1,45
 313 763 313 763 317 756 c 2,46,-1
 336 718 l 1,47,-1
 362 669 l 2,48,49
 374 646 374 646 374 623 c 0,50,51
 374 589 374 589 341 558 c 2,52,-1
 302 520 l 1,53,-1
 264 484 l 1,54,-1
 254 473 l 1,55,-1
 351 268 l 1,56,-1
 490 442 l 1,57,-1
 572 339 l 1,0,-1
171 398 m 1,58,59
 101 349 101 349 101 292 c 0,60,61
 101 244 101 244 130.5 190 c 128,-1,62
 160 136 160 136 209 93 c 1,63,-1
 276 175 l 1,64,-1
 171 398 l 1,58,59
240 502 m 1,65,66
 284 543 284 543 284 590 c 0,67,68
 284 649 284 649 240 693 c 1,69,70
 199 654 199 654 199 610 c 0,71,72
 199 589 199 589 216 552 c 2,73,-1
 231 520 l 2,74,75
 232 518 232 518 240 502 c 1,65,66
EndSplineSet
Validated: 1
EndChar

StartChar: quotesingle
Encoding: 39 39 6
Width: 177
GlyphClass: 1
Flags: W
LayerCount: 2
Fore
SplineSet
15 689 m 2,0,1
 17 691 17 691 20 694.5 c 128,-1,2
 23 698 23 698 27 702 c 2,3,-1
 64 738 l 1,4,-1
 105 781 l 1,5,-1
 113 769 l 2,6,7
 157 702 157 702 157 654 c 0,8,9
 157 574 157 574 69 495 c 1,10,-1
 57 505 l 1,11,12
 95 552 95 552 95 594 c 0,13,14
 95 646 95 646 47 693 c 1,15,-1
 28 675 l 1,16,-1
 15 689 l 2,0,1
EndSplineSet
Validated: 1
EndChar

StartChar: parenleft
Encoding: 40 40 7
Width: 306
GlyphClass: 1
Flags: W
LayerCount: 2
Fore
SplineSet
297 795 m 1,0,1
 271 775 271 775 251.5 759.5 c 128,-1,2
 232 744 232 744 220 731 c 0,3,4
 203 713 203 713 189.5 692 c 128,-1,5
 176 671 176 671 165 648 c 0,6,7
 116 541 116 541 116 352 c 0,8,9
 116 213 116 213 150 112 c 0,10,11
 171 50 171 50 198 17 c 0,12,13
 212 1 212 1 232.5 -16.5 c 128,-1,14
 253 -34 253 -34 282 -53 c 2,15,-1
 297 -63 l 1,16,-1
 283 -86 l 1,17,18
 222 -50 222 -50 174.5 -2 c 128,-1,19
 127 46 127 46 94 103 c 128,-1,20
 61 160 61 160 44 225 c 128,-1,21
 27 290 27 290 27 359 c 0,22,23
 27 495 27 495 98 619 c 0,24,25
 166 736 166 736 283 817 c 1,26,-1
 297 795 l 1,0,1
EndSplineSet
Validated: 1
EndChar

StartChar: parenright
Encoding: 41 41 8
Width: 306
GlyphClass: 1
Flags: W
LayerCount: 2
Fore
SplineSet
8 -64 m 1,0,1
 35 -44 35 -44 54.5 -28 c 128,-1,2
 74 -12 74 -12 85 0 c 0,3,4
 119 32 119 32 140 81 c 0,5,6
 189 189 189 189 189 377 c 0,7,8
 189 519 189 519 155 618 c 0,9,10
 136 676 136 676 106 714 c 0,11,12
 92 731 92 731 71.5 748 c 128,-1,13
 51 765 51 765 23 784 c 2,14,-1
 8 794 l 1,15,-1
 22 817 l 1,16,17
 143 746 143 746 210 628 c 0,18,19
 278 509 278 509 278 370 c 0,20,21
 278 236 278 236 211.5 118.5 c 128,-1,22
 145 1 145 1 22 -86 c 1,23,-1
 8 -64 l 1,0,1
EndSplineSet
Validated: 1
EndChar

StartChar: asterisk
Encoding: 42 42 9
Width: 370
GlyphClass: 1
Flags: W
LayerCount: 2
Fore
SplineSet
218 668 m 1,0,1
 238 676 238 676 252.5 681 c 128,-1,2
 267 686 267 686 277 689 c 2,3,-1
 320 703 l 2,4,5
 327 707 327 707 337 707 c 0,6,7
 345 707 345 707 345 701 c 0,8,9
 345 693 345 693 315 668 c 2,10,-1
 285 642 l 2,11,12
 281 639 281 639 273 631.5 c 128,-1,13
 265 624 265 624 252 613 c 1,14,15
 262 604 262 604 285 583 c 2,16,-1
 315 558 l 2,17,18
 345 532 345 532 345 525 c 0,19,20
 345 519 345 519 337 519 c 256,21,22
 329 519 329 519 320 522 c 2,23,-1
 277 536 l 2,24,25
 275 538 275 538 218 557 c 1,26,27
 216 543 216 543 211.5 519.5 c 128,-1,28
 207 496 207 496 201 461 c 0,29,30
 197 433 197 433 185 433 c 256,31,32
 173 433 173 433 163 490 c 0,33,34
 160 507 160 507 157 523.5 c 128,-1,35
 154 540 154 540 152 557 c 1,36,37
 138 552 138 552 123.5 546.5 c 128,-1,38
 109 541 109 541 94 536 c 2,39,-1
 51 522 l 2,40,41
 42 519 42 519 33 519 c 0,42,43
 25 519 25 519 25 525 c 0,44,45
 25 532 25 532 55 558 c 2,46,-1
 85 583 l 2,47,48
 92 590 92 590 118 613 c 1,49,-1
 55 668 l 2,50,51
 25 693 25 693 25 701 c 0,52,53
 25 707 25 707 33 707 c 0,54,55
 44 707 44 707 51 703 c 2,56,-1
 94 689 l 2,57,58
 98 688 98 688 152 668 c 1,59,60
 157 694 157 694 161 717.5 c 128,-1,61
 165 741 165 741 169 764 c 0,62,63
 173 792 173 792 185 792 c 256,64,65
 197 792 197 792 201 764 c 0,66,67
 203 753 203 753 207 729 c 128,-1,68
 211 705 211 705 218 668 c 1,0,1
EndSplineSet
Validated: 1
EndChar

StartChar: plus
Encoding: 43 43 10
Width: 410
GlyphClass: 1
Flags: W
LayerCount: 2
Fore
SplineSet
181 279 m 1,0,-1
 25 279 l 1,1,-1
 41 329 l 1,2,-1
 181 329 l 1,3,-1
 181 485 l 1,4,-1
 231 471 l 1,5,-1
 231 329 l 1,6,-1
 386 329 l 1,7,-1
 372 279 l 1,8,-1
 231 279 l 1,9,-1
 231 124 l 1,10,-1
 181 140 l 1,11,-1
 181 279 l 1,0,-1
EndSplineSet
Validated: 1
EndChar

StartChar: comma
Encoding: 44 44 11
Width: 205
GlyphClass: 1
Flags: W
LayerCount: 2
Fore
SplineSet
18 69 m 1,0,-1
 76 127 l 1,1,-1
 114 167 l 2,2,3
 117 170 117 170 120 172.5 c 128,-1,4
 123 175 123 175 125 177 c 1,5,-1
 134 164 l 2,6,7
 186 90 186 90 186 27 c 0,8,9
 186 -65 186 -65 82 -160 c 1,10,-1
 68 -148 l 1,11,12
 112 -92 112 -92 112 -43 c 0,13,14
 112 18 112 18 57 73 c 1,15,-1
 33 52 l 1,16,-1
 18 69 l 1,0,-1
EndSplineSet
Validated: 1
EndChar

StartChar: hyphen
Encoding: 45 45 12
Width: 233
GlyphClass: 1
Flags: W
LayerCount: 2
Fore
SplineSet
198 433 m 1,0,-1
 206 372 l 1,1,-1
 34 292 l 1,2,-1
 25 355 l 1,3,-1
 198 433 l 1,0,-1
198 298 m 1,4,-1
 206 237 l 1,5,-1
 34 158 l 1,6,-1
 25 221 l 1,7,-1
 198 298 l 1,4,-1
EndSplineSet
Validated: 1
EndChar

StartChar: period
Encoding: 46 46 13
Width: 230
GlyphClass: 1
Flags: W
LayerCount: 2
Fore
SplineSet
123 171 m 1,0,1
 134 93 134 93 212 81 c 1,2,-1
 212 65 l 1,3,4
 135 59 135 59 123 -21 c 1,5,-1
 107 -21 l 1,6,7
 87 64 87 64 18 65 c 1,8,-1
 18 81 l 1,9,10
 94 87 94 87 107 171 c 1,11,-1
 123 171 l 1,0,1
EndSplineSet
Validated: 1
EndChar

StartChar: slash
Encoding: 47 47 14
Width: 324
GlyphClass: 1
Flags: W
LayerCount: 2
Fore
SplineSet
315 809 m 1,0,-1
 38 -78 l 1,1,-1
 7 -78 l 1,2,-1
 284 809 l 1,3,-1
 315 809 l 1,0,-1
EndSplineSet
Validated: 1
EndChar

StartChar: longs
Encoding: 383 383 15
Width: 236
GlyphClass: 1
Flags: W
LayerCount: 2
Fore
SplineSet
-18 434 m 1,0,1
 27 458 27 458 47 511 c 0,2,3
 58 542 58 542 66 615 c 0,4,5
 83 773 83 773 189 773 c 0,6,7
 218 773 218 773 276 750 c 0,8,9
 289 743 289 743 300 743 c 0,10,11
 322 743 322 743 322 774 c 0,12,13
 322 783 322 783 321 785 c 1,14,-1
 338 785 l 1,15,16
 342 766 342 766 342 739 c 0,17,18
 342 699 342 699 314 671.5 c 128,-1,19
 286 644 286 644 246 644 c 0,20,21
 224 644 224 644 179 661 c 256,22,23
 134 678 134 678 117 678 c 0,24,25
 91 678 91 678 91 647 c 0,26,27
 91 623 91 623 108 601 c 2,28,-1
 139 563 l 2,29,30
 184 507 184 507 184 416 c 0,31,32
 184 309 184 309 175 188 c 2,33,-1
 161 0 l 2,34,35
 156 -58 156 -58 152 -97 c 128,-1,36
 148 -136 148 -136 144 -158 c 0,37,38
 144 -164 144 -164 138 -185 c 1,39,-1
 119 -185 l 1,40,-1
 115 -163 l 2,41,42
 110 -139 110 -139 105.5 -98.5 c 128,-1,43
 101 -58 101 -58 96 0 c 2,44,-1
 82 164 l 2,45,46
 80 195 80 195 77 234 c 128,-1,47
 74 273 74 273 70 321 c 2,48,-1
 62 434 l 1,49,-1
 -18 434 l 1,0,1
EndSplineSet
Validated: 1
EndChar

StartChar: zero
Encoding: 48 48 16
Width: 565
GlyphClass: 1
Flags: W
LayerCount: 2
Fore
SplineSet
285 680 m 0,0,1
 406 680 406 680 478 560 c 0,2,3
 540 457 540 457 540 329 c 0,4,5
 540 197 540 197 478 102 c 0,6,7
 407 -6 407 -6 281 -6 c 0,8,9
 156 -6 156 -6 86 102 c 0,10,11
 25 196 25 196 25 327 c 256,12,13
 25 458 25 458 88 560 c 0,14,15
 161 680 161 680 285 680 c 0,0,1
283 654 m 0,16,17
 249 654 249 654 220 634.5 c 128,-1,18
 191 615 191 615 178 583 c 0,19,20
 146 502 146 502 146 333 c 0,21,22
 146 167 146 167 178.5 90 c 128,-1,23
 211 13 211 13 280 13 c 0,24,25
 375 13 375 13 404 141 c 0,26,27
 417 197 417 197 417 342 c 0,28,29
 417 472 417 472 403 533 c 0,30,31
 375 654 375 654 283 654 c 0,16,17
EndSplineSet
Validated: 1
EndChar

StartChar: one
Encoding: 49 49 17
Width: 299
GlyphClass: 1
Flags: W
LayerCount: 2
Fore
SplineSet
0 424 m 1,0,1
 106 537 106 537 214 704 c 1,2,3
 213 697 213 697 211.5 682.5 c 128,-1,4
 210 668 210 668 208 646 c 2,5,-1
 206 598 l 2,6,7
 205 586 205 586 205 574 c 128,-1,8
 205 562 205 562 205 551 c 2,9,-1
 205 128 l 2,10,11
 205 63 205 63 210 50 c 0,12,13
 220 23 220 23 272 23 c 2,14,-1
 288 23 l 1,15,-1
 288 0 l 1,16,17
 287 0 287 0 279.5 0 c 128,-1,18
 272 0 272 0 256 1 c 0,19,20
 238 2 238 2 221.5 2 c 128,-1,21
 205 2 205 2 190 2 c 2,22,-1
 145 2 l 2,23,24
 103 2 103 2 69.5 1.5 c 128,-1,25
 36 1 36 1 11 0 c 1,26,-1
 11 23 l 1,27,-1
 47 23 l 2,28,29
 65 23 65 23 77 26 c 128,-1,30
 89 29 89 29 95.5 38 c 128,-1,31
 102 47 102 47 104.5 62.5 c 128,-1,32
 107 78 107 78 107 102 c 2,33,-1
 107 513 l 1,34,-1
 21 408 l 1,35,-1
 0 424 l 1,0,1
EndSplineSet
Validated: 1
EndChar

StartChar: two
Encoding: 50 50 18
Width: 471
GlyphClass: 1
Flags: W
LayerCount: 2
Fore
SplineSet
460 196 m 1,0,1
 443 88 443 88 401.5 40 c 128,-1,2
 360 -8 360 -8 288 -8 c 0,3,4
 241 -8 241 -8 195 15 c 2,5,-1
 148 40 l 2,6,7
 129 50 129 50 109 50 c 0,8,9
 62 50 62 50 31 -17 c 1,10,-1
 10 -8 l 1,11,12
 33 43 33 43 53 70 c 0,13,14
 64 84 64 84 92 114 c 128,-1,15
 120 144 120 144 166 189 c 0,16,17
 324 345 324 345 324 503 c 0,18,19
 324 567 324 567 297 606.5 c 128,-1,20
 270 646 270 646 225 646 c 0,21,22
 161 646 161 646 106 576 c 0,23,24
 50 506 50 506 50 442 c 0,25,26
 50 388 50 388 98 388 c 0,27,28
 138 388 138 388 180 430 c 0,29,30
 223 473 223 473 223 513 c 0,31,32
 223 546 223 546 197 581 c 1,33,-1
 213 593 l 1,34,35
 249 554 249 554 249 498 c 0,36,37
 249 435 249 435 206 383 c 0,38,39
 159 326 159 326 99 326 c 0,40,41
 65 326 65 326 43.5 353.5 c 128,-1,42
 22 381 22 381 22 426 c 0,43,44
 22 523 22 523 95 602 c 0,45,46
 169 682 169 682 258 682 c 0,47,48
 335 682 335 682 388 626 c 0,49,50
 440 571 440 571 440 492 c 0,51,52
 440 418 440 418 396 362 c 0,53,54
 333 282 333 282 241 213 c 0,55,56
 169 159 169 159 148 135 c 1,57,58
 168 140 168 140 176 140 c 0,59,60
 199 140 199 140 230 126 c 0,61,62
 239 121 239 121 278 96 c 0,63,64
 318 72 318 72 348 72 c 0,65,66
 425 72 425 72 434 202 c 1,67,-1
 460 196 l 1,0,1
EndSplineSet
Validated: 1
EndChar

StartChar: three
Encoding: 51 51 19
Width: 481
GlyphClass: 1
Flags: W
LayerCount: 2
Fore
SplineSet
263 612 m 1,0,1
 267 599 267 599 267 582 c 0,2,3
 267 530 267 530 231 490 c 0,4,5
 195 449 195 449 145 449 c 0,6,7
 114 449 114 449 94.5 467.5 c 128,-1,8
 75 486 75 486 75 515 c 0,9,10
 75 587 75 587 152 637 c 0,11,12
 220 681 220 681 296 681 c 0,13,14
 347 681 347 681 388 651 c 0,15,16
 432 619 432 619 432 569 c 0,17,18
 432 480 432 480 296 416 c 2,19,-1
 275 406 l 1,20,21
 345 398 345 398 386 367 c 0,22,23
 458 310 458 310 458 220 c 0,24,25
 458 126 458 126 382 60 c 0,26,27
 305 -6 305 -6 211 -6 c 0,28,29
 137 -6 137 -6 78 35 c 0,30,31
 13 82 13 82 13 152 c 0,32,33
 13 184 13 184 29.5 205 c 128,-1,34
 46 226 46 226 72 226 c 0,35,36
 96 226 96 226 112.5 206 c 128,-1,37
 129 186 129 186 129 157 c 0,38,39
 129 139 129 139 125 122 c 2,40,-1
 121 103 l 2,41,42
 120 101 120 101 120 89 c 0,43,44
 120 57 120 57 143.5 36 c 128,-1,45
 167 15 167 15 204 15 c 0,46,47
 270 15 270 15 305 66 c 128,-1,48
 340 117 340 117 340 211 c 0,49,50
 340 383 340 383 237 383 c 0,51,52
 202 383 202 383 176 364 c 2,53,-1
 142 340 l 2,54,55
 132 333 132 333 122 333 c 0,56,57
 108 333 108 333 108 349 c 0,58,59
 108 375 108 375 187 397 c 2,60,-1
 239 412 l 2,61,62
 279 424 279 424 304 461.5 c 128,-1,63
 329 499 329 499 329 550 c 0,64,65
 329 593 329 593 305.5 619.5 c 128,-1,66
 282 646 282 646 245 646 c 0,67,68
 203 646 203 646 155 610 c 0,69,70
 104 572 104 572 104 532 c 0,71,72
 104 497 104 497 147 497 c 0,73,74
 168 497 168 497 186.5 504 c 128,-1,75
 205 511 205 511 218.5 522.5 c 128,-1,76
 232 534 232 534 240 550 c 128,-1,77
 248 566 248 566 248 584 c 1,78,79
 248 583 248 583 247.5 589 c 128,-1,80
 247 595 247 595 246 608 c 1,81,-1
 263 612 l 1,0,1
EndSplineSet
Validated: 1
EndChar

StartChar: four
Encoding: 52 52 20
Width: 476
GlyphClass: 1
Flags: W
LayerCount: 2
Fore
SplineSet
466 195 m 1,0,-1
 466 145 l 1,1,-1
 355 145 l 1,2,-1
 355 93 l 2,3,4
 355 53 355 53 368.5 38 c 128,-1,5
 382 23 382 23 418 23 c 2,6,-1
 449 23 l 1,7,-1
 449 0 l 1,8,-1
 429 0 l 1,9,-1
 285 2 l 1,10,-1
 262 2 l 2,11,12
 254 1 254 1 247 1 c 128,-1,13
 240 1 240 1 235 1 c 2,14,-1
 190 1 l 2,15,16
 186 0 186 0 148 0 c 1,17,-1
 148 23 l 1,18,-1
 194 23 l 2,19,20
 231 23 231 23 243 37 c 128,-1,21
 255 51 255 51 255 93 c 2,22,-1
 255 145 l 1,23,-1
 7 145 l 1,24,25
 23 170 23 170 41.5 202 c 128,-1,26
 60 234 60 234 80 272 c 2,27,-1
 163 430 l 2,28,29
 206 511 206 511 239 577 c 128,-1,30
 272 643 272 643 297 696 c 1,31,-1
 340 696 l 1,32,-1
 57 195 l 1,33,-1
 255 195 l 1,34,-1
 255 421 l 1,35,-1
 363 623 l 1,36,37
 361 605 361 605 360 585 c 128,-1,38
 359 565 359 565 358 543 c 2,39,-1
 356 472 l 2,40,41
 355 455 355 455 355 439 c 128,-1,42
 355 423 355 423 355 409 c 2,43,-1
 355 195 l 1,44,-1
 466 195 l 1,0,-1
EndSplineSet
Validated: 1
EndChar

StartChar: five
Encoding: 53 53 21
Width: 471
GlyphClass: 1
Flags: W
LayerCount: 2
Fore
SplineSet
40 312 m 1,0,1
 53 349 53 349 63 381.5 c 128,-1,2
 73 414 73 414 80 442 c 2,3,-1
 120 598 l 2,4,5
 122 611 122 611 124.5 623 c 128,-1,6
 127 635 127 635 130 647 c 0,7,8
 137 672 137 672 165 672 c 0,9,10
 168 672 168 672 170.5 671.5 c 128,-1,11
 173 671 173 671 178.5 671 c 128,-1,12
 184 671 184 671 194 670.5 c 128,-1,13
 204 670 204 670 222 670 c 0,14,15
 331 670 331 670 364 682 c 0,16,17
 384 690 384 690 400 720 c 0,18,19
 401 722 401 722 401.5 724 c 128,-1,20
 402 726 402 726 404 729 c 2,21,-1
 428 729 l 1,22,-1
 404 675 l 2,23,24
 372 605 372 605 361 598 c 0,25,26
 331 579 331 579 213 566 c 2,27,-1
 160 560 l 2,28,29
 143 558 143 558 136 550 c 128,-1,30
 129 542 129 542 122 518 c 2,31,-1
 90 401 l 1,32,33
 159 464 159 464 244 464 c 0,34,35
 337 464 337 464 394 402 c 0,36,37
 448 340 448 340 448 247 c 0,38,39
 448 138 448 138 374 66 c 256,40,41
 300 -6 300 -6 192 -6 c 0,42,43
 123 -6 123 -6 71 31 c 0,44,45
 12 75 12 75 12 140 c 0,46,47
 12 166 12 166 27 182 c 128,-1,48
 42 198 42 198 66 198 c 0,49,50
 91 198 91 198 108 179.5 c 128,-1,51
 125 161 125 161 125 132 c 0,52,53
 125 121 125 121 121.5 100.5 c 128,-1,54
 118 80 118 80 118 69 c 0,55,56
 118 15 118 15 188 15 c 0,57,58
 257 15 257 15 294.5 71 c 128,-1,59
 332 127 332 127 332 230 c 0,60,61
 332 323 332 323 299 373 c 128,-1,62
 266 423 266 423 205 423 c 0,63,64
 102 423 102 423 61 304 c 1,65,-1
 40 312 l 1,0,1
EndSplineSet
Validated: 1
EndChar

StartChar: six
Encoding: 54 54 22
Width: 489
GlyphClass: 1
Flags: W
LayerCount: 2
Fore
SplineSet
140 350 m 1,0,1
 174 449 174 449 284 449 c 0,2,3
 367 449 367 449 418 386 c 0,4,5
 464 328 464 328 464 242 c 0,6,7
 464 145 464 145 404 72 c 0,8,9
 339 -6 339 -6 246 -6 c 0,10,11
 138 -6 138 -6 77 96 c 0,12,13
 25 182 25 182 25 298 c 0,14,15
 25 473 25 473 107 582 c 0,16,17
 177 676 177 676 297 676 c 0,18,19
 344 676 344 676 388 655 c 0,20,21
 441 629 441 629 441 586 c 0,22,23
 441 567 441 567 428.5 554.5 c 128,-1,24
 416 542 416 542 398 542 c 0,25,26
 355 542 355 542 341 595 c 0,27,28
 332 630 332 630 318.5 642.5 c 128,-1,29
 305 655 305 655 277 655 c 0,30,31
 245 655 245 655 220 635 c 128,-1,32
 195 615 195 615 177 578 c 128,-1,33
 159 541 159 541 149.5 488 c 128,-1,34
 140 435 140 435 140 369 c 2,35,-1
 140 350 l 1,0,1
247 419 m 0,36,37
 145 419 145 419 145 221 c 0,38,39
 145 15 145 15 251 15 c 0,40,41
 275 15 275 15 295 29 c 128,-1,42
 315 43 315 43 329.5 69 c 128,-1,43
 344 95 344 95 351.5 131 c 128,-1,44
 359 167 359 167 359 211 c 0,45,46
 359 308 359 308 329 363.5 c 128,-1,47
 299 419 299 419 247 419 c 0,36,37
EndSplineSet
Validated: 1
EndChar

StartChar: seven
Encoding: 55 55 23
Width: 456
GlyphClass: 1
Flags: W
LayerCount: 2
Fore
SplineSet
468 668 m 1,0,1
 393 579 393 579 347 424 c 0,2,3
 295 253 295 253 295 71 c 0,4,5
 295 46 295 46 298 0 c 1,6,-1
 175 0 l 1,7,8
 178 208 178 208 315 450 c 2,9,-1
 380 565 l 2,10,11
 381 569 381 569 389 583 c 1,12,13
 310 525 310 525 253 525 c 0,14,15
 195 525 195 525 122 580 c 0,16,17
 90 603 90 603 76 603 c 0,18,19
 28 603 28 603 28 492 c 1,20,-1
 5 492 l 1,21,-1
 5 508 l 2,22,23
 5 586 5 586 39.5 632.5 c 128,-1,24
 74 679 74 679 134 679 c 0,25,26
 180 679 180 679 245 638 c 256,27,28
 310 597 310 597 335 597 c 0,29,30
 392 597 392 597 448 680 c 1,31,-1
 468 668 l 1,0,1
EndSplineSet
Validated: 1
EndChar

StartChar: eight
Encoding: 56 56 24
Width: 486
GlyphClass: 1
Flags: W
LayerCount: 2
Fore
SplineSet
334 386 m 1,0,1
 465 321 465 321 465 199 c 0,2,3
 465 109 465 109 399 51 c 0,4,5
 334 -6 334 -6 242 -6 c 0,6,7
 155 -6 155 -6 91 41 c 0,8,9
 23 94 23 94 23 179 c 0,10,11
 23 284 23 284 154 346 c 1,12,13
 51 406 51 406 51 507 c 0,14,15
 51 585 51 585 110 635 c 0,16,17
 166 682 166 682 246 682 c 0,18,19
 321 682 321 682 379 641 c 0,20,21
 442 596 442 596 442 523 c 0,22,23
 442 481 442 481 418.5 451 c 128,-1,24
 395 421 395 421 334 386 c 1,0,1
317 394 m 1,25,26
 360 431 360 431 360 505 c 0,27,28
 360 578 360 578 329 619 c 128,-1,29
 298 660 298 660 244 660 c 0,30,31
 195 660 195 660 166 630.5 c 128,-1,32
 137 601 137 601 137 550 c 0,33,34
 137 433 137 433 317 394 c 1,25,26
171 338 m 1,35,36
 110 296 110 296 110 183 c 0,37,38
 110 105 110 105 147 60 c 128,-1,39
 184 15 184 15 248 15 c 0,40,41
 276 15 276 15 300 25.5 c 128,-1,42
 324 36 324 36 341 54.5 c 128,-1,43
 358 73 358 73 367.5 98 c 128,-1,44
 377 123 377 123 377 152 c 0,45,46
 377 220 377 220 313 268 c 0,47,48
 273 298 273 298 189 331 c 2,49,-1
 171 338 l 1,35,36
EndSplineSet
Validated: 1
EndChar

StartChar: nine
Encoding: 57 57 25
Width: 486
GlyphClass: 1
Flags: W
LayerCount: 2
Fore
SplineSet
347 315 m 1,0,1
 306 219 306 219 203 219 c 0,2,3
 117 219 117 219 68 282 c 0,4,5
 23 339 23 339 23 427 c 0,6,7
 23 521 23 521 82 597 c 0,8,9
 147 677 147 677 239 677 c 0,10,11
 348 677 348 677 409 574 c 0,12,13
 461 488 461 488 461 372 c 0,14,15
 461 192 461 192 369 76 c 0,16,17
 302 -6 302 -6 189 -6 c 0,18,19
 137 -6 137 -6 96 13 c 0,20,21
 43 39 43 39 43 84 c 0,22,23
 43 103 43 103 55 115.5 c 128,-1,24
 67 128 67 128 85 128 c 0,25,26
 115 128 115 128 132 98 c 0,27,28
 138 84 138 84 144 70.5 c 128,-1,29
 150 57 150 57 156 43 c 0,30,31
 172 13 172 13 206 13 c 0,32,33
 273 13 273 13 310 92 c 128,-1,34
 347 171 347 171 347 315 c 1,0,1
237 653 m 0,35,36
 186 653 186 653 156 600 c 128,-1,37
 126 547 126 547 126 457 c 0,38,39
 126 360 126 360 156 304.5 c 128,-1,40
 186 249 186 249 238 249 c 0,41,42
 342 249 342 249 342 456 c 0,43,44
 342 653 342 653 237 653 c 0,35,36
EndSplineSet
Validated: 1
EndChar

StartChar: colon
Encoding: 58 58 26
Width: 261
GlyphClass: 1
Flags: W
LayerCount: 2
Fore
SplineSet
153 553 m 1,0,1
 164 475 164 475 242 463 c 1,2,-1
 242 447 l 1,3,4
 165 441 165 441 153 359 c 1,5,-1
 137 359 l 1,6,7
 117 446 117 446 48 447 c 1,8,-1
 48 463 l 1,9,10
 124 469 124 469 137 553 c 1,11,-1
 153 553 l 1,0,1
153 171 m 1,12,13
 164 93 164 93 242 81 c 1,14,-1
 242 65 l 1,15,16
 165 59 165 59 153 -21 c 1,17,-1
 137 -21 l 1,18,19
 117 64 117 64 48 65 c 1,20,-1
 48 81 l 1,21,22
 124 87 124 87 137 171 c 1,23,-1
 153 171 l 1,12,13
EndSplineSet
Validated: 1
EndChar

StartChar: semicolon
Encoding: 59 59 27
Width: 253
GlyphClass: 1
Flags: W
LayerCount: 2
Fore
SplineSet
153 552 m 1,0,1
 163 476 163 476 242 462 c 1,2,-1
 242 447 l 1,3,4
 165 439 165 439 153 359 c 1,5,-1
 137 359 l 1,6,7
 117 446 117 446 48 447 c 1,8,-1
 48 462 l 1,9,10
 83 465 83 465 107.5 489.5 c 128,-1,11
 132 514 132 514 137 552 c 1,12,-1
 153 552 l 1,0,1
57 70 m 1,13,-1
 164 178 l 1,14,-1
 173 165 l 2,15,16
 225 91 225 91 225 28 c 0,17,18
 225 -64 225 -64 121 -159 c 1,19,-1
 107 -148 l 1,20,21
 151 -89 151 -89 151 -42 c 0,22,23
 151 15 151 15 95 74 c 1,24,-1
 72 52 l 1,25,-1
 57 70 l 1,13,-1
EndSplineSet
Validated: 1
EndChar

StartChar: equal
Encoding: 61 61 28
Width: 427
GlyphClass: 1
Flags: W
LayerCount: 2
Fore
SplineSet
396 343 m 1,0,-1
 382 293 l 1,1,-1
 35 293 l 1,2,-1
 51 343 l 1,3,-1
 396 343 l 1,0,-1
395 206 m 1,4,-1
 381 156 l 1,5,-1
 34 156 l 1,6,-1
 50 206 l 1,7,-1
 395 206 l 1,4,-1
EndSplineSet
Validated: 1
EndChar

StartChar: question
Encoding: 63 63 29
Width: 360
GlyphClass: 1
Flags: W
LayerCount: 2
Fore
SplineSet
183 171 m 1,0,1
 193 95 193 95 272 81 c 1,2,-1
 272 65 l 1,3,4
 195 59 195 59 183 -21 c 1,5,-1
 167 -21 l 1,6,7
 147 64 147 64 78 65 c 1,8,-1
 78 81 l 1,9,10
 154 87 154 87 167 171 c 1,11,-1
 183 171 l 1,0,1
350 394 m 1,12,13
 344 362 344 362 329.5 336.5 c 128,-1,14
 315 311 315 311 294 292 c 128,-1,15
 273 273 273 273 247 263 c 128,-1,16
 221 253 221 253 191 253 c 0,17,18
 138 253 138 253 101 286 c 0,19,20
 61 320 61 320 61 373 c 0,21,22
 61 433 61 433 156 523 c 0,23,24
 177 544 177 544 191.5 559.5 c 128,-1,25
 206 575 206 575 214.5 588 c 128,-1,26
 223 601 223 601 226.5 613 c 128,-1,27
 230 625 230 625 230 639 c 0,28,29
 230 676 230 676 211 698 c 128,-1,30
 192 720 192 720 160 720 c 0,31,32
 123 720 123 720 99 692 c 0,33,34
 86 678 86 678 89 673 c 0,35,36
 91 670 91 670 96 669 c 0,37,38
 144 655 144 655 144 613 c 0,39,40
 144 591 144 591 128 575.5 c 128,-1,41
 112 560 112 560 90 560 c 0,42,43
 66 560 66 560 50.5 577 c 128,-1,44
 35 594 35 594 35 620 c 0,45,46
 35 674 35 674 78 710 c 0,47,48
 118 743 118 743 173 743 c 0,49,50
 232 743 232 743 276 708 c 0,51,52
 322 671 322 671 322 611 c 0,53,54
 322 540 322 540 247 468 c 2,55,-1
 203 426 l 2,56,57
 161 385 161 385 161 349 c 0,58,59
 161 323 161 323 178 305 c 128,-1,60
 195 287 195 287 220 287 c 0,61,62
 299 287 299 287 334 398 c 1,63,-1
 350 394 l 1,12,13
EndSplineSet
Validated: 1
EndChar

StartChar: at
Encoding: 64 64 30
Width: 800
GlyphClass: 1
Flags: W
LayerCount: 2
Fore
SplineSet
751 383 m 0,0,1
 751 296 751 296 702 223 c 0,2,3
 646 139 646 139 559 139 c 0,4,5
 497 139 497 139 466 200 c 1,6,7
 408 142 408 142 346 142 c 0,8,9
 296 142 296 142 271 184 c 0,10,11
 251 219 251 219 251 272 c 0,12,13
 251 343 251 343 300 419 c 0,14,15
 361 516 361 516 454 516 c 0,16,17
 494 516 494 516 522 479 c 1,18,-1
 529 504 l 1,19,-1
 614 504 l 1,20,21
 607 480 607 480 597 444 c 128,-1,22
 587 408 587 408 573 360 c 0,23,24
 543 252 543 252 543 216 c 0,25,26
 543 187 543 187 574 187 c 0,27,28
 636 187 636 187 673 257 c 0,29,30
 704 315 704 315 704 383 c 0,31,32
 704 475 704 475 630 555 c 0,33,34
 546 645 546 645 418 645 c 0,35,36
 280 645 280 645 204 542 c 0,37,38
 134 451 134 451 134 308 c 0,39,40
 134 201 134 201 213 119 c 0,41,42
 298 31 298 31 427 31 c 0,43,44
 518 31 518 31 626 81 c 1,45,-1
 649 45 l 1,46,47
 526 -14 526 -14 428 -14 c 0,48,49
 248 -14 248 -14 140 100 c 0,50,51
 49 197 49 197 49 319 c 0,52,53
 49 475 49 475 154 579 c 0,54,55
 261 683 261 683 418 683 c 0,56,57
 554 683 554 683 650 602 c 0,58,59
 751 516 751 516 751 383 c 0,0,1
502 406 m 1,60,61
 502 459 502 459 468 459 c 0,62,63
 427 459 427 459 384 411 c 0,64,65
 333 354 333 354 333 269 c 0,66,67
 333 196 333 196 392 196 c 0,68,69
 422 196 422 196 454 247 c 0,70,71
 493 308 493 308 502 406 c 1,60,61
EndSplineSet
Validated: 1
EndChar

StartChar: A
Encoding: 65 65 31
Width: 641
GlyphClass: 1
Flags: W
LayerCount: 2
Fore
SplineSet
650 151 m 1,0,-1
 661 140 l 1,1,2
 658 138 658 138 643 122 c 2,3,-1
 640 119 l 1,4,-1
 576 53 l 2,5,6
 557 33 557 33 539 14.5 c 128,-1,7
 521 -4 521 -4 502 -23 c 1,8,-1
 450 32 l 2,9,10
 423 60 423 60 418 69 c 0,11,12
 404 89 404 89 403 115 c 2,13,-1
 401 139 l 2,14,15
 401 141 401 141 400.5 146 c 128,-1,16
 400 151 400 151 399 159 c 1,17,18
 396 156 396 156 390 150.5 c 128,-1,19
 384 145 384 145 376 137 c 2,20,-1
 306 71 l 2,21,22
 292 58 292 58 270.5 35 c 128,-1,23
 249 12 249 12 219 -23 c 1,24,-1
 203 -6 l 2,25,26
 174 24 174 24 152.5 45 c 128,-1,27
 131 66 131 66 117 78 c 0,28,29
 68 120 68 120 14 137 c 1,30,-1
 14 160 l 1,31,32
 123 184 123 184 166 254 c 0,33,34
 203 313 203 313 203 433 c 0,35,36
 203 612 203 612 154 694 c 0,37,38
 124 745 124 745 75 745 c 0,39,40
 58 745 58 745 41 734 c 1,41,42
 45 734 45 734 47 732 c 2,43,-1
 54 730 l 2,44,45
 80 723 80 723 97.5 700.5 c 128,-1,46
 115 678 115 678 115 652 c 0,47,48
 115 621 115 621 94 599.5 c 128,-1,49
 73 578 73 578 41 578 c 0,50,51
 7 578 7 578 -16 601.5 c 128,-1,52
 -39 625 -39 625 -39 658 c 0,53,54
 -39 711 -39 711 7 745 c 0,55,56
 50 776 50 776 105 776 c 0,57,58
 209 776 209 776 277 690 c 0,59,60
 339 610 339 610 339 503 c 0,61,62
 339 320 339 320 142 195 c 1,63,64
 179 172 179 172 212 145 c 128,-1,65
 245 118 245 118 276 87 c 2,66,-1
 287 76 l 1,67,-1
 341 130 l 1,68,-1
 386 171 l 1,69,-1
 397 182 l 1,70,-1
 397 479 l 2,71,72
 397 561 397 561 400 584 c 0,73,74
 407 641 407 641 442 677 c 0,75,76
 539 779 539 779 609 779 c 0,77,78
 640 779 640 779 660 761.5 c 128,-1,79
 680 744 680 744 680 717 c 0,80,81
 680 696 680 696 667.5 682 c 128,-1,82
 655 668 655 668 636 668 c 0,83,84
 594 668 594 668 594 709 c 0,85,86
 594 725 594 725 605 738 c 0,87,88
 611 745 611 745 611 749 c 0,89,90
 611 759 611 759 594 759 c 0,91,92
 567 759 567 759 545 723 c 0,93,94
 514 676 514 676 514 568 c 2,95,-1
 514 217 l 2,96,97
 514 173 514 173 528 144.5 c 128,-1,98
 542 116 542 116 580 84 c 1,99,-1
 650 151 l 1,0,-1
EndSplineSet
Validated: 1
EndChar

StartChar: B
Encoding: 66 66 32
Width: 851
GlyphClass: 1
Flags: W
LayerCount: 2
Fore
SplineSet
825 590 m 1,0,1
 803 579 803 579 764.5 560 c 128,-1,2
 726 541 726 541 671 512 c 1,3,4
 745 486 745 486 787 420 c 256,5,6
 829 354 829 354 829 274 c 0,7,8
 829 140 829 140 728 56 c 0,9,10
 634 -23 634 -23 497 -23 c 0,11,12
 358 -23 358 -23 282 49 c 2,13,-1
 213 114 l 2,14,15
 149 173 149 173 101 173 c 0,16,17
 73 173 73 173 53 152 c 128,-1,18
 33 131 33 131 33 102 c 0,19,20
 33 93 33 93 38 78.5 c 128,-1,21
 43 64 43 64 45 64 c 0,22,23
 46 65 46 65 53 77 c 0,24,25
 70 109 70 109 98 109 c 0,26,27
 118 109 118 109 131.5 95 c 128,-1,28
 145 81 145 81 145 60 c 0,29,30
 145 37 145 37 129.5 21.5 c 128,-1,31
 114 6 114 6 90 6 c 0,32,33
 58 6 58 6 36 32 c 128,-1,34
 14 58 14 58 14 96 c 0,35,36
 14 156 14 156 67 194 c 0,37,38
 113 228 113 228 177 228 c 0,39,40
 212 228 212 228 278 208 c 2,41,-1
 291 204 l 1,42,43
 309 219 309 219 322 237.5 c 128,-1,44
 335 256 335 256 343.5 280 c 128,-1,45
 352 304 352 304 355.5 334.5 c 128,-1,46
 359 365 359 365 359 405 c 0,47,48
 359 577 359 577 301 680 c 0,49,50
 264 747 264 747 196 747 c 0,51,52
 164 747 164 747 142 725.5 c 128,-1,53
 120 704 120 704 120 672 c 0,54,55
 120 635 120 635 159 602 c 2,56,-1
 203 565 l 2,57,58
 286 494 286 494 286 424 c 0,59,60
 286 367 286 367 243 327 c 0,61,62
 199 288 199 288 142 288 c 0,63,64
 86 288 86 288 49 324 c 0,65,66
 12 361 12 361 12 411 c 0,67,68
 12 424 12 424 16 435 c 1,69,-1
 32 433 l 1,70,71
 31 421 31 421 30.5 415.5 c 128,-1,72
 30 410 30 410 30 411 c 1,73,74
 30 369 30 369 62 337 c 256,75,76
 94 305 94 305 136 305 c 0,77,78
 166 305 166 305 185.5 321.5 c 128,-1,79
 205 338 205 338 205 364 c 256,80,81
 205 390 205 390 179 418 c 0,82,83
 174 423 174 423 161.5 433 c 128,-1,84
 149 443 149 443 130 457 c 0,85,86
 48 518 48 518 48 600 c 0,87,88
 48 673 48 673 102 723 c 0,89,90
 158 773 158 773 231 773 c 0,91,92
 300 773 300 773 356 744 c 128,-1,93
 412 715 412 715 442 663 c 1,94,95
 450 714 450 714 490.5 744.5 c 128,-1,96
 531 775 531 775 591 775 c 0,97,98
 676 775 676 775 721 682 c 2,99,-1
 745 632 l 2,100,101
 763 594 763 594 785 594 c 0,102,103
 793 594 793 594 818 607 c 1,104,-1
 825 590 l 1,0,1
674 532 m 1,105,106
 641 559 641 559 629 577 c 0,107,108
 616 600 616 600 602 645 c 0,109,110
 586 695 586 695 572 713 c 128,-1,111
 558 731 558 731 534 731 c 0,112,113
 519 731 519 731 505 724.5 c 128,-1,114
 491 718 491 718 480.5 707 c 128,-1,115
 470 696 470 696 464 681.5 c 128,-1,116
 458 667 458 667 458 652 c 0,117,118
 458 642 458 642 459.5 629 c 128,-1,119
 461 616 461 616 463 599 c 0,120,121
 470 554 470 554 473.5 515 c 128,-1,122
 477 476 477 476 479 441 c 1,123,-1
 674 532 l 1,105,106
479 425 m 1,124,125
 473 361 473 361 449 320.5 c 128,-1,126
 425 280 425 280 375 246 c 2,127,-1
 320 209 l 2,128,129
 313 202 313 202 304 197 c 1,130,131
 320 187 320 187 347 167 c 128,-1,132
 374 147 374 147 412 115 c 0,133,134
 521 25 521 25 605 25 c 0,135,136
 671 25 671 25 721 72 c 0,137,138
 771 120 771 120 771 185 c 0,139,140
 771 274 771 274 691 354 c 0,141,142
 611 435 611 435 523 435 c 0,143,144
 499 435 499 435 479 425 c 1,124,125
EndSplineSet
Validated: 1
EndChar

StartChar: C
Encoding: 67 67 33
Width: 668
GlyphClass: 1
Flags: W
LayerCount: 2
Fore
SplineSet
687 275 m 1,0,1
 613 -24 613 -24 372 -24 c 0,2,3
 337 -24 337 -24 301.5 -17 c 128,-1,4
 266 -10 266 -10 233 3.5 c 128,-1,5
 200 17 200 17 171 35.5 c 128,-1,6
 142 54 142 54 121 78 c 0,7,8
 28 180 28 180 28 370 c 0,9,10
 28 507 28 507 80 621 c 0,11,12
 146 770 146 770 266 770 c 0,13,14
 346 770 346 770 384 693 c 1,15,-1
 397 703 l 1,16,-1
 439 736 l 2,17,18
 447 743 447 743 457 750.5 c 128,-1,19
 467 758 467 758 478 768 c 2,20,-1
 491 779 l 1,21,22
 535 714 535 714 579 714 c 0,23,24
 612 714 612 714 650 771 c 2,25,-1
 654 777 l 1,26,-1
 668 768 l 1,27,28
 630 691 630 691 596.5 659.5 c 128,-1,29
 563 628 563 628 519 628 c 0,30,31
 460 628 460 628 408 688 c 1,32,33
 352 641 352 641 352 613 c 0,34,35
 352 574 352 574 405 536 c 2,36,-1
 454 501 l 2,37,38
 547 435 547 435 547 343 c 0,39,40
 547 277 547 277 499 234 c 0,41,42
 452 191 452 191 384 191 c 0,43,44
 323 191 323 191 279 226 c 0,45,46
 231 263 231 263 231 323 c 0,47,48
 231 344 231 344 243 380 c 1,49,-1
 261 374 l 1,50,51
 250 343 250 343 250 325 c 0,52,53
 250 280 250 280 284 247 c 0,54,55
 319 215 319 215 364 215 c 0,56,57
 398 215 398 215 421.5 238 c 128,-1,58
 445 261 445 261 445 295 c 0,59,60
 445 338 445 338 360 398 c 0,61,62
 314 430 314 430 296 458 c 128,-1,63
 278 486 278 486 278 524 c 0,64,65
 278 566 278 566 302 604 c 0,66,67
 310 616 310 616 324 632 c 128,-1,68
 338 648 338 648 358 668 c 2,69,-1
 371 681 l 1,70,71
 347 745 347 745 287 745 c 0,72,73
 209 745 209 745 175 616 c 0,74,75
 152 529 152 529 152 427 c 0,76,77
 152 263 152 263 218.5 175 c 128,-1,78
 285 87 285 87 411 87 c 0,79,80
 605 87 605 87 666 280 c 1,81,-1
 687 275 l 1,0,1
EndSplineSet
Validated: 1
EndChar

StartChar: D
Encoding: 68 68 34
Width: 798
GlyphClass: 1
Flags: W
LayerCount: 2
Fore
SplineSet
12 499 m 1,0,1
 10 515 10 515 8.5 526 c 128,-1,2
 7 537 7 537 7 544 c 0,3,4
 7 653 7 653 119 717 c 0,5,6
 212 771 212 771 330 771 c 0,7,8
 517 771 517 771 645 647 c 0,9,10
 774 524 774 524 774 339 c 0,11,12
 774 192 774 192 695 89 c 0,13,14
 608 -23 608 -23 465 -23 c 0,15,16
 441 -23 441 -23 415 -18 c 128,-1,17
 389 -13 389 -13 363 -4.5 c 128,-1,18
 337 4 337 4 312.5 16 c 128,-1,19
 288 28 288 28 269 43 c 2,20,-1
 195 99 l 2,21,22
 140 140 140 140 99 140 c 0,23,24
 31 140 31 140 31 74 c 0,25,26
 31 48 31 48 43 48 c 0,27,28
 49 48 49 48 52 60 c 0,29,30
 61 90 61 90 94 90 c 0,31,32
 140 90 140 90 140 41 c 0,33,34
 140 18 140 18 124 3 c 128,-1,35
 108 -12 108 -12 85 -12 c 0,36,37
 70 -12 70 -12 56.5 -5 c 128,-1,38
 43 2 43 2 32.5 14.5 c 128,-1,39
 22 27 22 27 16 44 c 128,-1,40
 10 61 10 61 10 80 c 0,41,42
 10 137 10 137 53.5 171 c 128,-1,43
 97 205 97 205 169 205 c 0,44,45
 268 205 268 205 383 132 c 0,46,47
 451 89 451 89 472 79 c 0,48,49
 523 55 523 55 571 55 c 0,50,51
 648 55 648 55 690 118 c 0,52,53
 743 198 743 198 743 290 c 0,54,55
 743 430 743 430 616 530 c 0,56,57
 509 615 509 615 358 644 c 1,58,-1
 351 637 l 2,59,60
 312 598 312 598 312 578 c 0,61,62
 312 549 312 549 333 521 c 0,63,64
 334 518 334 518 374 475 c 0,65,66
 424 420 424 420 424 365 c 0,67,68
 424 299 424 299 377.5 262 c 128,-1,69
 331 225 331 225 250 225 c 0,70,71
 174 225 174 225 130 261 c 128,-1,72
 86 297 86 297 86 358 c 0,73,74
 86 434 86 434 152 467 c 1,75,-1
 161 451 l 1,76,77
 108 413 108 413 108 361 c 0,78,79
 108 320 108 320 135 287 c 256,80,81
 162 254 162 254 202 254 c 0,82,83
 217 254 217 254 231.5 260.5 c 128,-1,84
 246 267 246 267 256.5 278 c 128,-1,85
 267 289 267 289 273.5 303.5 c 128,-1,86
 280 318 280 318 280 333 c 0,87,88
 280 357 280 357 268 380 c 2,89,-1
 246 420 l 2,90,91
 219 469 219 469 219 502 c 0,92,93
 219 537 219 537 245.5 570 c 128,-1,94
 272 603 272 603 338 648 c 1,95,96
 275 660 275 660 211 660 c 0,97,98
 29 660 29 660 29 536 c 0,99,100
 29 520 29 520 33 503 c 1,101,-1
 12 499 l 1,102,-1
 12 499 l 1,0,1
EndSplineSet
Validated: 5
EndChar

StartChar: E
Encoding: 69 69 35
Width: 676
GlyphClass: 1
Flags: W
LayerCount: 2
Fore
SplineSet
577 596 m 1,0,1
 578 595 578 595 581 593 c 128,-1,2
 584 591 584 591 589 586 c 2,3,-1
 612 566 l 2,4,5
 637 544 637 544 651 544 c 0,6,7
 658 544 658 544 690 576 c 1,8,-1
 703 565 l 1,9,10
 684 542 684 542 657.5 510.5 c 128,-1,11
 631 479 631 479 596 437 c 1,12,-1
 521 499 l 1,13,-1
 483 456 l 1,14,15
 537 411 537 411 537 340 c 0,16,17
 537 275 537 275 493 226 c 0,18,19
 449 178 449 178 384 178 c 0,20,21
 326 178 326 178 282 213 c 0,22,23
 236 250 236 250 236 309 c 0,24,25
 236 343 236 343 253 369 c 1,26,-1
 266 359 l 1,27,28
 254 330 254 330 254 311 c 0,29,30
 254 271 254 271 283 237 c 0,31,32
 311 204 311 204 353 204 c 0,33,34
 368 204 368 204 383 210.5 c 128,-1,35
 398 217 398 217 409.5 227.5 c 128,-1,36
 421 238 421 238 428 251 c 128,-1,37
 435 264 435 264 435 278 c 0,38,39
 435 321 435 321 358 383 c 0,40,41
 335 401 335 401 320 415 c 128,-1,42
 305 429 305 429 297 439 c 0,43,44
 269 473 269 473 269 514 c 0,45,46
 269 576 269 576 315 628 c 2,47,-1
 351 669 l 1,48,-1
 354 672 l 1,49,-1
 361 681 l 1,50,51
 340 740 340 740 285 740 c 0,52,53
 209 740 209 740 173 620 c 0,54,55
 150 539 150 539 150 440 c 0,56,57
 150 269 150 269 216 175 c 128,-1,58
 282 81 282 81 402 81 c 0,59,60
 480 81 480 81 544.5 122 c 128,-1,61
 609 163 609 163 643 235 c 1,62,-1
 662 226 l 1,63,64
 622 96 622 96 551 36 c 128,-1,65
 480 -24 480 -24 368 -24 c 0,66,67
 207 -24 207 -24 113 97 c 0,68,69
 28 207 28 207 28 374 c 0,70,71
 28 508 28 508 83 624 c 0,72,73
 152 770 152 770 271 770 c 0,74,75
 342 770 342 770 376 697 c 1,76,-1
 460 790 l 1,77,78
 467 753 467 753 493.5 731.5 c 128,-1,79
 520 710 520 710 559 710 c 0,80,81
 589 710 589 710 606 723 c 128,-1,82
 623 736 623 736 643 774 c 1,83,-1
 655 763 l 1,84,85
 631 700 631 700 588 662.5 c 128,-1,86
 545 625 545 625 494 625 c 0,87,88
 434 625 434 625 391 683 c 1,89,90
 349 642 349 642 349 599 c 0,91,92
 349 564 349 564 399 525 c 2,93,-1
 455 481 l 2,94,95
 456 481 456 481 472 468 c 1,96,-1
 577 596 l 1,0,1
EndSplineSet
Validated: 1
EndChar

StartChar: F
Encoding: 70 70 36
Width: 635
GlyphClass: 1
Flags: W
LayerCount: 2
Fore
SplineSet
549 507 m 2,0,1
 551 506 551 506 553.5 504 c 128,-1,2
 556 502 556 502 560 500 c 2,3,-1
 584 482 l 2,4,5
 612 461 612 461 624 461 c 0,6,7
 632 461 632 461 643 475 c 0,8,9
 644 478 644 478 649 483 c 1,10,-1
 665 472 l 1,11,12
 663 470 663 470 652 455 c 128,-1,13
 641 440 641 440 621 413 c 0,14,15
 616 405 616 405 606.5 392 c 128,-1,16
 597 379 597 379 583 360 c 2,17,-1
 573 347 l 1,18,-1
 494 401 l 1,19,-1
 444 336 l 1,20,21
 533 223 533 223 533 115 c 0,22,23
 533 18 533 18 463 -49 c 0,24,25
 394 -118 394 -118 298 -118 c 0,26,27
 207 -118 207 -118 143 -70 c 0,28,29
 71 -18 71 -18 71 69 c 0,30,31
 71 124 71 124 108 202 c 0,32,33
 145 282 145 282 145 310 c 0,34,35
 145 352 145 352 105 352 c 0,36,37
 44 352 44 352 19 258 c 1,38,-1
 0 263 l 1,39,40
 36 383 36 383 123 383 c 0,41,42
 174 383 174 383 210 342 c 0,43,44
 243 301 243 301 243 250 c 0,45,46
 243 204 243 204 209 129 c 0,47,48
 179 61 179 61 179 26 c 0,49,50
 179 0 179 0 188 -21.5 c 128,-1,51
 197 -43 197 -43 213 -59.5 c 128,-1,52
 229 -76 229 -76 251 -85 c 128,-1,53
 273 -94 273 -94 299 -94 c 0,54,55
 355 -94 355 -94 391 -53 c 0,56,57
 428 -13 428 -13 428 48 c 0,58,59
 428 117 428 117 353 227 c 0,60,61
 339 247 339 247 325 268 c 128,-1,62
 311 289 311 289 297 309 c 0,63,64
 264 364 264 364 264 401 c 0,65,66
 264 432 264 432 286 492 c 0,67,68
 294 516 294 516 309.5 546 c 128,-1,69
 325 576 325 576 347 613 c 1,70,71
 249 703 249 703 184 703 c 0,72,73
 160 703 160 703 138.5 694 c 128,-1,74
 117 685 117 685 101 670 c 128,-1,75
 85 655 85 655 76 634 c 128,-1,76
 67 613 67 613 67 589 c 0,77,78
 67 475 67 475 190 474 c 1,79,-1
 191 457 l 1,80,-1
 177 457 l 2,81,82
 118 457 118 457 79 496 c 0,83,84
 41 537 41 537 41 595 c 0,85,86
 41 675 41 675 101 728 c 0,87,88
 159 778 159 778 240 778 c 0,89,90
 307 778 307 778 371 744 c 0,91,92
 413 722 413 722 478 662 c 0,93,94
 523 620 523 620 559 620 c 0,95,96
 584 620 584 620 601.5 636 c 128,-1,97
 619 652 619 652 619 675 c 0,98,99
 619 703 619 703 598 723 c 128,-1,100
 577 743 577 743 548 743 c 0,101,102
 541 743 541 743 522 740 c 1,103,-1
 518 761 l 1,104,105
 533 765 533 765 549 765 c 0,106,107
 589 765 589 765 616.5 736.5 c 128,-1,108
 644 708 644 708 644 666 c 0,109,110
 644 612 644 612 603 576 c 256,111,112
 562 540 562 540 509 540 c 0,113,114
 448 540 448 540 384 586 c 0,115,116
 380 588 380 588 377 590.5 c 128,-1,117
 374 593 374 593 370 595 c 1,118,119
 342 552 342 552 342 500 c 0,120,121
 342 459 342 459 372 416 c 0,122,123
 385 396 385 396 432 347 c 1,124,-1
 549 507 l 2,0,1
EndSplineSet
Validated: 1
EndChar

StartChar: G
Encoding: 71 71 37
Width: 846
GlyphClass: 1
Flags: W
LayerCount: 2
Fore
SplineSet
674 570 m 1,0,1
 821 481 821 481 821 320 c 0,2,3
 821 170 821 170 700 70 c 0,4,5
 586 -23 586 -23 433 -23 c 0,6,7
 252 -23 252 -23 140 95 c 0,8,9
 28 210 28 210 28 392 c 0,10,11
 28 537 28 537 100 641 c 0,12,13
 182 759 182 759 322 759 c 0,14,15
 387 759 387 759 443 724 c 1,16,17
 450 731 450 731 457 737.5 c 128,-1,18
 464 744 464 744 472 751 c 2,19,-1
 494 770 l 1,20,-1
 506 781 l 1,21,-1
 517 769 l 1,22,-1
 509 762 l 2,23,24
 495 751 495 751 463 719 c 2,25,-1
 457 712 l 1,26,27
 520 652 520 652 541 559 c 1,28,-1
 524 552 l 1,29,30
 492 659 492 659 443 698 c 1,31,32
 399 636 399 636 399 585 c 0,33,34
 399 514 399 514 482 446 c 2,35,-1
 499 432 l 1,36,-1
 594 514 l 2,37,38
 654 566 654 566 654 593 c 0,39,40
 654 631 654 631 592 675 c 1,41,42
 595 678 595 678 599 681.5 c 128,-1,43
 603 685 603 685 608 690 c 0,44,45
 673 748 673 748 695 779 c 1,46,47
 737 725 737 725 753 709 c 0,48,49
 770 694 770 694 799 683 c 1,50,-1
 674 570 l 1,0,1
511 420 m 1,51,52
 581 360 581 360 581 289 c 0,53,54
 581 220 581 220 533 177 c 0,55,56
 486 134 486 134 416 134 c 0,57,58
 350 134 350 134 304 175 c 0,59,60
 259 217 259 217 259 283 c 0,61,62
 259 313 259 313 274 340 c 1,63,-1
 289 332 l 1,64,65
 276 307 276 307 276 279 c 0,66,67
 276 229 276 229 310 195 c 0,68,69
 345 160 345 160 392 160 c 0,70,71
 424 160 424 160 444.5 181 c 128,-1,72
 465 202 465 202 465 233 c 256,73,74
 465 264 465 264 431 299 c 0,75,76
 426 304 426 304 411.5 316.5 c 128,-1,77
 397 329 397 329 374 349 c 0,78,79
 329 387 329 387 310 420 c 0,80,81
 292 453 292 453 292 496 c 0,82,83
 292 550 292 550 317 590 c 0,84,85
 336 621 336 621 412 697 c 2,86,-1
 426 711 l 1,87,88
 383 731 383 731 347 731 c 0,89,90
 259 731 259 731 210.5 645 c 128,-1,91
 162 559 162 559 162 400 c 0,92,93
 162 237 162 237 219 131 c 0,94,95
 292 -2 292 -2 442 -2 c 0,96,97
 560 -2 560 -2 634 75 c 0,98,99
 708 154 708 154 708 273 c 0,100,101
 708 351 708 351 673 407 c 256,102,103
 638 463 638 463 590 463 c 0,104,105
 560 463 560 463 511 420 c 1,51,52
EndSplineSet
Validated: 1
EndChar

StartChar: H
Encoding: 72 72 38
Width: 757
GlyphClass: 1
Flags: W
LayerCount: 2
Fore
SplineSet
347 401 m 1,0,1
 407 449 407 449 527 577 c 2,2,-1
 544 595 l 1,3,4
 558 564 558 564 578 547 c 2,5,-1
 622 509 l 2,6,7
 647 488 647 488 667.5 460 c 128,-1,8
 688 432 688 432 702 400.5 c 128,-1,9
 716 369 716 369 724 335 c 128,-1,10
 732 301 732 301 732 268 c 0,11,12
 732 190 732 190 690.5 122.5 c 128,-1,13
 649 55 649 55 574 16 c 2,14,-1
 484 -31 l 2,15,16
 450 -50 450 -50 402 -88 c 1,17,18
 350 -6 350 -6 298 -6 c 0,19,20
 268 -6 268 -6 247.5 -24.5 c 128,-1,21
 227 -43 227 -43 227 -70 c 0,22,23
 227 -99 227 -99 251 -118.5 c 128,-1,24
 275 -138 275 -138 309 -138 c 0,25,26
 346 -138 346 -138 393 -97 c 1,27,-1
 404 -112 l 1,28,29
 365 -158 365 -158 309 -158 c 0,30,31
 258 -158 258 -158 221 -125 c 0,32,33
 183 -93 183 -93 183 -44 c 0,34,35
 183 8 183 8 231 44 c 0,36,37
 274 77 274 77 330 77 c 0,38,39
 371 77 371 77 404.5 57 c 128,-1,40
 438 37 438 37 479 -10 c 1,41,42
 624 68 624 68 624 209 c 0,43,44
 624 284 624 284 577 357 c 0,45,46
 524 438 524 438 452 438 c 0,47,48
 421 438 421 438 399 423 c 0,49,50
 385 412 385 412 357 384 c 1,51,52
 385 344 385 344 385 281 c 0,53,54
 385 193 385 193 317 137 c 0,55,56
 255 85 255 85 163 85 c 0,57,58
 98 85 98 85 49 133 c 0,59,60
 0 182 0 182 0 246 c 0,61,62
 0 271 0 271 14 287.5 c 128,-1,63
 28 304 28 304 50 304 c 0,64,65
 70 304 70 304 84.5 287 c 128,-1,66
 99 270 99 270 102 243 c 2,67,-1
 107 193 l 2,68,69
 116 105 116 105 186 105 c 0,70,71
 223 105 223 105 246.5 131.5 c 128,-1,72
 270 158 270 158 270 201 c 0,73,74
 270 236 270 236 250 284 c 0,75,76
 250 285 250 285 211 360 c 0,77,78
 164 452 164 452 164 511 c 0,79,80
 164 576 164 576 208 628 c 0,81,82
 237 662 237 662 308 709 c 0,83,84
 325 721 325 721 337.5 730 c 128,-1,85
 350 739 350 739 358 744 c 2,86,-1
 390 769 l 2,87,88
 391 770 391 770 402 778 c 1,89,90
 447 690 447 690 513 690 c 0,91,92
 551 690 551 690 598 735 c 1,93,-1
 611 720 l 1,94,95
 515 609 515 609 438 609 c 0,96,97
 370 609 370 609 315 687 c 1,98,99
 287 673 287 673 269.5 647 c 128,-1,100
 252 621 252 621 252 595 c 0,101,102
 252 536 252 536 333 421 c 0,103,104
 335 419 335 419 337 416 c 0,105,106
 339 414 339 414 341 410 c 128,-1,107
 343 406 343 406 347 401 c 1,0,1
EndSplineSet
Validated: 1
EndChar

StartChar: I
Encoding: 73 73 39
Width: 727
GlyphClass: 1
Flags: W
LayerCount: 2
Fore
SplineSet
550 737 m 1,0,1
 582 757 582 757 611 757 c 0,2,3
 654 757 654 757 681 728 c 128,-1,4
 708 699 708 699 708 651 c 0,5,6
 708 590 708 590 664 552 c 0,7,8
 621 515 621 515 558 515 c 0,9,10
 483 515 483 515 392 580 c 0,11,12
 324 630 324 630 309 638 c 0,13,14
 257 669 257 669 214 669 c 0,15,16
 158 669 158 669 124 621 c 0,17,18
 94 579 94 579 94 521 c 0,19,20
 94 448 94 448 141 396 c 0,21,22
 187 345 187 345 261 345 c 0,23,24
 291 345 291 345 317 355 c 1,25,-1
 323 339 l 1,26,27
 297 324 297 324 258 324 c 0,28,29
 173 324 173 324 116 389 c 0,30,31
 62 450 62 450 62 537 c 0,32,33
 62 639 62 639 122 707 c 0,34,35
 184 775 184 775 284 775 c 0,36,37
 379 775 379 775 468 698 c 2,38,-1
 528 646 l 2,39,40
 580 602 580 602 611 602 c 0,41,42
 625 602 625 602 637.5 607.5 c 128,-1,43
 650 613 650 613 659.5 622.5 c 128,-1,44
 669 632 669 632 674.5 644 c 128,-1,45
 680 656 680 656 680 669 c 0,46,47
 680 696 680 696 659 715.5 c 128,-1,48
 638 735 638 735 609 735 c 0,49,50
 588 735 588 735 559 718 c 1,51,-1
 550 737 l 1,0,1
704 263 m 1,52,53
 705 273 705 273 705.5 281 c 128,-1,54
 706 289 706 289 706 295 c 0,55,56
 706 349 706 349 683 393 c 0,57,58
 654 447 654 447 606 447 c 0,59,60
 585 447 585 447 570 434 c 128,-1,61
 555 421 555 421 555 402 c 0,62,63
 555 366 555 366 603 300 c 0,64,65
 673 205 673 205 673 145 c 0,66,67
 673 64 673 64 596 13 c 0,68,69
 528 -31 528 -31 444 -31 c 0,70,71
 344 -31 344 -31 268 24 c 2,72,-1
 172 95 l 2,73,74
 103 146 103 146 69 146 c 0,75,76
 49 146 49 146 36 132 c 128,-1,77
 23 118 23 118 23 97 c 0,78,79
 23 83 23 83 34 83 c 0,80,81
 36 83 36 83 41 84 c 128,-1,82
 46 85 46 85 52 86.5 c 128,-1,83
 58 88 58 88 63.5 89.5 c 128,-1,84
 69 91 69 91 72 91 c 0,85,86
 124 91 124 91 124 40 c 0,87,88
 124 16 124 16 108.5 1 c 128,-1,89
 93 -14 93 -14 70 -14 c 0,90,91
 41 -14 41 -14 20.5 11 c 128,-1,92
 0 36 0 36 0 73 c 0,93,94
 0 133 0 133 49 170 c 0,95,96
 96 205 96 205 155 205 c 0,97,98
 202 205 202 205 237 186 c 0,99,100
 286 161 286 161 350 109 c 2,101,-1
 406 64 l 2,102,103
 483 2 483 2 522 2 c 0,104,105
 545 2 545 2 563.5 22 c 128,-1,106
 582 42 582 42 582 68 c 0,107,108
 582 114 582 114 505 212 c 0,109,110
 432 303 432 303 432 362 c 0,111,112
 432 416 432 416 470 448 c 128,-1,113
 508 480 508 480 571 480 c 0,114,115
 605 480 605 480 633 467.5 c 128,-1,116
 661 455 661 455 681.5 432 c 128,-1,117
 702 409 702 409 713 377.5 c 128,-1,118
 724 346 724 346 724 307 c 0,119,120
 724 297 724 297 721 261 c 1,121,-1
 704 263 l 1,52,53
EndSplineSet
Validated: 1
EndChar

StartChar: J
Encoding: 74 74 40
Width: 727
GlyphClass: 1
Flags: W
LayerCount: 2
Fore
SplineSet
549 741 m 1,0,1
 577 760 577 760 610 760 c 0,2,3
 652 760 652 760 679 730 c 128,-1,4
 706 700 706 700 706 654 c 0,5,6
 706 623 706 623 694.5 598 c 128,-1,7
 683 573 683 573 663.5 555 c 128,-1,8
 644 537 644 537 616.5 527.5 c 128,-1,9
 589 518 589 518 558 518 c 0,10,11
 504 518 504 518 455 545 c 0,12,13
 430 558 430 558 372 604 c 0,14,15
 346 624 346 624 324 638 c 128,-1,16
 302 652 302 652 285 660 c 0,17,18
 252 674 252 674 221 674 c 0,19,20
 163 674 163 674 128 633.5 c 128,-1,21
 93 593 93 593 93 524 c 0,22,23
 93 450 93 450 140 400 c 0,24,25
 188 351 188 351 262 351 c 0,26,27
 289 351 289 351 315 360 c 1,28,-1
 322 342 l 1,29,30
 297 329 297 329 260 329 c 0,31,32
 175 329 175 329 118 390 c 256,33,34
 61 451 61 451 61 538 c 0,35,36
 61 640 61 640 119 707 c 0,37,38
 181 778 181 778 281 778 c 0,39,40
 347 778 347 778 415 737 c 0,41,42
 435 724 435 724 463.5 702.5 c 128,-1,43
 492 681 492 681 527 649 c 0,44,45
 577 605 577 605 610 605 c 0,46,47
 623 605 623 605 635.5 610.5 c 128,-1,48
 648 616 648 616 657.5 625.5 c 128,-1,49
 667 635 667 635 672.5 647 c 128,-1,50
 678 659 678 659 678 672 c 0,51,52
 678 698 678 698 657.5 718 c 128,-1,53
 637 738 637 738 609 738 c 0,54,55
 590 738 590 738 558 721 c 1,56,-1
 549 741 l 1,0,1
702 264 m 1,57,58
 705 286 705 286 705 300 c 0,59,60
 705 333 705 333 697 361.5 c 128,-1,61
 689 390 689 390 674.5 410 c 128,-1,62
 660 430 660 430 640.5 441.5 c 128,-1,63
 621 453 621 453 597 453 c 0,64,65
 585 453 585 453 572.5 447.5 c 128,-1,66
 560 442 560 442 550.5 432.5 c 128,-1,67
 541 423 541 423 535 411 c 128,-1,68
 529 399 529 399 529 387 c 0,69,70
 529 355 529 355 555 315 c 0,71,72
 559 310 559 310 571 294.5 c 128,-1,73
 583 279 583 279 604 253 c 0,74,75
 676 164 676 164 676 95 c 0,76,77
 676 -1 676 -1 592 -68 c 0,78,79
 515 -129 515 -129 414 -129 c 0,80,81
 264 -129 264 -129 212 0 c 2,82,-1
 179 81 l 2,83,84
 149 154 149 154 85 154 c 0,85,86
 59 154 59 154 40.5 139.5 c 128,-1,87
 22 125 22 125 22 105 c 0,88,89
 22 87 22 87 33 87 c 0,90,91
 36 87 36 87 47 90 c 0,92,93
 65 95 65 95 71 95 c 0,94,95
 93 95 93 95 108 80.5 c 128,-1,96
 123 66 123 66 123 44 c 0,97,98
 123 21 123 21 107 5.5 c 128,-1,99
 91 -10 91 -10 68 -10 c 0,100,101
 39 -10 39 -10 19.5 15 c 128,-1,102
 0 40 0 40 0 79 c 0,103,104
 0 135 0 135 45 173 c 0,105,106
 88 208 88 208 145 208 c 0,107,108
 270 208 270 208 329 62 c 0,109,110
 370 -38 370 -38 394 -62 c 0,111,112
 427 -95 427 -95 470 -95 c 256,113,114
 513 -95 513 -95 544 -67 c 0,115,116
 576 -38 576 -38 576 1 c 0,117,118
 576 66 576 66 497 166 c 0,119,120
 456 217 456 217 440 246 c 0,121,122
 414 295 414 295 414 339 c 0,123,124
 414 403 414 403 461 445 c 0,125,126
 507 484 507 484 572 484 c 0,127,128
 605 484 605 484 633 471 c 128,-1,129
 661 458 661 458 681 435 c 128,-1,130
 701 412 701 412 712 379 c 128,-1,131
 723 346 723 346 723 307 c 0,132,133
 723 303 723 303 722.5 292.5 c 128,-1,134
 722 282 722 282 721 264 c 1,135,-1
 702 264 l 1,57,58
EndSplineSet
Validated: 1
EndChar

StartChar: K
Encoding: 75 75 41
Width: 686
GlyphClass: 1
Flags: W
LayerCount: 2
Fore
SplineSet
490 472 m 1,0,-1
 559 184 l 2,1,2
 575 116 575 116 634 85 c 1,3,-1
 693 143 l 1,4,-1
 706 129 l 1,5,6
 703 125 703 125 691 113 c 2,7,-1
 620 43 l 2,8,9
 606 29 606 29 591 13 c 128,-1,10
 576 -3 576 -3 559 -23 c 1,11,-1
 490 31 l 2,12,13
 472 46 472 46 457 108 c 2,14,-1
 387 405 l 1,15,-1
 313 355 l 1,16,17
 352 257 352 257 352 184 c 0,18,19
 352 101 352 101 309 43 c 0,20,21
 262 -20 262 -20 182 -20 c 0,22,23
 118 -20 118 -20 79 20 c 2,24,-1
 54 46 l 2,25,26
 28 71 28 71 -21 79 c 1,27,28
 -8 95 -8 95 1.5 109 c 128,-1,29
 11 123 11 123 16 137.5 c 128,-1,30
 21 152 21 152 23.5 167.5 c 128,-1,31
 26 183 26 183 26 204 c 1,32,33
 80 147 80 147 140 143 c 1,34,35
 104 99 104 99 104 62 c 0,36,37
 104 36 104 36 125.5 18 c 128,-1,38
 147 0 147 0 177 0 c 0,39,40
 213 0 213 0 234 28.5 c 128,-1,41
 255 57 255 57 255 106 c 0,42,43
 255 144 255 144 240 192 c 0,44,45
 236 203 236 203 221 235 c 128,-1,46
 206 267 206 267 179 320 c 0,47,48
 118 438 118 438 118 524 c 0,49,50
 118 632 118 632 194 702 c 0,51,52
 271 773 271 773 379 773 c 0,53,54
 583 773 583 773 648 540 c 1,55,-1
 628 536 l 1,56,57
 616 582 616 582 593 620 c 128,-1,58
 570 658 570 658 540 685 c 128,-1,59
 510 712 510 712 474 726.5 c 128,-1,60
 438 741 438 741 399 741 c 0,61,62
 326 741 326 741 277 704 c 0,63,64
 221 662 221 662 221 593 c 0,65,66
 221 563 221 563 236 530 c 1,67,68
 270 650 270 650 389 650 c 0,69,70
 443 650 443 650 505 593 c 0,71,72
 546 555 546 555 573 555 c 0,73,74
 585 555 585 555 587 556 c 2,75,-1
 594 543 l 1,76,-1
 490 472 l 1,0,-1
475 484 m 1,77,78
 440 485 440 485 412 507 c 0,79,80
 397 519 397 519 363 556 c 0,81,82
 335 587 335 587 311 587 c 0,83,84
 286 587 286 587 270.5 567 c 128,-1,85
 255 547 255 547 255 516 c 0,86,87
 255 464 255 464 306 373 c 1,88,-1
 475 484 l 1,77,78
EndSplineSet
Validated: 1
EndChar

StartChar: L
Encoding: 76 76 42
Width: 544
GlyphClass: 1
Flags: W
LayerCount: 2
Fore
SplineSet
5 111 m 1,0,-1
 102 202 l 2,1,2
 169 265 169 265 169 304 c 0,3,4
 169 333 169 333 151 369 c 0,5,6
 149 371 149 371 116 428 c 0,7,8
 70 505 70 505 70 573 c 0,9,10
 70 662 70 662 135 722 c 0,11,12
 199 779 199 779 289 779 c 0,13,14
 377 779 377 779 441 721 c 0,15,16
 506 662 506 662 506 584 c 0,17,18
 506 530 506 530 478 484 c 0,19,20
 469 471 469 471 455.5 451 c 128,-1,21
 442 431 442 431 425 405 c 0,22,23
 397 364 397 364 397 331 c 0,24,25
 397 282 397 282 444 282 c 0,26,27
 510 282 510 282 525 380 c 1,28,-1
 543 372 l 1,29,30
 521 248 521 248 423 248 c 0,31,32
 372 248 372 248 338 285 c 0,33,34
 305 322 305 322 305 374 c 0,35,36
 305 427 305 427 362 528 c 0,37,38
 402 598 402 598 402 643 c 0,39,40
 402 667 402 667 393.5 687 c 128,-1,41
 385 707 385 707 370.5 721.5 c 128,-1,42
 356 736 356 736 335.5 744.5 c 128,-1,43
 315 753 315 753 291 753 c 256,44,45
 267 753 267 753 246 744 c 128,-1,46
 225 735 225 735 209.5 718.5 c 128,-1,47
 194 702 194 702 185.5 680 c 128,-1,48
 177 658 177 658 177 633 c 0,49,50
 177 588 177 588 221 506 c 0,51,52
 268 420 268 420 268 370 c 0,53,54
 268 313 268 313 214 271 c 2,55,-1
 149 220 l 2,56,57
 146 217 146 217 142 213.5 c 128,-1,58
 138 210 138 210 133 205 c 1,59,60
 176 199 176 199 208 181 c 0,61,62
 235 167 235 167 272 134 c 2,63,-1
 325 88 l 2,64,65
 366 53 366 53 405 53 c 0,66,67
 448 53 448 53 476 83 c 128,-1,68
 504 113 504 113 511 165 c 1,69,-1
 529 165 l 1,70,71
 523 85 523 85 470 30 c 0,72,73
 417 -23 417 -23 337 -23 c 0,74,75
 286 -23 286 -23 240.5 0.5 c 128,-1,76
 195 24 195 24 138 83 c 0,77,78
 97 125 97 125 71 125 c 0,79,80
 51 125 51 125 19 96 c 1,81,-1
 5 111 l 1,0,-1
EndSplineSet
Validated: 1
EndChar

StartChar: M
Encoding: 77 77 43
Width: 967
GlyphClass: 1
Flags: W
LayerCount: 2
Fore
SplineSet
987 140 m 1,0,1
 984 137 984 137 979 133 c 128,-1,2
 974 129 974 129 973 128 c 2,3,-1
 891 62 l 2,4,5
 856 35 856 35 797 -23 c 1,6,7
 789 -4 789 -4 781 14 c 128,-1,8
 773 32 773 32 763 49 c 0,9,10
 698 165 698 165 698 248 c 0,11,12
 698 338 698 338 749 406 c 0,13,14
 788 458 788 458 877 518 c 1,15,16
 830 522 830 522 811 549 c 0,17,18
 800 566 800 566 789 622 c 0,19,20
 770 731 770 731 721 731 c 0,21,22
 681 731 681 731 654 671 c 1,23,24
 675 597 675 597 675 494 c 0,25,26
 675 308 675 308 567 151 c 0,27,28
 535 105 535 105 500.5 62 c 128,-1,29
 466 19 466 19 428 -23 c 1,30,-1
 318 46 l 1,31,-1
 260 -18 l 1,32,-1
 244 -6 l 1,33,34
 251 2 251 2 268.5 22.5 c 128,-1,35
 286 43 286 43 315 77 c 0,36,37
 325 89 325 89 340.5 106.5 c 128,-1,38
 356 124 356 124 376 147 c 2,39,-1
 388 160 l 1,40,-1
 493 87 l 1,41,42
 549 170 549 170 549 377 c 0,43,44
 549 577 549 577 526 668 c 128,-1,45
 503 759 503 759 452 759 c 0,46,47
 424 759 424 759 401.5 734 c 128,-1,48
 379 709 379 709 373 671 c 1,49,50
 422 589 422 589 422 476 c 0,51,52
 422 298 422 298 256 111 c 2,53,-1
 159 1 l 2,54,55
 157 -1 157 -1 153 -5.5 c 128,-1,56
 149 -10 149 -10 142 -18 c 1,57,-1
 26 57 l 1,58,-1
 -33 -7 l 1,59,-1
 -49 4 l 1,60,-1
 -37 19 l 1,61,-1
 23 88 l 2,62,63
 37 105 37 105 51 121 c 128,-1,64
 65 137 65 137 79 154 c 2,65,-1
 92 170 l 1,66,-1
 203 91 l 1,67,68
 248 136 248 136 268 200 c 0,69,70
 294 287 294 287 294 400 c 0,71,72
 294 515 294 515 266 603 c 0,73,74
 226 736 226 736 137 736 c 0,75,76
 103 736 103 736 80 714.5 c 128,-1,77
 57 693 57 693 57 661 c 256,78,79
 57 629 57 629 93 593 c 0,80,81
 95 591 95 591 110.5 578.5 c 128,-1,82
 126 566 126 566 155 542 c 0,83,84
 236 476 236 476 236 404 c 0,85,86
 236 348 236 348 197 311 c 0,87,88
 157 273 157 273 103 273 c 0,89,90
 13 273 13 273 -17 373 c 1,91,-1
 0 380 l 1,92,93
 30 300 30 300 94 300 c 0,94,95
 120 300 120 300 137.5 315 c 128,-1,96
 155 330 155 330 155 352 c 0,97,98
 155 385 155 385 119 414 c 2,99,-1
 70 453 l 2,100,101
 5 506 5 506 5 596 c 0,102,103
 5 674 5 674 56 722 c 256,104,105
 107 770 107 770 186 770 c 0,106,107
 212 770 212 770 234 766 c 128,-1,108
 256 762 256 762 276 753 c 128,-1,109
 296 744 296 744 316 728.5 c 128,-1,110
 336 713 336 713 359 691 c 1,111,112
 387 797 387 797 495 797 c 0,113,114
 588 797 588 797 645 696 c 1,115,116
 691 769 691 769 770 769 c 0,117,118
 891 769 891 769 916 618 c 0,119,120
 923 576 923 576 932.5 562.5 c 128,-1,121
 942 549 942 549 963 549 c 0,122,123
 974 549 974 549 976 550 c 1,124,-1
 976 530 l 1,125,126
 913 524 913 524 881 500 c 0,127,128
 850 478 850 478 830 418 c 0,129,130
 814 371 814 371 814 315 c 0,131,132
 814 251 814 251 838 199 c 0,133,134
 856 158 856 158 902 99 c 1,135,-1
 976 156 l 1,136,-1
 987 140 l 1,0,1
EndSplineSet
Validated: 1
EndChar

StartChar: N
Encoding: 78 78 44
Width: 798
GlyphClass: 1
Flags: W
LayerCount: 2
Fore
SplineSet
814 190 m 1,0,-1
 829 176 l 1,1,2
 775 122 775 122 732 72.5 c 128,-1,3
 689 23 689 23 655 -23 c 1,4,5
 640 5 640 5 613 43 c 2,6,-1
 578 91 l 2,7,8
 520 170 520 170 520 272 c 0,9,10
 520 357 520 357 571 437 c 0,11,12
 623 516 623 516 696 544 c 1,13,14
 606 550 606 550 591 633 c 2,15,-1
 581 687 l 2,16,17
 576 712 576 712 557.5 729 c 128,-1,18
 539 746 539 746 516 746 c 0,19,20
 454 746 454 746 426 655 c 1,21,22
 468 587 468 587 468 481 c 0,23,24
 468 283 468 283 340 102 c 2,25,-1
 298 43 l 2,26,27
 290 32 290 32 279 15.5 c 128,-1,28
 268 -1 268 -1 254 -23 c 1,29,30
 175 77 175 77 101 77 c 0,31,32
 66 77 66 77 46 60 c 0,33,34
 28 45 28 45 0 -7 c 1,35,-1
 -16 1 l 1,36,-1
 -10 14 l 2,37,38
 66 180 66 180 168 180 c 0,39,40
 235 180 235 180 312 109 c 1,41,42
 354 179 354 179 354 314 c 0,43,44
 354 555 354 555 273 678 c 0,45,46
 264 693 264 693 250 705 c 128,-1,47
 236 717 236 717 219.5 726 c 128,-1,48
 203 735 203 735 185.5 740 c 128,-1,49
 168 745 168 745 152 745 c 0,50,51
 121 745 121 745 99 724 c 128,-1,52
 77 703 77 703 77 674 c 0,53,54
 77 660 77 660 81.5 647.5 c 128,-1,55
 86 635 86 635 97 622 c 128,-1,56
 108 609 108 609 125.5 594.5 c 128,-1,57
 143 580 143 580 170 562 c 0,58,59
 265 497 265 497 265 413 c 0,60,61
 265 354 265 354 223 311 c 0,62,63
 182 269 182 269 123 269 c 0,64,65
 32 269 32 269 -5 356 c 1,66,-1
 10 368 l 1,67,68
 47 296 47 296 108 296 c 0,69,70
 136 296 136 296 156 312.5 c 128,-1,71
 176 329 176 329 176 352 c 0,72,73
 176 381 176 381 144 411 c 0,74,75
 132 423 132 423 89 453 c 0,76,77
 8 511 8 511 8 592 c 256,78,79
 8 673 8 673 67 729 c 0,80,81
 128 785 128 785 208 785 c 0,82,83
 327 785 327 785 410 677 c 1,84,85
 463 787 463 787 567 787 c 0,86,87
 705 787 705 787 736 630 c 0,88,89
 746 576 746 576 776 576 c 0,90,91
 777 576 777 576 782 576.5 c 128,-1,92
 787 577 787 577 796 578 c 1,93,-1
 801 554 l 1,94,95
 625 539 625 539 625 369 c 0,96,97
 625 234 625 234 747 121 c 1,98,-1
 814 190 l 1,0,-1
EndSplineSet
Validated: 1
EndChar

StartChar: O
Encoding: 79 79 45
Width: 818
GlyphClass: 1
Flags: W
LayerCount: 2
Fore
SplineSet
58 438 m 1,0,1
 42 406 42 406 42 374 c 0,2,3
 42 330 42 330 72 297 c 0,4,5
 103 264 103 264 147 264 c 0,6,7
 177 264 177 264 196.5 282.5 c 128,-1,8
 216 301 216 301 216 329 c 0,9,10
 216 372 216 372 158 436 c 0,11,12
 90 513 90 513 90 562 c 0,13,14
 90 639 90 639 170 704 c 0,15,16
 246 767 246 767 325 767 c 2,17,-1
 340 767 l 1,18,19
 338 759 338 759 337.5 754 c 128,-1,20
 337 749 337 749 336 746 c 0,21,22
 336 701 336 701 441 697 c 0,23,24
 488 695 488 695 517 693.5 c 128,-1,25
 546 692 546 692 558 690 c 0,26,27
 619 681 619 681 664 648 c 0,28,29
 791 555 791 555 791 344 c 0,30,31
 791 196 791 196 700 89 c 0,32,33
 606 -23 606 -23 460 -23 c 0,34,35
 384 -23 384 -23 306 16 c 0,36,37
 287 25 287 25 191 92 c 0,38,39
 126 136 126 136 89 136 c 0,40,41
 68 136 68 136 52 125.5 c 128,-1,42
 36 115 36 115 36 102 c 0,43,44
 36 86 36 86 48 86 c 0,45,46
 50 87 50 87 52.5 87 c 128,-1,47
 55 87 55 87 60 88 c 0,48,49
 76 94 76 94 85 94 c 0,50,51
 106 94 106 94 120.5 79 c 128,-1,52
 135 64 135 64 135 42 c 0,53,54
 135 19 135 19 119.5 4 c 128,-1,55
 104 -11 104 -11 82 -11 c 0,56,57
 50 -11 50 -11 27.5 14 c 128,-1,58
 5 39 5 39 5 77 c 0,59,60
 5 132 5 132 46.5 163 c 128,-1,61
 88 194 88 194 161 194 c 0,62,63
 247 194 247 194 372 129 c 0,64,65
 500 62 500 62 564 62 c 0,66,67
 661 62 661 62 720 152 c 0,68,69
 770 231 770 231 770 333 c 0,70,71
 770 439 770 439 698 507 c 0,72,73
 644 558 644 558 529 565 c 2,74,-1
 432 572 l 2,75,76
 352 578 352 578 319 602.5 c 128,-1,77
 286 627 286 627 286 682 c 0,78,79
 286 708 286 708 303 740 c 1,80,81
 257 734 257 734 229 708 c 128,-1,82
 201 682 201 682 201 645 c 0,83,84
 201 611 201 611 224 576 c 0,85,86
 228 570 228 570 239 555 c 128,-1,87
 250 540 250 540 270 517 c 0,88,89
 338 434 338 434 338 373 c 0,90,91
 338 309 338 309 284 269 c 0,92,93
 235 232 235 232 170 232 c 0,94,95
 137 232 137 232 108.5 242 c 128,-1,96
 80 252 80 252 59 271 c 128,-1,97
 38 290 38 290 26.5 316.5 c 128,-1,98
 15 343 15 343 15 376 c 0,99,100
 15 415 15 415 35 450 c 1,101,-1
 58 438 l 1,0,1
EndSplineSet
Validated: 1
EndChar

StartChar: P
Encoding: 80 80 46
Width: 792
GlyphClass: 1
Flags: W
LayerCount: 2
Fore
SplineSet
644 781 m 1,0,1
 646 753 646 753 654.5 723 c 128,-1,2
 663 693 663 693 679 659 c 0,3,4
 766 468 766 468 766 368 c 0,5,6
 766 232 766 232 642 96 c 2,7,-1
 593 42 l 2,8,9
 586 34 586 34 572 16.5 c 128,-1,10
 558 -1 558 -1 537 -27 c 1,11,12
 481 36 481 36 448 55 c 1,13,14
 448 53 448 53 448 48.5 c 128,-1,15
 448 44 448 44 447 37 c 0,16,17
 445 8 445 8 443 -10.5 c 128,-1,18
 441 -29 441 -29 439 -37 c 0,19,20
 428 -77 428 -77 402 -101 c 0,21,22
 346 -155 346 -155 274 -155 c 0,23,24
 234 -155 234 -155 200 -133 c 0,25,26
 159 -107 159 -107 159 -71 c 0,27,28
 159 -46 159 -46 175.5 -28.5 c 128,-1,29
 192 -11 192 -11 215 -11 c 0,30,31
 237 -11 237 -11 253.5 -26.5 c 128,-1,32
 270 -42 270 -42 270 -62 c 0,33,34
 270 -78 270 -78 258 -94 c 0,35,36
 252 -102 252 -102 252 -108 c 0,37,38
 252 -116 252 -116 261 -123 c 128,-1,39
 270 -130 270 -130 280 -130 c 0,40,41
 331 -130 331 -130 331 22 c 2,42,-1
 331 93 l 1,43,44
 317 96 317 96 312 96 c 0,45,46
 264 96 264 96 232 31 c 1,47,-1
 213 38 l 1,48,49
 240 164 240 164 331 189 c 1,50,-1
 331 532 l 2,51,52
 331 629 331 629 294 681.5 c 128,-1,53
 257 734 257 734 190 734 c 0,54,55
 170 734 170 734 152.5 727 c 128,-1,56
 135 720 135 720 121.5 707 c 128,-1,57
 108 694 108 694 100 677 c 128,-1,58
 92 660 92 660 92 641 c 0,59,60
 92 608 92 608 118 573 c 0,61,62
 125 561 125 561 168 517 c 0,63,64
 250 431 250 431 250 355 c 0,65,66
 250 292 250 292 207 248 c 0,67,68
 163 204 163 204 102 204 c 0,69,70
 73 204 73 204 49 214.5 c 128,-1,71
 25 225 25 225 7.5 243.5 c 128,-1,72
 -10 262 -10 262 -19.5 287 c 128,-1,73
 -29 312 -29 312 -29 341 c 0,74,75
 -29 358 -29 358 -18 399 c 1,76,-1
 2 392 l 1,77,78
 -5 360 -5 360 -5 341 c 0,79,80
 -5 318 -5 318 3 298 c 128,-1,81
 11 278 11 278 24.5 263 c 128,-1,82
 38 248 38 248 57 239 c 128,-1,83
 76 230 76 230 97 230 c 0,84,85
 125 230 125 230 144 248.5 c 128,-1,86
 163 267 163 267 163 293 c 0,87,88
 163 326 163 326 125 370 c 2,89,-1
 82 419 l 2,90,91
 18 492 18 492 18 567 c 0,92,93
 18 652 18 652 79 707 c 0,94,95
 140 764 140 764 224 764 c 0,96,97
 389 764 389 764 442 602 c 1,98,-1
 644 781 l 1,0,1
448 178 m 1,99,100
 497 161 497 161 595 79 c 1,101,102
 675 165 675 165 675 280 c 0,103,104
 675 365 675 365 600 517 c 0,105,106
 559 600 559 600 540 659 c 1,107,-1
 448 578 l 1,108,-1
 448 178 l 1,99,100
EndSplineSet
Validated: 1
EndChar

StartChar: Q
Encoding: 81 81 47
Width: 833
GlyphClass: 1
Flags: W
LayerCount: 2
Fore
SplineSet
51 437 m 1,0,1
 35 401 35 401 35 376 c 0,2,3
 35 353 35 353 43.5 332.5 c 128,-1,4
 52 312 52 312 66.5 296 c 128,-1,5
 81 280 81 280 100.5 271 c 128,-1,6
 120 262 120 262 143 262 c 0,7,8
 173 262 173 262 192 281 c 128,-1,9
 211 300 211 300 211 329 c 0,10,11
 211 370 211 370 153 432 c 0,12,13
 135 452 135 452 123 466.5 c 128,-1,14
 111 481 111 481 104 491 c 0,15,16
 82 525 82 525 82 563 c 0,17,18
 82 640 82 640 163 705 c 0,19,20
 239 766 239 766 318 766 c 2,21,-1
 331 766 l 1,22,23
 330 761 330 761 329.5 756.5 c 128,-1,24
 329 752 329 752 328 747 c 0,25,26
 325 699 325 699 430 697 c 0,27,28
 518 695 518 695 562 688 c 0,29,30
 673 669 673 669 734 561 c 0,31,32
 785 469 785 469 785 347 c 0,33,34
 785 220 785 220 726 131 c 1,35,-1
 731 121 l 2,36,37
 751 81 751 81 763.5 67.5 c 128,-1,38
 776 54 776 54 795 54 c 0,39,40
 827 54 827 54 864 109 c 1,41,42
 855 59 855 59 818 19 c 0,43,44
 777 -22 777 -22 728 -22 c 0,45,46
 671 -22 671 -22 640 39 c 1,47,48
 540 -23 540 -23 452 -23 c 0,49,50
 394 -23 394 -23 333 1 c 0,51,52
 290 18 290 18 184 91 c 0,53,54
 119 135 119 135 85 135 c 0,55,56
 63 135 63 135 46.5 124 c 128,-1,57
 30 113 30 113 30 99 c 0,58,59
 30 84 30 84 42 84 c 0,60,61
 48 84 48 84 62 90 c 0,62,63
 71 93 71 93 80 93 c 0,64,65
 101 93 101 93 116 77 c 128,-1,66
 131 61 131 61 131 39 c 256,67,68
 131 17 131 17 115 2.5 c 128,-1,69
 99 -12 99 -12 76 -12 c 0,70,71
 43 -12 43 -12 21.5 12.5 c 128,-1,72
 0 37 0 37 0 76 c 0,73,74
 0 130 0 130 42 161.5 c 128,-1,75
 84 193 84 193 157 193 c 0,76,77
 232 193 232 193 304 159 c 0,78,79
 309 157 309 157 341 141.5 c 128,-1,80
 373 126 373 126 434 97 c 0,81,82
 503 63 503 63 561 63 c 0,83,84
 593 63 593 63 625 76 c 1,85,-1
 619 92 l 2,86,87
 591 168 591 168 539 168 c 0,88,89
 534 168 534 168 526 167 c 128,-1,90
 518 166 518 166 507 164 c 1,91,92
 555 214 555 214 617 214 c 0,93,94
 677 214 677 214 715 154 c 1,95,96
 764 227 764 227 764 333 c 0,97,98
 764 390 764 390 742 440 c 128,-1,99
 720 490 720 490 683 517 c 0,100,101
 639 549 639 549 569 561 c 0,102,103
 550 564 550 564 519.5 566.5 c 128,-1,104
 489 569 489 569 445 571 c 0,105,106
 371 574 371 574 333 592 c 0,107,108
 277 618 277 618 277 681 c 0,109,110
 277 701 277 701 289 727 c 0,111,112
 290 729 290 729 291 731.5 c 128,-1,113
 292 734 292 734 294 738 c 1,114,115
 249 734 249 734 221.5 708 c 128,-1,116
 194 682 194 682 194 646 c 0,117,118
 194 615 194 615 214 581 c 0,119,120
 223 566 223 566 257 525 c 0,121,122
 332 435 332 435 332 373 c 0,123,124
 332 308 332 308 279 267 c 0,125,126
 231 231 231 231 163 231 c 0,127,128
 99 231 99 231 54 270 c 0,129,130
 9 310 9 310 9 373 c 0,131,132
 9 416 9 416 29 448 c 1,133,-1
 51 437 l 1,0,1
EndSplineSet
Validated: 33
EndChar

StartChar: R
Encoding: 82 82 48
Width: 775
GlyphClass: 1
Flags: W
LayerCount: 2
Fore
SplineSet
779 555 m 1,0,-1
 640 500 l 1,1,-1
 659 188 l 2,2,3
 661 151 661 151 672.5 130 c 128,-1,4
 684 109 684 109 714 85 c 1,5,-1
 780 147 l 1,6,-1
 793 132 l 1,7,8
 787 125 787 125 780 119 c 2,9,-1
 709 56 l 2,10,11
 689 38 689 38 668.5 18.5 c 128,-1,12
 648 -1 648 -1 628 -21 c 1,13,14
 623 -12 623 -12 615 -2 c 128,-1,15
 607 8 607 8 596 19 c 0,16,17
 546 74 546 74 545 100 c 2,18,-1
 528 456 l 1,19,-1
 458 429 l 1,20,21
 451 236 451 236 396 130 c 0,22,23
 317 -24 317 -24 200 -24 c 0,24,25
 179 -24 179 -24 162 -20 c 128,-1,26
 145 -16 145 -16 128.5 -6 c 128,-1,27
 112 4 112 4 95.5 19.5 c 128,-1,28
 79 35 79 35 61 59 c 0,29,30
 44 81 44 81 25.5 97 c 128,-1,31
 7 113 7 113 -13 124 c 1,32,33
 24 164 24 164 56 225 c 1,34,35
 103 176 103 176 154 153 c 1,36,37
 104 117 104 117 104 77 c 0,38,39
 104 43 104 43 131 20 c 128,-1,40
 158 -3 158 -3 195 -3 c 0,41,42
 332 -3 332 -3 332 366 c 0,43,44
 332 539 332 539 312 622 c 0,45,46
 281 746 281 746 200 746 c 0,47,48
 169 746 169 746 148.5 725 c 128,-1,49
 128 704 128 704 128 672 c 0,50,51
 128 660 128 660 131.5 648.5 c 128,-1,52
 135 637 135 637 143.5 624.5 c 128,-1,53
 152 612 152 612 166.5 597 c 128,-1,54
 181 582 181 582 204 562 c 0,55,56
 246 524 246 524 262 494 c 128,-1,57
 278 464 278 464 278 425 c 0,58,59
 278 395 278 395 268 369.5 c 128,-1,60
 258 344 258 344 240 325 c 128,-1,61
 222 306 222 306 197 295.5 c 128,-1,62
 172 285 172 285 142 285 c 0,63,64
 34 285 34 285 14 404 c 1,65,-1
 31 407 l 1,66,67
 47 307 47 307 136 307 c 0,68,69
 163 307 163 307 180.5 323 c 128,-1,70
 198 339 198 339 198 364 c 0,71,72
 198 397 198 397 157 436 c 0,73,74
 104 485 104 485 88 508 c 0,75,76
 57 551 57 551 57 601 c 0,77,78
 57 673 57 673 108 723 c 0,79,80
 160 772 160 772 233 772 c 0,81,82
 326 772 326 772 406 670 c 1,83,84
 453 768 453 768 559 768 c 0,85,86
 619 768 619 768 655.5 734.5 c 128,-1,87
 692 701 692 701 714 623 c 0,88,89
 731 567 731 567 745 567 c 0,90,91
 751 567 751 567 762 570 c 0,92,93
 765 572 765 572 772 573 c 1,94,-1
 779 555 l 1,0,-1
671 532 m 1,95,96
 647 536 647 536 630 543 c 128,-1,97
 613 550 613 550 602.5 560.5 c 128,-1,98
 592 571 592 571 585.5 586.5 c 128,-1,99
 579 602 579 602 576 625 c 0,100,101
 567 686 567 686 552.5 708 c 128,-1,102
 538 730 538 730 508 730 c 0,103,104
 453 730 453 730 418 650 c 1,105,106
 455 583 455 583 458 449 c 1,107,-1
 671 532 l 1,95,96
EndSplineSet
Validated: 1
EndChar

StartChar: S
Encoding: 83 83 49
Width: 853
GlyphClass: 1
Flags: W
LayerCount: 2
Fore
SplineSet
439 492 m 1,0,1
 387 532 387 532 341 532 c 0,2,3
 293 532 293 532 256 498 c 0,4,5
 220 463 220 463 220 417 c 0,6,7
 220 380 220 380 242.5 356 c 128,-1,8
 265 332 265 332 299 332 c 0,9,10
 344 332 344 332 391 374 c 2,11,-1
 450 427 l 2,12,13
 533 501 533 501 627 501 c 0,14,15
 712 501 712 501 771 439 c 0,16,17
 829 378 829 378 829 284 c 0,18,19
 829 143 829 143 708 55 c 0,20,21
 598 -23 598 -23 453 -23 c 0,22,23
 264 -23 264 -23 144 94 c 0,24,25
 25 211 25 211 25 400 c 0,26,27
 25 550 25 550 112 661 c 0,28,29
 207 780 207 780 353 780 c 0,30,31
 428 780 428 780 509 738 c 0,32,33
 531 727 531 727 617 669 c 0,34,35
 684 624 684 624 729 624 c 0,36,37
 752 624 752 624 770 637 c 128,-1,38
 788 650 788 650 788 667 c 0,39,40
 788 681 788 681 779 681 c 0,41,42
 774 681 774 681 758 671 c 0,43,44
 744 663 744 663 732 663 c 0,45,46
 710 663 710 663 696 678.5 c 128,-1,47
 682 694 682 694 682 717 c 0,48,49
 682 741 682 741 698 757.5 c 128,-1,50
 714 774 714 774 739 774 c 0,51,52
 768 774 768 774 787.5 747 c 128,-1,53
 807 720 807 720 807 681 c 0,54,55
 807 619 807 619 760 581 c 0,56,57
 713 545 713 545 650 545 c 0,58,59
 602 545 602 545 556 562 c 0,60,61
 541 567 541 567 519.5 578 c 128,-1,62
 498 589 498 589 470 605 c 0,63,64
 344 677 344 677 275 677 c 0,65,66
 168 677 168 677 107 596 c 0,67,68
 51 522 51 522 51 412 c 0,69,70
 51 339 51 339 81 277 c 128,-1,71
 111 215 111 215 162 181 c 0,72,73
 261 115 261 115 450 115 c 0,74,75
 578 115 578 115 671 154 c 0,76,77
 800 206 800 206 800 317 c 0,78,79
 800 339 800 339 792.5 358.5 c 128,-1,80
 785 378 785 378 772 392.5 c 128,-1,81
 759 407 759 407 742 415.5 c 128,-1,82
 725 424 725 424 706 424 c 0,83,84
 642 424 642 424 542 331 c 0,85,86
 484 277 484 277 439 254 c 0,87,88
 396 232 396 232 346 232 c 0,89,90
 275 232 275 232 229 277 c 0,91,92
 183 323 183 323 183 393 c 0,93,94
 183 458 183 458 230 505 c 0,95,96
 276 553 276 553 342 553 c 0,97,98
 394 553 394 553 453 506 c 1,99,-1
 439 492 l 1,0,1
EndSplineSet
Validated: 1
EndChar

StartChar: T
Encoding: 84 84 50
Width: 704
GlyphClass: 1
Flags: W
LayerCount: 2
Fore
SplineSet
697 252 m 1,0,1
 689 136 689 136 628 60 c 0,2,3
 560 -23 560 -23 448 -23 c 0,4,5
 341 -23 341 -23 253 47 c 2,6,-1
 188 99 l 2,7,8
 130 145 130 145 81 145 c 0,9,10
 26 145 26 145 26 94 c 0,11,12
 26 73 26 73 44 73 c 0,13,14
 50 73 50 73 57 78 c 2,15,-1
 72 90 l 2,16,17
 79 96 79 96 93 96 c 0,18,19
 113 96 113 96 127 82 c 128,-1,20
 141 68 141 68 141 47 c 0,21,22
 141 23 141 23 124 8 c 128,-1,23
 107 -7 107 -7 82 -7 c 0,24,25
 49 -7 49 -7 27 18.5 c 128,-1,26
 5 44 5 44 5 86 c 0,27,28
 5 112 5 112 14.5 134.5 c 128,-1,29
 24 157 24 157 41 173.5 c 128,-1,30
 58 190 58 190 80.5 199.5 c 128,-1,31
 103 209 103 209 129 209 c 0,32,33
 137 209 137 209 145.5 208 c 128,-1,34
 154 207 154 207 164 205 c 1,35,36
 129 249 129 249 129 288 c 0,37,38
 129 352 129 352 185 387 c 1,39,-1
 194 372 l 1,40,41
 151 333 151 333 151 287 c 0,42,43
 151 266 151 266 159.5 247 c 128,-1,44
 168 228 168 228 182 214.5 c 128,-1,45
 196 201 196 201 215.5 193 c 128,-1,46
 235 185 235 185 256 185 c 0,47,48
 297 185 297 185 325 211.5 c 128,-1,49
 353 238 353 238 353 276 c 0,50,51
 353 306 353 306 320 359 c 0,52,53
 288 412 288 412 288 442 c 0,54,55
 288 515 288 515 383 580 c 1,56,57
 369 588 369 588 344.5 603.5 c 128,-1,58
 320 619 320 619 285 642 c 0,59,60
 203 697 203 697 149 697 c 0,61,62
 130 697 130 697 113.5 688 c 128,-1,63
 97 679 97 679 85 663.5 c 128,-1,64
 73 648 73 648 66 626.5 c 128,-1,65
 59 605 59 605 59 581 c 0,66,67
 59 555 59 555 67 533 c 128,-1,68
 75 511 75 511 89.5 494.5 c 128,-1,69
 104 478 104 478 124 468.5 c 128,-1,70
 144 459 144 459 168 459 c 0,71,72
 187 459 187 459 208 466 c 1,73,-1
 214 449 l 1,74,75
 184 441 184 441 168 441 c 0,76,77
 109 441 109 441 72 483 c 0,78,79
 36 525 36 525 36 585 c 0,80,81
 36 663 36 663 94 718 c 0,82,83
 153 774 153 774 234 774 c 0,84,85
 329 774 329 774 412 707 c 2,86,-1
 476 656 l 2,87,88
 525 618 525 618 577 618 c 0,89,90
 600 618 600 618 617.5 632.5 c 128,-1,91
 635 647 635 647 635 667 c 0,92,93
 635 693 635 693 617 693 c 0,94,95
 611 693 611 693 601 686 c 0,96,97
 583 674 583 674 570 674 c 0,98,99
 552 674 552 674 538.5 689 c 128,-1,100
 525 704 525 704 525 724 c 256,101,102
 525 744 525 744 540.5 759.5 c 128,-1,103
 556 775 556 775 576 775 c 0,104,105
 607 775 607 775 630 748.5 c 128,-1,106
 653 722 653 722 653 685 c 0,107,108
 653 626 653 626 606 588 c 0,109,110
 560 551 560 551 500 551 c 0,111,112
 451 551 451 551 405 571 c 2,113,-1
 396 575 l 1,114,115
 375 557 375 557 375 540 c 0,116,117
 375 515 375 515 405 479 c 2,118,-1
 433 445 l 2,119,120
 485 383 485 383 485 321 c 0,121,122
 485 275 485 275 457.5 235 c 128,-1,123
 430 195 430 195 387 177 c 0,124,125
 357 164 357 164 302 161 c 1,126,127
 364 126 364 126 388 116 c 0,128,129
 433 97 433 97 482 97 c 0,130,131
 558 97 558 97 614 138 c 0,132,133
 671 180 671 180 679 254 c 1,134,-1
 697 252 l 1,0,1
EndSplineSet
Validated: 1
EndChar

StartChar: U
Encoding: 85 85 51
Width: 653
GlyphClass: 1
Flags: W
LayerCount: 2
Fore
SplineSet
675 148 m 1,0,-1
 664 136 l 1,1,-1
 601 62 l 2,2,3
 576 33 576 33 558.5 12 c 128,-1,4
 541 -9 541 -9 530 -23 c 1,5,6
 513 -6 513 -6 493 15.5 c 128,-1,7
 473 37 473 37 451 64 c 1,8,9
 443 82 443 82 443 109 c 2,10,-1
 443 163 l 1,11,-1
 429 151 l 2,12,13
 406 131 406 131 377.5 104 c 128,-1,14
 349 77 349 77 315 42 c 2,15,-1
 250 -23 l 1,16,17
 191 28 191 28 70 92 c 2,18,-1
 51 102 l 1,19,-1
 66 111 l 2,20,21
 109 136 109 136 109 164 c 2,22,-1
 109 527 l 2,23,24
 109 571 109 571 103 591 c 0,25,26
 94 620 94 620 60 636 c 1,27,-1
 6 565 l 1,28,-1
 -8 578 l 1,29,30
 -3 585 -3 585 -0.5 589.5 c 128,-1,31
 2 594 2 594 3 596 c 2,32,-1
 70 686 l 1,33,-1
 114 751 l 2,34,35
 116 754 116 754 120 759 c 128,-1,36
 124 764 124 764 129 771 c 1,37,38
 182 732 182 732 204 694.5 c 128,-1,39
 226 657 226 657 226 607 c 2,40,-1
 226 159 l 1,41,-1
 333 87 l 1,42,-1
 444 188 l 1,43,-1
 444 599 l 1,44,-1
 404 640 l 1,45,-1
 346 572 l 1,46,-1
 331 586 l 1,47,48
 333 588 333 588 336 591.5 c 128,-1,49
 339 595 339 595 343 600 c 2,50,-1
 412 686 l 2,51,52
 432 710 432 710 448.5 731.5 c 128,-1,53
 465 753 465 753 479 773 c 1,54,55
 528 685 528 685 616 635 c 1,56,57
 608 629 608 629 603 627 c 0,58,59
 569 606 569 606 564 586 c 0,60,61
 561 574 561 574 561 552 c 2,62,-1
 561 192 l 2,63,64
 561 151 561 151 567 136 c 0,65,66
 574 119 574 119 607 95 c 1,67,-1
 662 159 l 1,68,-1
 675 148 l 1,0,-1
EndSplineSet
Validated: 1
EndChar

StartChar: V
Encoding: 86 86 52
Width: 770
GlyphClass: 1
Flags: W
LayerCount: 2
Fore
SplineSet
762 591 m 1,0,1
 736 562 736 562 706 551 c 0,2,3
 682 542 682 542 636 542 c 1,4,5
 598 516 598 516 598 481 c 0,6,7
 598 456 598 456 620 434 c 0,8,9
 622 432 622 432 632 423 c 128,-1,10
 642 414 642 414 661 398 c 0,11,12
 749 323 749 323 749 234 c 0,13,14
 749 126 749 126 661 50 c 0,15,16
 576 -24 576 -24 469 -24 c 0,17,18
 412 -24 412 -24 366 -3 c 0,19,20
 318 18 318 18 261 73 c 0,21,22
 238 95 238 95 220 110 c 128,-1,23
 202 125 202 125 191 133 c 0,24,25
 144 166 144 166 108 166 c 0,26,27
 80 166 80 166 61 151.5 c 128,-1,28
 42 137 42 137 42 117 c 0,29,30
 42 92 42 92 58 92 c 0,31,32
 59 92 59 92 62 93 c 0,33,34
 64 94 64 94 67 95 c 128,-1,35
 70 96 70 96 75 98 c 0,36,37
 90 105 90 105 102 105 c 0,38,39
 127 105 127 105 142.5 89.5 c 128,-1,40
 158 74 158 74 158 49 c 0,41,42
 158 23 158 23 141 7.5 c 128,-1,43
 124 -8 124 -8 98 -8 c 0,44,45
 64 -8 64 -8 42 19.5 c 128,-1,46
 20 47 20 47 20 92 c 0,47,48
 20 153 20 153 76 195 c 0,49,50
 128 233 128 233 190 233 c 0,51,52
 198 233 198 233 213.5 231 c 128,-1,53
 229 229 229 229 252 225 c 1,54,55
 268 245 268 245 279.5 265.5 c 128,-1,56
 291 286 291 286 298 309.5 c 128,-1,57
 305 333 305 333 308 362 c 128,-1,58
 311 391 311 391 311 427 c 0,59,60
 311 741 311 741 160 741 c 0,61,62
 127 741 127 741 103.5 720.5 c 128,-1,63
 80 700 80 700 80 671 c 0,64,65
 80 626 80 626 147 568 c 0,66,67
 191 530 191 530 210 503 c 0,68,69
 238 465 238 465 238 419 c 0,70,71
 238 360 238 360 196 321 c 0,72,73
 155 282 155 282 95 282 c 0,74,75
 -28 282 -28 282 -31 430 c 1,76,-1
 -15 430 l 1,77,78
 -11 370 -11 370 16 336 c 128,-1,79
 43 302 43 302 89 302 c 0,80,81
 113 302 113 302 130 317.5 c 128,-1,82
 147 333 147 333 147 355 c 256,83,84
 147 377 147 377 124 411 c 0,85,86
 119 418 119 418 71 468 c 0,87,88
 8 532 8 532 8 592 c 0,89,90
 8 668 8 668 67 721 c 0,91,92
 128 774 128 774 203 774 c 0,93,94
 309 774 309 774 396 680 c 1,95,96
 424 771 424 771 534 771 c 0,97,98
 592 771 592 771 629 737 c 0,99,100
 656 713 656 713 678 643 c 0,101,102
 694 591 694 591 722 591 c 0,103,104
 735 591 735 591 751 604 c 1,105,-1
 762 591 l 1,0,1
410 654 m 1,106,107
 435 588 435 588 435 490 c 0,108,109
 435 416 435 416 415 371 c 0,110,111
 395 329 395 329 338 283 c 0,112,113
 313 263 313 263 295 248.5 c 128,-1,114
 277 234 277 234 264 223 c 1,115,116
 321 197 321 197 354 168 c 2,117,-1
 420 112 l 2,118,119
 505 41 505 41 572 41 c 0,120,121
 618 41 618 41 648 69 c 128,-1,122
 678 97 678 97 678 142 c 0,123,124
 678 192 678 192 595 272 c 0,125,126
 550 316 550 316 536 335 c 0,127,128
 509 372 509 372 509 415 c 0,129,130
 509 496 509 496 623 549 c 1,131,132
 608 555 608 555 597.5 562 c 128,-1,133
 587 569 587 569 579 579 c 128,-1,134
 571 589 571 589 564.5 603 c 128,-1,135
 558 617 558 617 552 638 c 0,136,137
 543 665 543 665 535.5 682.5 c 128,-1,138
 528 700 528 700 520 710.5 c 128,-1,139
 512 721 512 721 502.5 725 c 128,-1,140
 493 729 493 729 481 729 c 0,141,142
 419 729 419 729 410 654 c 1,106,107
EndSplineSet
Validated: 1
EndChar

StartChar: W
Encoding: 87 87 53
Width: 1005
GlyphClass: 1
Flags: W
LayerCount: 2
Fore
SplineSet
646 770 m 1,0,-1
 633 751 l 2,1,2
 616 727 616 727 599 685 c 1,3,4
 693 748 693 748 762 748 c 0,5,6
 877 748 877 748 911 621 c 0,7,8
 929 554 929 554 961 554 c 0,9,10
 971 554 971 554 985 566 c 1,11,-1
 994 551 l 1,12,13
 959 510 959 510 904 510 c 0,14,15
 900 510 900 510 891 511.5 c 128,-1,16
 882 513 882 513 868 515 c 1,17,18
 826 495 826 495 826 468 c 0,19,20
 826 438 826 438 854 406 c 0,21,22
 859 401 859 401 872 388.5 c 128,-1,23
 885 376 885 376 906 357 c 0,24,25
 947 320 947 320 964 288 c 256,26,27
 981 256 981 256 981 213 c 0,28,29
 981 113 981 113 910 45 c 0,30,31
 840 -22 840 -22 738 -22 c 0,32,33
 682 -22 682 -22 632 0 c 2,34,-1
 585 21 l 2,35,36
 564 31 564 31 547 31 c 0,37,38
 528 31 528 31 512 22 c 2,39,-1
 472 1 l 2,40,41
 423 -24 423 -24 377 -24 c 0,42,43
 301 -24 301 -24 224 49 c 0,44,45
 204 67 204 67 155 112 c 0,46,47
 121 143 121 143 76 143 c 0,48,49
 50 143 50 143 32 126.5 c 128,-1,50
 14 110 14 110 14 86 c 0,51,52
 14 66 14 66 27 66 c 0,53,54
 29 66 29 66 43 73 c 128,-1,55
 57 80 57 80 68 80 c 0,56,57
 91 80 91 80 106.5 64.5 c 128,-1,58
 122 49 122 49 122 27 c 256,59,60
 122 5 122 5 106 -10.5 c 128,-1,61
 90 -26 90 -26 68 -26 c 0,62,63
 37 -26 37 -26 16 0 c 128,-1,64
 -5 26 -5 26 -5 64 c 0,65,66
 -5 127 -5 127 48 165 c 0,67,68
 97 199 97 199 162 199 c 0,69,70
 192 199 192 199 224 190 c 1,71,72
 302 251 302 251 302 448 c 0,73,74
 302 578 302 578 265.5 650.5 c 128,-1,75
 229 723 229 723 165 723 c 0,76,77
 127 723 127 723 103 702.5 c 128,-1,78
 79 682 79 682 79 648 c 0,79,80
 79 591 79 591 153 532 c 0,81,82
 199 496 199 496 216 472 c 0,83,84
 242 435 242 435 242 391 c 0,85,86
 242 336 242 336 202 296 c 0,87,88
 163 257 163 257 108 257 c 0,89,90
 83 257 83 257 61.5 266 c 128,-1,91
 40 275 40 275 24.5 291 c 128,-1,92
 9 307 9 307 0 329 c 128,-1,93
 -9 351 -9 351 -9 376 c 2,94,-1
 -9 390 l 1,95,-1
 7 387 l 1,96,97
 9 338 9 338 36.5 308 c 128,-1,98
 64 278 64 278 107 278 c 0,99,100
 133 278 133 278 153 293.5 c 128,-1,101
 173 309 173 309 173 331 c 0,102,103
 173 360 173 360 149 380 c 2,104,-1
 83 434 l 2,105,106
 8 495 8 495 8 578 c 0,107,108
 8 656 8 656 69 705 c 0,109,110
 125 751 125 751 205 751 c 0,111,112
 279 751 279 751 345 703 c 1,113,114
 396 755 396 755 452 755 c 0,115,116
 517 755 517 755 569 688 c 1,117,118
 570 690 570 690 572 692.5 c 128,-1,119
 574 695 574 695 576 698 c 2,120,-1
 581 706 l 2,121,122
 587 716 587 716 600 734 c 128,-1,123
 613 752 613 752 633 778 c 1,124,-1
 646 770 l 1,0,-1
361 685 m 1,125,126
 426 605 426 605 426 481 c 0,127,128
 426 355 426 355 389 299 c 0,129,130
 357 249 357 249 242 182 c 1,131,132
 288 161 288 161 340 118 c 0,133,134
 371 92 371 92 392.5 75.5 c 128,-1,135
 414 59 414 59 427 51 c 0,136,137
 449 38 449 38 480 38 c 0,138,139
 525 38 525 38 555 76 c 0,140,141
 585 113 585 113 585 160 c 0,142,143
 585 209 585 209 523 322 c 0,144,145
 475 409 475 409 475 469 c 0,146,147
 475 522 475 522 500 576 c 0,148,149
 507 592 507 592 521 616 c 128,-1,150
 535 640 535 640 555 673 c 1,151,152
 510 735 510 735 451 735 c 0,153,154
 393 735 393 735 361 685 c 1,125,126
605 135 m 1,155,156
 643 136 643 136 680 118 c 0,157,158
 700 105 700 105 719 93 c 128,-1,159
 738 81 738 81 757 68 c 0,160,161
 803 38 803 38 842 38 c 0,162,163
 857 38 857 38 871.5 44.5 c 128,-1,164
 886 51 886 51 896.5 62.5 c 128,-1,165
 907 74 907 74 913.5 88.5 c 128,-1,166
 920 103 920 103 920 119 c 0,167,168
 920 171 920 171 833 243 c 0,169,170
 741 320 741 320 741 390 c 0,171,172
 741 432 741 432 764.5 461 c 128,-1,173
 788 490 788 490 848 522 c 1,174,175
 804 547 804 547 788 603 c 0,176,177
 765 670 765 670 749 689 c 0,178,179
 732 709 732 709 698 709 c 0,180,181
 647 709 647 709 606 662 c 0,182,183
 567 615 567 615 567 562 c 0,184,185
 567 513 567 513 617 433 c 0,186,187
 631 411 631 411 640.5 395 c 128,-1,188
 650 379 650 379 655 368 c 0,189,190
 674 331 674 331 674 296 c 0,191,192
 674 223 674 223 605 135 c 1,155,156
EndSplineSet
Validated: 33
EndChar

StartChar: X
Encoding: 88 88 54
Width: 605
GlyphClass: 1
Flags: W
LayerCount: 2
Fore
SplineSet
369 247 m 2,0,1
 369 175 369 175 403 135 c 0,2,3
 446 83 446 83 491 83 c 0,4,5
 522 83 522 83 602 151 c 1,6,-1
 614 136 l 1,7,8
 611 133 611 133 595 121 c 2,9,-1
 511 56 l 2,10,11
 510 55 510 55 498.5 45.5 c 128,-1,12
 487 36 487 36 464 17 c 0,13,14
 458 11 458 11 433 -8 c 2,15,-1
 413 -24 l 1,16,-1
 352 11 l 2,17,18
 273 57 273 57 256 150 c 1,19,20
 243 127 243 127 233.5 111 c 128,-1,21
 224 95 224 95 216 85 c 2,22,-1
 136 -24 l 1,23,-1
 34 53 l 1,24,-1
 -12 -3 l 1,25,-1
 -29 5 l 1,26,-1
 -17 20 l 1,27,-1
 39 89 l 2,28,29
 44 97 44 97 56 113 c 128,-1,30
 68 129 68 129 86 154 c 2,31,-1
 99 171 l 1,32,-1
 199 99 l 1,33,34
 230 133 230 133 238 159 c 0,35,36
 253 204 253 204 253 316 c 2,37,-1
 253 356 l 1,38,-1
 212 356 l 2,39,40
 154 356 154 356 125 333 c 0,41,42
 101 315 101 315 75 256 c 1,43,-1
 55 262 l 1,44,45
 57 266 57 266 59.5 272 c 128,-1,46
 62 278 62 278 66 286 c 2,47,-1
 100 365 l 2,48,49
 108 384 108 384 115.5 405.5 c 128,-1,50
 123 427 123 427 131 452 c 1,51,-1
 253 452 l 1,52,-1
 253 505 l 2,53,54
 253 594 253 594 209 635 c 0,55,56
 174 667 174 667 141 667 c 0,57,58
 115 667 115 667 71 626 c 2,59,-1
 44 601 l 2,60,61
 42 599 42 599 39 596.5 c 128,-1,62
 36 594 36 594 31 589 c 1,63,-1
 16 605 l 1,64,65
 90 668 90 668 189 782 c 1,66,67
 324 730 324 730 359 626 c 1,68,69
 371 648 371 648 409 694 c 2,70,-1
 483 782 l 1,71,-1
 573 712 l 1,72,-1
 620 761 l 1,73,-1
 634 747 l 1,74,75
 616 729 616 729 568 675 c 2,76,-1
 520 621 l 2,77,78
 518 619 518 619 515 614.5 c 128,-1,79
 512 610 512 610 507 605 c 1,80,-1
 421 676 l 1,81,82
 369 628 369 628 369 542 c 2,83,-1
 369 452 l 1,84,-1
 428 452 l 2,85,86
 476 452 476 452 501 469 c 128,-1,87
 526 486 526 486 545 533 c 1,88,-1
 563 525 l 1,89,-1
 556 506 l 1,90,-1
 533 449 l 2,91,92
 521 420 521 420 512.5 396.5 c 128,-1,93
 504 373 504 373 499 356 c 1,94,-1
 369 356 l 1,95,-1
 369 247 l 2,0,1
EndSplineSet
Validated: 1
EndChar

StartChar: Y
Encoding: 89 89 55
Width: 754
GlyphClass: 1
Flags: W
LayerCount: 2
Fore
SplineSet
721 777 m 1,0,1
 684 719 684 719 684 645 c 0,2,3
 684 612 684 612 690 556 c 128,-1,4
 696 500 696 500 707 421 c 0,5,6
 717 352 717 352 722 302.5 c 128,-1,7
 727 253 727 253 727 222 c 0,8,9
 727 11 727 11 601 -92 c 0,10,11
 500 -176 500 -176 360 -176 c 0,12,13
 266 -176 266 -176 194 -140 c 0,14,15
 103 -94 103 -94 103 -9 c 0,16,17
 103 19 103 19 120.5 38.5 c 128,-1,18
 138 58 138 58 165 58 c 0,19,20
 195 58 195 58 215.5 31.5 c 128,-1,21
 236 5 236 5 235 -31 c 2,22,-1
 234 -67 l 2,23,24
 234 -85 234 -85 244 -101 c 128,-1,25
 254 -117 254 -117 272 -128.5 c 128,-1,26
 290 -140 290 -140 315.5 -146.5 c 128,-1,27
 341 -153 341 -153 371 -153 c 0,28,29
 481 -153 481 -153 549 -88 c 0,30,31
 616 -24 616 -24 616 85 c 0,32,33
 616 121 616 121 611.5 166 c 128,-1,34
 607 211 607 211 599 266 c 2,35,-1
 576 413 l 2,36,37
 561 509 561 509 561 587 c 0,38,39
 561 603 561 603 562 620 c 128,-1,40
 563 637 563 637 565 655 c 1,41,-1
 449 581 l 1,42,43
 466 521 466 521 466 435 c 0,44,45
 466 341 466 341 442 295 c 0,46,47
 419 248 419 248 344 194 c 0,48,49
 342 192 342 192 338 189.5 c 128,-1,50
 334 187 334 187 329 183 c 1,51,52
 336 177 336 177 348 164.5 c 128,-1,53
 360 152 360 152 378 133 c 2,54,-1
 411 98 l 2,55,56
 417 90 417 90 429 77 c 1,57,-1
 509 140 l 1,58,-1
 521 125 l 1,59,-1
 506 112 l 2,60,61
 480 90 480 90 442 56.5 c 128,-1,62
 404 23 404 23 354 -24 c 1,63,64
 287 78 287 78 207 119 c 1,65,66
 282 151 282 151 307 203 c 0,67,68
 334 255 334 255 334 366 c 0,69,70
 334 584 334 584 275 670 c 0,71,72
 237 723 237 723 183 723 c 0,73,74
 165 723 165 723 148.5 716.5 c 128,-1,75
 132 710 132 710 119.5 698.5 c 128,-1,76
 107 687 107 687 99.5 672.5 c 128,-1,77
 92 658 92 658 92 642 c 0,78,79
 92 605 92 605 118 568 c 0,80,81
 130 550 130 550 172 508 c 0,82,83
 259 421 259 421 259 340 c 0,84,85
 259 271 259 271 211 223 c 256,86,87
 163 175 163 175 94 175 c 0,88,89
 39 175 39 175 4 208.5 c 128,-1,90
 -31 242 -31 242 -31 296 c 0,91,92
 -31 319 -31 319 -22 343 c 1,93,-1
 -5 336 l 1,94,95
 -10 311 -10 311 -10 297 c 0,96,97
 -10 254 -10 254 15.5 225.5 c 128,-1,98
 41 197 41 197 83 197 c 0,99,100
 113 197 113 197 134.5 220 c 128,-1,101
 156 243 156 243 156 275 c 0,102,103
 156 312 156 312 133 347 c 0,104,105
 128 355 128 355 115.5 369.5 c 128,-1,106
 103 384 103 384 83 407 c 0,107,108
 15 484 15 484 15 553 c 0,109,110
 15 639 15 639 74 695 c 256,111,112
 133 751 133 751 220 751 c 0,113,114
 378 751 378 751 443 601 c 1,115,-1
 721 777 l 1,0,1
EndSplineSet
Validated: 33
EndChar

StartChar: Z
Encoding: 90 90 56
Width: 633
GlyphClass: 1
Flags: W
LayerCount: 2
Fore
SplineSet
143 -114 m 1,0,1
 120 -117 120 -117 113 -117 c 0,2,3
 65 -117 65 -117 30 -79 c 0,4,5
 -3 -42 -3 -42 -3 6 c 0,6,7
 -3 61 -3 61 37 98 c 0,8,9
 78 136 78 136 136 136 c 0,10,11
 240 136 240 136 281 11 c 0,12,13
 295 -32 295 -32 305 -58 c 128,-1,14
 315 -84 315 -84 322 -94 c 0,15,16
 341 -122 341 -122 379 -122 c 0,17,18
 473 -122 473 -122 473 73 c 0,19,20
 473 206 473 206 423.5 280.5 c 128,-1,21
 374 355 374 355 286 355 c 0,22,23
 169 355 169 355 144 231 c 1,24,-1
 119 231 l 1,25,26
 132 331 132 331 220 370 c 1,27,28
 124 410 124 410 115 518 c 1,29,-1
 140 518 l 1,30,31
 159 386 159 386 277 386 c 0,32,33
 341 386 341 386 378 431 c 128,-1,34
 415 476 415 476 415 554 c 0,35,36
 415 638 415 638 377.5 686.5 c 128,-1,37
 340 735 340 735 274 735 c 0,38,39
 174 735 174 735 140 612 c 1,40,-1
 114 612 l 1,41,42
 134 682 134 682 165 713 c 0,43,44
 229 779 229 779 328 779 c 0,45,46
 418 779 418 779 482 720 c 0,47,48
 546 662 546 662 546 570 c 0,49,50
 546 433 546 433 404 387 c 1,51,52
 488 364 488 364 534 312 c 0,53,54
 612 226 612 226 612 114 c 0,55,56
 612 5 612 5 538 -71 c 0,57,58
 465 -147 465 -147 354 -147 c 0,59,60
 262 -147 262 -147 212 -101 c 0,61,62
 190 -80 190 -80 177 -49 c 0,63,64
 176 -47 176 -47 171 -32 c 128,-1,65
 166 -17 166 -17 157 11 c 0,66,67
 134 79 134 79 85 79 c 0,68,69
 57 79 57 79 39.5 58 c 128,-1,70
 22 37 22 37 22 3 c 0,71,72
 22 -17 22 -17 29 -35 c 128,-1,73
 36 -53 36 -53 49 -66.5 c 128,-1,74
 62 -80 62 -80 78.5 -88 c 128,-1,75
 95 -96 95 -96 115 -96 c 256,76,77
 135 -96 135 -96 139 -95 c 1,78,-1
 143 -114 l 1,0,1
EndSplineSet
Validated: 1
EndChar

StartChar: bracketleft
Encoding: 91 91 57
Width: 316
GlyphClass: 1
Flags: W
LayerCount: 2
Fore
SplineSet
84 -145 m 1,0,-1
 84 771 l 1,1,-1
 277 771 l 1,2,-1
 277 741 l 1,3,-1
 169 741 l 1,4,-1
 169 -114 l 1,5,-1
 277 -114 l 1,6,-1
 277 -145 l 1,7,-1
 84 -145 l 1,0,-1
EndSplineSet
Validated: 1
EndChar

StartChar: c_k
Encoding: 61124 61124 58
Width: 575
GlyphClass: 1
Flags: W
LayerCount: 2
Fore
SplineSet
315 132 m 1,0,-1
 296 118 l 2,1,2
 257 89 257 89 188 19 c 0,3,4
 183 14 183 14 172.5 3.5 c 128,-1,5
 162 -7 162 -7 146 -21 c 1,6,7
 131 6 131 6 108 35 c 0,8,9
 87 61 87 61 74 79 c 128,-1,10
 61 97 61 97 56 105 c 0,11,12
 33 145 33 145 33 188 c 0,13,14
 33 217 33 217 34 249.5 c 128,-1,15
 35 282 35 282 37 320 c 2,16,-1
 40 380 l 2,17,18
 43 431 43 431 56 453 c 0,19,20
 88 506 88 506 233 599 c 1,21,-1
 327 487 l 1,22,-1
 239 417 l 1,23,-1
 154 520 l 1,24,25
 152 506 152 506 151 486 c 128,-1,26
 150 466 150 466 149 439 c 0,27,28
 148 402 148 402 147.5 373.5 c 128,-1,29
 147 345 147 345 147 324 c 0,30,31
 147 221 147 221 151 204 c 0,32,33
 160 159 160 159 208 103 c 2,34,-1
 222 87 l 1,35,-1
 334 175 l 1,36,-1
 334 532 l 2,37,38
 334 537 334 537 334 542 c 128,-1,39
 334 547 334 547 335 552 c 2,40,-1
 335 564 l 2,41,42
 335 671 335 671 266 748 c 1,43,-1
 284 763 l 1,44,-1
 295 752 l 2,45,46
 325 722 325 722 355 668 c 1,47,48
 429 781 429 781 541 781 c 2,49,-1
 564 781 l 1,50,-1
 564 761 l 1,51,52
 506 755 506 755 476.5 718.5 c 128,-1,53
 447 682 447 682 439 607 c 1,54,-1
 517 696 l 1,55,56
 528 688 528 688 530 684 c 2,57,-1
 558 662 l 2,58,59
 592 635 592 635 592 594 c 0,60,61
 592 579 592 579 587 566 c 128,-1,62
 582 553 582 553 570 541 c 128,-1,63
 558 529 558 529 538 516.5 c 128,-1,64
 518 504 518 504 488 489 c 1,65,-1
 581 489 l 1,66,-1
 581 404 l 1,67,-1
 445 404 l 1,68,-1
 445 168 l 2,69,70
 445 135 445 135 452 121 c 256,71,72
 459 107 459 107 485 85 c 2,73,-1
 498 74 l 1,74,-1
 563 134 l 1,75,-1
 575 122 l 1,76,77
 564 111 564 111 546.5 95 c 128,-1,78
 529 79 529 79 506 57 c 256,79,80
 483 35 483 35 466 19.5 c 128,-1,81
 449 4 449 4 438 -7 c 2,82,-1
 424 -21 l 1,83,84
 410 -7 410 -7 385.5 14.5 c 128,-1,85
 361 36 361 36 327 65 c 1,86,87
 333 114 333 114 333 130 c 2,88,-1
 333 147 l 1,89,-1
 315 132 l 1,0,-1
439 482 m 1,90,91
 509 519 509 519 509 566 c 0,92,93
 509 610 509 610 474 610 c 0,94,95
 459 610 459 610 439 584 c 1,96,-1
 439 482 l 1,90,91
EndSplineSet
Validated: 1
Ligature2: "'ccmp' Glyphen-Zusammensetzung/Zerlegung in Lateinisch Nachschlagetabelle 0-1" c k
EndChar

StartChar: c_h
Encoding: 61883 61883 59
Width: 722
GlyphClass: 1
Flags: W
LayerCount: 2
Fore
SplineSet
239 417 m 1,0,-1
 154 520 l 1,1,2
 152 505 152 505 151 485 c 128,-1,3
 150 465 150 465 149 439 c 0,4,5
 148 402 148 402 147.5 373 c 128,-1,6
 147 344 147 344 147 324 c 0,7,8
 147 221 147 221 151 204 c 0,9,10
 160 159 160 159 208 103 c 2,11,-1
 222 87 l 1,12,-1
 334 175 l 1,13,-1
 334 464 l 2,14,15
 334 502 334 502 334 524.5 c 128,-1,16
 334 547 334 547 333 552 c 0,17,18
 330 582 330 582 326 604 c 128,-1,19
 322 626 322 626 315.5 643.5 c 128,-1,20
 309 661 309 661 299.5 675.5 c 128,-1,21
 290 690 290 690 275 705 c 1,22,-1
 293 719 l 1,23,24
 323 685 323 685 346 646 c 1,25,26
 360 676 360 676 383 699.5 c 128,-1,27
 406 723 406 723 436 740 c 128,-1,28
 466 757 466 757 501.5 766 c 128,-1,29
 537 775 537 775 575 775 c 2,30,-1
 592 775 l 1,31,-1
 591 751 l 1,32,33
 553 751 553 751 526.5 740 c 128,-1,34
 500 729 500 729 483 705.5 c 128,-1,35
 466 682 466 682 457.5 644.5 c 128,-1,36
 449 607 449 607 448 553 c 2,37,-1
 446 450 l 1,38,-1
 627 592 l 1,39,40
 633 542 633 542 670 420 c 0,41,42
 703 310 703 310 703 263 c 0,43,44
 703 75 703 75 430 -160 c 1,45,-1
 413 -142 l 1,46,-1
 431 -125 l 2,47,48
 603 35 603 35 603 166 c 0,49,50
 603 241 603 241 545 406 c 2,51,-1
 519 481 l 1,52,-1
 445 423 l 1,53,-1
 445 170 l 2,54,55
 445 141 445 141 455 125 c 0,56,57
 463 112 463 112 487 94 c 1,58,-1
 545 153 l 1,59,-1
 557 140 l 1,60,61
 548 128 548 128 546 126 c 2,62,-1
 483 62 l 2,63,64
 462 40 462 40 427 0 c 2,65,-1
 411 -19 l 1,66,-1
 395 -3 l 1,67,-1
 351 42 l 2,68,69
 350 43 350 43 345 48.5 c 128,-1,70
 340 54 340 54 330 65 c 1,71,72
 333 96 333 96 333 108 c 2,73,-1
 333 147 l 1,74,-1
 315 132 l 1,75,-1
 296 118 l 2,76,77
 257 89 257 89 188 19 c 0,78,79
 183 14 183 14 172.5 3.5 c 128,-1,80
 162 -7 162 -7 146 -21 c 1,81,82
 130 7 130 7 108 35 c 256,83,84
 86 63 86 63 73 80.5 c 128,-1,85
 60 98 60 98 56 106 c 0,86,87
 33 147 33 147 33 188 c 0,88,89
 33 217 33 217 34 249.5 c 128,-1,90
 35 282 35 282 37 320 c 2,91,-1
 40 380 l 2,92,93
 43 434 43 434 59 459 c 0,94,95
 64 467 64 467 79 482 c 128,-1,96
 94 497 94 497 119 517 c 0,97,98
 139 534 139 534 167.5 554.5 c 128,-1,99
 196 575 196 575 233 599 c 1,100,-1
 325 483 l 1,101,-1
 239 417 l 1,0,-1
EndSplineSet
Validated: 1
Ligature2: "'ccmp' Glyphen-Zusammensetzung/Zerlegung in Lateinisch Nachschlagetabelle 0-1" c h
EndChar

StartChar: t_z
Encoding: 57914 57914 60
AltUni2: 00eedc.ffffffff.0 00eedc.ffffffff.0
Width: 461
GlyphClass: 1
Flags: W
LayerCount: 2
Fore
SplineSet
290 697 m 1,0,1
 266 674 266 674 245.5 646.5 c 128,-1,2
 225 619 225 619 210 589 c 128,-1,3
 195 559 195 559 185.5 527 c 128,-1,4
 176 495 176 495 173 465 c 1,5,6
 271 517 271 517 367 581 c 1,7,8
 375 541 375 541 394 486 c 0,9,10
 410 441 410 441 410 416 c 0,11,12
 410 382 410 382 367 351 c 2,13,-1
 337 329 l 1,14,-1
 367 308 l 2,15,16
 442 255 442 255 442 167 c 0,17,18
 442 55 442 55 321 -51 c 2,19,-1
 231 -131 l 1,20,21
 211 -57 211 -57 154 -57 c 0,22,23
 137 -57 137 -57 124.5 -69 c 128,-1,24
 112 -81 112 -81 112 -98 c 0,25,26
 112 -113 112 -113 120 -126 c 128,-1,27
 128 -139 128 -139 141.5 -148.5 c 128,-1,28
 155 -158 155 -158 172.5 -164 c 128,-1,29
 190 -170 190 -170 210 -170 c 0,30,31
 280 -170 280 -170 346 -97 c 1,32,-1
 359 -111 l 1,33,34
 298 -190 298 -190 209 -190 c 0,35,36
 183 -190 183 -190 160.5 -182.5 c 128,-1,37
 138 -175 138 -175 121.5 -162.5 c 128,-1,38
 105 -150 105 -150 95.5 -132.5 c 128,-1,39
 86 -115 86 -115 86 -95 c 0,40,41
 86 -76 86 -76 95.5 -58.5 c 128,-1,42
 105 -41 105 -41 121.5 -28.5 c 128,-1,43
 138 -16 138 -16 160 -8.5 c 128,-1,44
 182 -1 182 -1 208 -1 c 0,45,46
 238 -1 238 -1 259 -10 c 0,47,48
 275 -17 275 -17 304 -38 c 1,49,50
 354 38 354 38 354 93 c 0,51,52
 354 142 354 142 318 192 c 0,53,54
 279 245 279 245 230 245 c 0,55,56
 213 245 213 245 173 227 c 1,57,-1
 173 123 l 2,58,59
 173 98 173 98 177 91 c 0,60,61
 182 78 182 78 201 71 c 1,62,-1
 255 111 l 1,63,-1
 266 94 l 1,64,-1
 116 -21 l 1,65,-1
 21 89 l 1,66,67
 51 103 51 103 58 125 c 0,68,69
 62 136 62 136 62 177 c 2,70,-1
 62 397 l 2,71,72
 62 430 62 430 50.5 442.5 c 128,-1,73
 39 455 39 455 9 455 c 2,74,-1
 -1 455 l 1,75,76
 107 540 107 540 149 587 c 2,77,-1
 186 629 l 2,78,79
 214 662 214 662 277 713 c 1,80,-1
 290 697 l 1,0,1
173 250 m 1,81,82
 302 296 302 296 302 367 c 0,83,84
 302 413 302 413 258 490 c 1,85,-1
 173 444 l 1,86,-1
 173 250 l 1,81,82
EndSplineSet
Validated: 1
Ligature2: "'ccmp' Glyphen-Zusammensetzung/Zerlegung in Lateinisch Nachschlagetabelle 0-1" t z
EndChar

StartChar: bracketright
Encoding: 93 93 61
Width: 316
GlyphClass: 1
Flags: W
LayerCount: 2
Fore
SplineSet
39 -145 m 1,0,-1
 39 -114 l 1,1,-1
 147 -114 l 1,2,-1
 147 741 l 1,3,-1
 39 741 l 1,4,-1
 39 771 l 1,5,-1
 232 771 l 1,6,-1
 232 -145 l 1,7,-1
 39 -145 l 1,0,-1
EndSplineSet
Validated: 1
EndChar

StartChar: underscore
Encoding: 95 95 62
Width: 441
GlyphClass: 1
Flags: W
LayerCount: 2
Fore
SplineSet
441 -128 m 1,0,-1
 441 -154 l 1,1,-1
 0 -154 l 1,2,-1
 0 -128 l 1,3,-1
 441 -128 l 1,0,-1
EndSplineSet
Validated: 1
EndChar

StartChar: grave
Encoding: 96 96 63
Width: 0
GlyphClass: 1
Flags: W
LayerCount: 2
Fore
SplineSet
-40 690 m 2,0,1
 -74 714 -74 714 -74 740 c 0,2,3
 -74 756 -74 756 -60.5 767.5 c 128,-1,4
 -47 779 -47 779 -28 779 c 0,5,6
 0 779 0 779 11 755 c 2,7,-1
 76 629 l 1,8,-1
 66 616 l 1,9,-1
 -40 690 l 2,0,1
EndSplineSet
Validated: 1
EndChar

StartChar: a
Encoding: 97 97 64
Width: 451
GlyphClass: 1
Flags: W
AnchorPoint: "umlaut" 260 740 basechar 0
AnchorPoint: "top" 233 667 basechar 0
LayerCount: 2
Fore
SplineSet
121 -20 m 1,0,-1
 56 120 l 2,1,2
 20 198 20 198 20 263 c 0,3,4
 20 376 20 376 155 498 c 2,5,-1
 206 544 l 1,6,-1
 241 578 l 1,7,-1
 255 590 l 1,8,9
 347 497 347 497 442 465 c 1,10,-1
 442 447 l 1,11,12
 394 431 394 431 382 362 c 0,13,14
 380 351 380 351 379 322.5 c 128,-1,15
 378 294 378 294 378 249 c 0,16,17
 378 217 378 217 379 196.5 c 128,-1,18
 380 176 380 176 382 166 c 0,19,20
 391 121 391 121 423 98 c 1,21,-1
 456 132 l 1,22,-1
 470 120 l 2,23,24
 469 118 469 118 462 109 c 2,25,-1
 350 -20 l 1,26,-1
 310 26 l 2,27,28
 278 64 278 64 272 110 c 1,29,-1
 121 -20 l 1,0,-1
268 135 m 1,30,31
 265 168 265 168 265 232 c 0,32,33
 265 271 265 271 267.5 304 c 128,-1,34
 270 337 270 337 275 364 c 0,35,36
 279 388 279 388 296 409 c 1,37,38
 293 411 293 411 288.5 414 c 128,-1,39
 284 417 284 417 278 422 c 0,40,41
 265 431 265 431 254 438.5 c 128,-1,42
 243 446 243 446 235 452 c 2,43,-1
 195 485 l 2,44,45
 194 486 194 486 192 488 c 128,-1,46
 190 490 190 490 185 493 c 1,47,48
 120 436 120 436 120 334 c 0,49,50
 120 242 120 242 209 84 c 1,51,-1
 268 135 l 1,30,31
EndSplineSet
Validated: 1
EndChar

StartChar: b
Encoding: 98 98 65
Width: 453
GlyphClass: 1
Flags: W
LayerCount: 2
Fore
SplineSet
345 598 m 1,0,1
 350 578 350 578 356.5 559.5 c 128,-1,2
 363 541 363 541 370 524 c 2,3,-1
 401 453 l 2,4,5
 433 378 433 378 433 320 c 0,6,7
 433 212 433 212 331 109 c 2,8,-1
 276 53 l 2,9,10
 233 9 233 9 212 -21 c 1,11,12
 152 24 152 24 101.5 54 c 128,-1,13
 51 84 51 84 8 101 c 1,14,15
 45 124 45 124 55 155 c 0,16,17
 62 173 62 173 62 226 c 2,18,-1
 62 537 l 2,19,20
 62 580 62 580 60.5 607 c 128,-1,21
 59 634 59 634 57 646 c 0,22,23
 48 690 48 690 8 741 c 1,24,-1
 25 756 l 1,25,26
 59 724 59 724 88 672 c 1,27,28
 145 788 145 788 296 788 c 0,29,30
 297 788 297 788 304.5 787.5 c 128,-1,31
 312 787 312 787 327 786 c 1,32,-1
 327 761 l 1,33,34
 173 757 173 757 173 566 c 2,35,-1
 173 465 l 1,36,-1
 345 598 l 1,0,1
273 82 m 1,37,38
 343 164 343 164 343 263 c 0,39,40
 343 321 343 321 313 386 c 0,41,42
 284 448 284 448 240 489 c 1,43,-1
 173 438 l 1,44,-1
 173 142 l 1,45,-1
 273 82 l 1,37,38
EndSplineSet
Validated: 1
EndChar

StartChar: c
Encoding: 99 99 66
Width: 314
GlyphClass: 1
Flags: W
LayerCount: 2
Fore
SplineSet
231 422 m 1,0,-1
 154 518 l 1,1,2
 152 499 152 499 151 479 c 128,-1,3
 150 459 150 459 149 437 c 0,4,5
 146 348 146 348 146 322 c 0,6,7
 146 213 146 213 149 200 c 0,8,9
 156 154 156 154 207 100 c 2,10,-1
 221 85 l 1,11,-1
 307 163 l 1,12,-1
 321 146 l 2,13,14
 320 145 320 145 316.5 141.5 c 128,-1,15
 313 138 313 138 305 131 c 2,16,-1
 231 62 l 2,17,18
 208 40 208 40 186.5 18.5 c 128,-1,19
 165 -3 165 -3 145 -23 c 1,20,21
 139 -11 139 -11 130 3 c 128,-1,22
 121 17 121 17 108 33 c 0,23,24
 85 63 85 63 72 81 c 128,-1,25
 59 99 59 99 56 104 c 0,26,27
 33 145 33 145 33 186 c 0,28,29
 33 218 33 218 34 252 c 128,-1,30
 35 286 35 286 37 323 c 2,31,-1
 40 378 l 2,32,33
 43 432 43 432 59 457 c 0,34,35
 69 473 69 473 118 514 c 0,36,37
 170 557 170 557 233 597 c 1,38,-1
 319 489 l 1,39,-1
 231 422 l 1,0,-1
EndSplineSet
Validated: 1
EndChar

StartChar: d
Encoding: 100 100 67
Width: 443
GlyphClass: 1
Flags: W
LayerCount: 2
Fore
SplineSet
186 755 m 1,0,1
 114 741 114 741 114 693 c 0,2,3
 114 653 114 653 166 625 c 2,4,-1
 243 583 l 2,5,6
 422 485 422 485 422 321 c 0,7,8
 422 291 422 291 417 264.5 c 128,-1,9
 412 238 412 238 400 211.5 c 128,-1,10
 388 185 388 185 368.5 158 c 128,-1,11
 349 131 349 131 321 100 c 0,12,13
 264 36 264 36 192 -21 c 1,14,15
 116 49 116 49 15 85 c 1,16,-1
 54 116 l 1,17,-1
 54 453 l 1,18,-1
 157 496 l 1,19,20
 30 554 30 554 30 635 c 0,21,22
 30 693 30 693 72 732 c 128,-1,23
 114 771 114 771 183 776 c 1,24,-1
 186 755 l 1,0,1
261 68 m 1,25,26
 348 152 348 152 348 260 c 0,27,28
 348 342 348 342 304.5 397 c 128,-1,29
 261 452 261 452 165 493 c 1,30,-1
 165 133 l 1,31,-1
 261 68 l 1,25,26
EndSplineSet
Validated: 1
EndChar

StartChar: e
Encoding: 101 101 68
Width: 324
GlyphClass: 1
Flags: W
AnchorPoint: "top" 161 680 basechar 0
LayerCount: 2
Fore
SplineSet
143 290 m 2,0,1
 144 288 144 288 144 282 c 128,-1,2
 144 276 144 276 145 266 c 0,3,4
 147 228 147 228 152 201 c 128,-1,5
 157 174 157 174 164 158 c 0,6,7
 186 109 186 109 244 84 c 1,8,-1
 315 147 l 1,9,-1
 328 132 l 1,10,11
 310 115 310 115 290.5 97 c 128,-1,12
 271 79 271 79 249 60 c 0,13,14
 225 38 225 38 160 -20 c 1,15,16
 147 -6 147 -6 127 16.5 c 128,-1,17
 107 39 107 39 80 68 c 1,18,19
 45 115 45 115 36 196 c 0,20,21
 34 213 34 213 33 248 c 128,-1,22
 32 283 32 283 32 335 c 0,23,24
 32 414 32 414 46 447 c 0,25,26
 63 484 63 484 124 527 c 0,27,28
 175 564 175 564 213 602 c 1,29,30
 216 597 216 597 219 591.5 c 128,-1,31
 222 586 222 586 224 581 c 2,32,-1
 264 510 l 2,33,34
 269 502 269 502 280.5 484 c 128,-1,35
 292 466 292 466 309 440 c 2,36,-1
 322 419 l 1,37,-1
 143 290 l 2,0,1
223 374 m 1,38,-1
 214 390 l 1,39,-1
 179 447 l 1,40,-1
 143 509 l 1,41,42
 141 489 141 489 140 467.5 c 128,-1,43
 139 446 139 446 139 422 c 0,44,45
 139 397 139 397 139.5 371 c 128,-1,46
 140 345 140 345 141 317 c 1,47,-1
 223 374 l 1,38,-1
EndSplineSet
Validated: 1048577
EndChar

StartChar: f
Encoding: 102 102 69
Width: 251
GlyphClass: 1
Flags: W
LayerCount: 2
Fore
SplineSet
274 434 m 1,0,-1
 186 434 l 1,1,2
 186 432 186 432 185.5 427.5 c 128,-1,3
 185 423 185 423 184 415 c 0,4,5
 184 413 184 413 183.5 408.5 c 128,-1,6
 183 404 183 404 183 396 c 0,7,8
 182 381 182 381 182 361.5 c 128,-1,9
 182 342 182 342 181 319 c 0,10,11
 180 288 180 288 176 227 c 128,-1,12
 172 166 172 166 165 74 c 0,13,14
 160 10 160 10 153 -46.5 c 128,-1,15
 146 -103 146 -103 137 -152 c 2,16,-1
 133 -174 l 1,17,-1
 112 -174 l 1,18,19
 107 -131 107 -131 102.5 -92 c 128,-1,20
 98 -53 98 -53 95 -17 c 2,21,-1
 83 135 l 2,22,23
 78 207 78 207 73 281 c 128,-1,24
 68 355 68 355 63 434 c 1,25,-1
 -11 434 l 1,26,27
 38 485 38 485 49 524 c 0,28,29
 55 546 55 546 58 635 c 0,30,31
 63 808 63 808 159 808 c 0,32,33
 192 808 192 808 255 779 c 0,34,35
 273 771 273 771 280 771 c 0,36,37
 300 771 300 771 302 812 c 1,38,-1
 317 812 l 1,39,40
 318 797 318 797 318.5 787.5 c 128,-1,41
 319 778 319 778 319 774 c 0,42,43
 319 752 319 752 312.5 732.5 c 128,-1,44
 306 713 306 713 295 699 c 128,-1,45
 284 685 284 685 269 676.5 c 128,-1,46
 254 668 254 668 237 668 c 0,47,48
 203 668 203 668 164 687 c 2,49,-1
 132 702 l 2,50,51
 120 707 120 707 108 707 c 0,52,53
 80 707 80 707 80 665 c 0,54,55
 80 633 80 633 92 607 c 128,-1,56
 104 581 104 581 126 562.5 c 128,-1,57
 148 544 148 544 178 533.5 c 128,-1,58
 208 523 208 523 244 523 c 0,59,60
 245 523 245 523 252.5 523.5 c 128,-1,61
 260 524 260 524 274 525 c 1,62,-1
 274 434 l 1,0,-1
EndSplineSet
Validated: 1
EndChar

StartChar: g
Encoding: 103 103 70
Width: 451
GlyphClass: 1
Flags: W
LayerCount: 2
Fore
SplineSet
116 -16 m 1,0,1
 108 3 108 3 101 18.5 c 128,-1,2
 94 34 94 34 87 47 c 2,3,-1
 60 98 l 2,4,5
 20 174 20 174 20 243 c 0,6,7
 20 403 20 403 257 582 c 1,8,9
 333 501 333 501 439 452 c 1,10,11
 421 437 421 437 408.5 420.5 c 128,-1,12
 396 404 396 404 388.5 383.5 c 128,-1,13
 381 363 381 363 378 337.5 c 128,-1,14
 375 312 375 312 375 279 c 0,15,16
 375 215 375 215 387 175 c 2,17,-1
 410 99 l 2,18,19
 418 72 418 72 418 40 c 0,20,21
 418 -49 418 -49 353 -105 c 256,22,23
 288 -161 288 -161 197 -161 c 0,24,25
 144 -161 144 -161 102 -142 c 0,26,27
 45 -117 45 -117 45 -72 c 0,28,29
 45 -50 45 -50 61 -34 c 128,-1,30
 77 -18 77 -18 98 -18 c 0,31,32
 118 -18 118 -18 133.5 -33.5 c 128,-1,33
 149 -49 149 -49 149 -69 c 0,34,35
 149 -87 149 -87 135 -117 c 1,36,37
 169 -139 169 -139 211 -139 c 0,38,39
 260 -139 260 -139 298 -103 c 0,40,41
 337 -67 337 -67 337 -19 c 0,42,43
 337 20 337 20 270 138 c 1,44,-1
 116 -16 l 1,0,1
263 161 m 1,45,46
 256 190 256 190 256 218 c 0,47,48
 256 299 256 299 302 390 c 1,49,50
 276 406 276 406 248.5 426 c 128,-1,51
 221 446 221 446 192 471 c 2,52,-1
 178 483 l 1,53,54
 111 416 111 416 111 328 c 0,55,56
 111 245 111 245 201 97 c 1,57,-1
 263 161 l 1,45,46
EndSplineSet
Validated: 1
EndChar

StartChar: h
Encoding: 104 104 71
Width: 453
GlyphClass: 1
Flags: W
LayerCount: 2
Fore
SplineSet
357 592 m 1,0,1
 360 569 360 569 370.5 526.5 c 128,-1,2
 381 484 381 484 400 422 c 0,3,4
 433 315 433 315 433 263 c 0,5,6
 433 75 433 75 160 -160 c 1,7,-1
 143 -142 l 1,8,-1
 161 -125 l 2,9,10
 333 35 333 35 333 166 c 0,11,12
 333 216 333 216 309 300 c 0,13,14
 302 323 302 323 294 349.5 c 128,-1,15
 286 376 286 376 275 406 c 2,16,-1
 249 481 l 1,17,-1
 175 423 l 1,18,-1
 175 170 l 2,19,20
 175 141 175 141 185 125 c 0,21,22
 193 112 193 112 217 94 c 1,23,-1
 275 153 l 1,24,-1
 287 140 l 1,25,26
 278 128 278 128 276 126 c 2,27,-1
 213 62 l 2,28,29
 192 40 192 40 157 0 c 2,30,-1
 141 -19 l 1,31,32
 106 19 106 19 72.5 45 c 128,-1,33
 39 71 39 71 7 85 c 1,34,35
 46 110 46 110 55 129 c 0,36,37
 64 147 64 147 64 197 c 2,38,-1
 64 530 l 2,39,40
 64 609 64 609 56 647 c 0,41,42
 44 702 44 702 2 748 c 1,43,-1
 20 763 l 1,44,-1
 31 752 l 2,45,46
 60 723 60 723 92 668 c 1,47,48
 120 707 120 707 134 719 c 0,49,50
 162 744 162 744 215 760 c 0,51,52
 264 775 264 775 305 775 c 2,53,-1
 322 775 l 1,54,-1
 321 751 l 1,55,56
 283 751 283 751 256.5 740 c 128,-1,57
 230 729 230 729 213 705.5 c 128,-1,58
 196 682 196 682 187.5 644.5 c 128,-1,59
 179 607 179 607 178 553 c 2,60,-1
 176 450 l 1,61,-1
 357 592 l 1,0,1
EndSplineSet
Validated: 1
EndChar

StartChar: i
Encoding: 105 105 72
Width: 241
GlyphClass: 1
Flags: W
LayerCount: 2
Fore
SplineSet
254 110 m 1,0,1
 250 106 250 106 246 101.5 c 128,-1,2
 242 97 242 97 241 96 c 2,3,-1
 191 36 l 2,4,5
 185 29 185 29 176 19.5 c 128,-1,6
 167 10 167 10 156 -3 c 2,7,-1
 141 -20 l 1,8,9
 94 26 94 26 90 32 c 0,10,11
 63 65 63 65 63 98 c 2,12,-1
 63 445 l 1,13,-1
 38 469 l 1,14,-1
 7 433 l 1,15,-1
 -8 447 l 1,16,-1
 5 464 l 1,17,-1
 53 521 l 2,18,19
 65 533 65 533 103 577 c 2,20,-1
 115 591 l 1,21,22
 148 537 148 537 228 475 c 1,23,24
 211 467 211 467 200.5 459.5 c 128,-1,25
 190 452 190 452 184 443 c 128,-1,26
 178 434 178 434 176 421 c 128,-1,27
 174 408 174 408 174 390 c 2,28,-1
 174 160 l 2,29,30
 174 132 174 132 181 119 c 0,31,32
 189 102 189 102 210 89 c 1,33,-1
 238 123 l 1,34,-1
 254 110 l 1,0,1
115 612 m 1,35,36
 49 675 49 675 49 722 c 0,37,38
 49 749 49 749 68 766.5 c 128,-1,39
 87 784 87 784 116 784 c 256,40,41
 145 784 145 784 163.5 766.5 c 128,-1,42
 182 749 182 749 182 722 c 0,43,44
 182 675 182 675 115 612 c 1,35,36
EndSplineSet
Validated: 1
EndChar

StartChar: j
Encoding: 106 106 73
Width: 238
GlyphClass: 1
Flags: W
LayerCount: 2
Fore
SplineSet
209 -83 m 1,0,1
 198 -68 198 -68 190 -57 c 128,-1,2
 182 -46 182 -46 177 -38 c 2,3,-1
 163 -14 l 2,4,5
 162 -13 162 -13 160 -9.5 c 128,-1,6
 158 -6 158 -6 154 -1 c 1,7,8
 78 -123 78 -123 -29 -131 c 1,9,-1
 -34 -111 l 1,10,11
 22 -90 22 -90 48 -31 c 0,12,13
 66 9 66 9 66 152 c 2,14,-1
 66 431 l 1,15,-1
 31 471 l 1,16,-1
 -4 428 l 1,17,-1
 -21 443 l 1,18,-1
 -9 456 l 1,19,-1
 99 577 l 2,20,21
 101 579 101 579 103.5 582 c 128,-1,22
 106 585 106 585 110 589 c 1,23,-1
 121 574 l 2,24,25
 170 506 170 506 226 457 c 1,26,27
 191 434 191 434 184 421 c 256,28,29
 177 408 177 408 177 351 c 2,30,-1
 177 78 l 2,31,32
 177 -3 177 -3 226 -70 c 1,33,-1
 209 -83 l 1,0,1
110 612 m 1,34,35
 44 675 44 675 44 722 c 0,36,37
 44 749 44 749 62.5 766.5 c 128,-1,38
 81 784 81 784 110 784 c 256,39,40
 139 784 139 784 157.5 766.5 c 128,-1,41
 176 749 176 749 176 722 c 0,42,43
 176 673 176 673 110 612 c 1,34,35
EndSplineSet
Validated: 1
EndChar

StartChar: k
Encoding: 107 107 74
Width: 306
GlyphClass: 1
Flags: W
LayerCount: 2
Fore
SplineSet
312 489 m 1,0,-1
 312 404 l 1,1,-1
 177 404 l 1,2,-1
 177 168 l 2,3,4
 177 133 177 133 184 119 c 0,5,6
 188 112 188 112 195.5 103.5 c 128,-1,7
 203 95 203 95 216 85 c 2,8,-1
 230 74 l 1,9,-1
 295 134 l 1,10,-1
 307 122 l 1,11,-1
 294 109 l 2,12,13
 288 103 288 103 275.5 91.5 c 128,-1,14
 263 80 263 80 257 74 c 2,15,-1
 245 62 l 1,16,-1
 232 51 l 2,17,18
 226 43 226 43 196 15 c 2,19,-1
 156 -21 l 1,20,21
 99 47 99 47 11 99 c 1,22,23
 48 124 48 124 57 138 c 0,24,25
 66 153 66 153 66 194 c 2,26,-1
 66 404 l 1,27,-1
 4 404 l 1,28,29
 9 409 9 409 11 411.5 c 128,-1,30
 13 414 13 414 14 415 c 0,31,32
 51 458 51 458 58 486 c 0,33,34
 65 507 65 507 65 571 c 0,35,36
 65 674 65 674 -1 748 c 1,37,-1
 15 763 l 1,38,-1
 26 752 l 2,39,40
 55 723 55 723 87 668 c 1,41,42
 161 781 161 781 271 781 c 2,43,-1
 292 781 l 1,44,-1
 295 761 l 1,45,46
 184 750 184 750 171 607 c 1,47,-1
 248 696 l 1,48,49
 259 688 259 688 261 684 c 2,50,-1
 289 662 l 2,51,52
 323 635 323 635 323 594 c 0,53,54
 323 579 323 579 318 566 c 128,-1,55
 313 553 313 553 301 541 c 128,-1,56
 289 529 289 529 269 516.5 c 128,-1,57
 249 504 249 504 219 489 c 1,58,-1
 312 489 l 1,0,-1
171 482 m 1,59,60
 240 519 240 519 240 566 c 0,61,62
 240 610 240 610 205 610 c 0,63,64
 188 610 188 610 171 584 c 1,65,-1
 171 482 l 1,59,60
EndSplineSet
Validated: 1
EndChar

StartChar: l
Encoding: 108 108 75
Width: 266
GlyphClass: 1
Flags: W
LayerCount: 2
Fore
SplineSet
281 148 m 1,0,-1
 297 133 l 1,1,-1
 287 123 l 2,2,3
 209 45 209 45 160 -21 c 1,4,5
 100 48 100 48 15 92 c 1,6,7
 47 114 47 114 57 135 c 0,8,9
 64 150 64 150 64 195 c 2,10,-1
 64 530 l 2,11,12
 64 609 64 609 56 647 c 0,13,14
 44 702 44 702 2 748 c 1,15,-1
 20 763 l 1,16,-1
 31 752 l 2,17,18
 60 723 60 723 92 668 c 1,19,20
 166 781 166 781 275 781 c 2,21,-1
 296 781 l 1,22,-1
 299 761 l 1,23,24
 175 748 175 748 175 576 c 2,25,-1
 175 135 l 1,26,-1
 230 92 l 1,27,-1
 281 148 l 1,0,-1
EndSplineSet
Validated: 1
EndChar

StartChar: m
Encoding: 109 109 76
Width: 706
GlyphClass: 1
Flags: W
AnchorPoint: "top" 353 680 basechar 0
LayerCount: 2
Fore
SplineSet
-8 442 m 2,0,1
 -6 445 -6 445 -2.5 449.5 c 128,-1,2
 1 454 1 454 6 461 c 0,3,4
 14 470 14 470 26.5 484 c 128,-1,5
 39 498 39 498 55 517 c 2,6,-1
 94 568 l 2,7,8
 95 570 95 570 106 584 c 1,9,-1
 137 544 l 2,10,11
 176 494 176 494 178 445 c 1,12,13
 183 452 183 452 186.5 455.5 c 128,-1,14
 190 459 190 459 191 461 c 2,15,-1
 237 509 l 2,16,17
 239 511 239 511 250 524.5 c 128,-1,18
 261 538 261 538 281 564 c 0,19,20
 283 567 283 567 287.5 572 c 128,-1,21
 292 577 292 577 297 584 c 1,22,-1
 356 532 l 2,23,24
 390 500 390 500 398 487 c 0,25,26
 407 472 407 472 408 442 c 1,27,28
 427 462 427 462 442.5 480 c 128,-1,29
 458 498 458 498 471 515 c 2,30,-1
 515 571 l 2,31,32
 518 574 518 574 521 577 c 128,-1,33
 524 580 524 580 526 584 c 1,34,35
 571 544 571 544 612.5 513 c 128,-1,36
 654 482 654 482 692 459 c 1,37,38
 660 442 660 442 650 429 c 0,39,40
 638 412 638 412 638 380 c 2,41,-1
 638 160 l 2,42,43
 638 111 638 111 661 88 c 1,44,-1
 700 127 l 1,45,-1
 714 112 l 1,46,47
 710 109 710 109 680 78 c 128,-1,48
 650 47 650 47 593 -13 c 1,49,-1
 558 28 l 2,50,51
 527 65 527 65 527 78 c 2,52,-1
 527 429 l 1,53,-1
 467 478 l 1,54,-1
 408 411 l 1,55,-1
 408 167 l 2,56,57
 408 135 408 135 416 121 c 0,58,59
 420 112 420 112 450 88 c 1,60,61
 381 41 381 41 344 -13 c 1,62,63
 330 8 330 8 310 29.5 c 128,-1,64
 290 51 290 51 264 73 c 2,65,-1
 246 88 l 1,66,67
 279 107 279 107 287 118 c 0,68,69
 297 131 297 131 297 167 c 2,70,-1
 297 428 l 1,71,-1
 234 478 l 1,72,-1
 178 417 l 1,73,-1
 178 155 l 2,74,75
 178 131 178 131 182.5 121.5 c 128,-1,76
 187 112 187 112 204 98 c 0,77,78
 210 94 210 94 216 88 c 1,79,80
 147 31 147 31 116 -13 c 1,81,82
 72 56 72 56 17 88 c 1,83,84
 33 100 33 100 42 109 c 128,-1,85
 51 118 51 118 55 123 c 0,86,87
 67 139 67 139 67 171 c 2,88,-1
 67 404 l 2,89,90
 67 416 67 416 66 424 c 128,-1,91
 65 432 65 432 62 438.5 c 128,-1,92
 59 445 59 445 53 451.5 c 128,-1,93
 47 458 47 458 38 467 c 1,94,-1
 3 428 l 1,95,-1
 -8 442 l 2,0,1
EndSplineSet
Validated: 1048577
EndChar

StartChar: n
Encoding: 110 110 77
Width: 481
GlyphClass: 1
Flags: W
AnchorPoint: "top" 233 673 basechar 0
LayerCount: 2
Fore
SplineSet
-8 443 m 2,0,1
 -6 446 -6 446 -3.5 450.5 c 128,-1,2
 -1 455 -1 455 3 460 c 2,3,-1
 96 577 l 2,4,5
 100 581 100 581 108 592 c 1,6,-1
 151 538 l 2,7,8
 177 504 177 504 179 468 c 0,9,10
 179 466 179 466 179 461 c 128,-1,11
 179 456 179 456 180 448 c 1,12,-1
 193 463 l 2,13,14
 210 483 210 483 234 511 c 128,-1,15
 258 539 258 539 287 576 c 2,16,-1
 300 592 l 1,17,-1
 315 579 l 2,18,19
 331 565 331 565 362.5 539.5 c 128,-1,20
 394 514 394 514 443 476 c 2,21,-1
 467 459 l 1,22,23
 433 437 433 437 424 422 c 0,24,25
 412 405 412 405 412 370 c 2,26,-1
 412 154 l 2,27,28
 412 138 412 138 413 127.5 c 128,-1,29
 414 117 414 117 416.5 109.5 c 128,-1,30
 419 102 419 102 423.5 95.5 c 128,-1,31
 428 89 428 89 436 82 c 1,32,-1
 475 120 l 1,33,-1
 489 106 l 1,34,35
 481 99 481 99 465 83 c 128,-1,36
 449 67 449 67 426 42 c 2,37,-1
 368 -19 l 1,38,-1
 332 22 l 2,39,40
 310 47 310 47 305 57 c 0,41,42
 301 66 301 66 301 91 c 2,43,-1
 301 435 l 1,44,-1
 237 482 l 1,45,-1
 180 419 l 1,46,-1
 180 177 l 2,47,48
 180 147 180 147 193 128 c 0,49,50
 202 114 202 114 232 92 c 1,51,52
 178 60 178 60 127 -19 c 1,53,54
 86 51 86 51 22 92 c 1,55,56
 54 115 54 115 61 127 c 0,57,58
 69 141 69 141 69 177 c 2,59,-1
 69 411 l 2,60,61
 69 434 69 434 63 444 c 128,-1,62
 57 454 57 454 38 469 c 1,63,-1
 6 430 l 1,64,-1
 -8 443 l 2,0,1
EndSplineSet
Validated: 1048577
EndChar

StartChar: o
Encoding: 111 111 78
Width: 441
GlyphClass: 1
Flags: W
AnchorPoint: "umlaut" 220 720 basechar 0
AnchorPoint: "top" 220 680 basechar 0
LayerCount: 2
Fore
SplineSet
52 476 m 1,0,-1
 347 581 l 1,1,2
 357 540 357 540 380 477 c 0,3,4
 421 366 421 366 421 308 c 0,5,6
 421 236 421 236 379 172 c 0,7,8
 369 158 369 158 346.5 130.5 c 128,-1,9
 324 103 324 103 288 63 c 0,10,11
 270 43 270 43 252 22.5 c 128,-1,12
 234 2 234 2 217 -20 c 1,13,14
 131 40 131 40 7 91 c 1,15,-1
 52 134 l 1,16,-1
 52 476 l 1,0,-1
272 78 m 1,17,18
 333 166 333 166 333 230 c 0,19,20
 333 264 333 264 297 350 c 0,21,22
 254 449 254 449 237 516 c 1,23,-1
 163 490 l 1,24,-1
 163 134 l 1,25,-1
 272 78 l 1,17,18
EndSplineSet
Validated: 1
EndChar

StartChar: p
Encoding: 112 112 79
Width: 458
GlyphClass: 1
Flags: W
LayerCount: 2
Fore
SplineSet
343 594 m 1,0,1
 353 549 353 549 372 510 c 2,2,-1
 399 456 l 2,3,4
 437 378 437 378 437 318 c 0,5,6
 437 273 437 273 414 218 c 0,7,8
 407 202 407 202 390.5 175 c 128,-1,9
 374 148 374 148 346 108 c 0,10,11
 332 86 332 86 310 54.5 c 128,-1,12
 288 23 288 23 259 -19 c 1,13,14
 211 33 211 33 167 53 c 1,15,-1
 165 34 l 2,16,17
 164 26 164 26 162 11.5 c 128,-1,18
 160 -3 160 -3 157 -23 c 0,19,20
 143 -131 143 -131 133 -179 c 1,21,-1
 114 -179 l 1,22,23
 109 -141 109 -141 105 -113.5 c 128,-1,24
 101 -86 101 -86 99 -69 c 2,25,-1
 90 9 l 1,26,-1
 84 69 l 1,27,28
 72 72 72 72 65 72 c 0,29,30
 32 72 32 72 14 18 c 1,31,-1
 -3 20 l 1,32,-1
 4 96 l 2,33,34
 8 139 8 139 13 153 c 0,35,36
 25 184 25 184 55 184 c 0,37,38
 66 184 66 184 68 183 c 2,39,-1
 77 183 l 1,40,-1
 67 387 l 2,41,42
 66 409 66 409 43 454 c 0,43,44
 20 500 20 500 20 528 c 0,45,46
 20 600 20 600 102 649 c 1,47,-1
 114 631 l 1,48,49
 87 611 87 611 87 597 c 0,50,51
 87 582 87 582 126 545 c 0,52,53
 169 505 169 505 178 472 c 1,54,-1
 343 594 l 1,0,1
176 166 m 1,55,56
 249 141 249 141 309 91 c 1,57,58
 354 161 354 161 354 230 c 0,59,60
 354 270 354 270 327 323 c 2,61,-1
 285 406 l 1,62,-1
 254 474 l 2,63,64
 252 479 252 479 249.5 484 c 128,-1,65
 247 489 247 489 244 495 c 1,66,-1
 179 447 l 1,67,68
 182 388 182 388 182 347 c 0,69,70
 182 343 182 343 180.5 305.5 c 128,-1,71
 179 268 179 268 177 195 c 2,72,-1
 176 166 l 1,55,56
EndSplineSet
Validated: 1
EndChar

StartChar: q
Encoding: 113 113 80
Width: 433
GlyphClass: 1
Flags: W
LayerCount: 2
Fore
SplineSet
382 445 m 1,0,-1
 381 414 l 2,1,2
 379 355 379 355 372 195 c 0,3,4
 364 42 364 42 354 -37 c 0,5,6
 347 -105 347 -105 330 -179 c 1,7,-1
 311 -179 l 1,8,9
 299 -101 299 -101 293 -52 c 0,10,11
 291 -33 291 -33 289 -17 c 128,-1,12
 287 -1 287 -1 286 13 c 2,13,-1
 280 94 l 2,14,15
 279 96 279 96 279 99 c 0,16,17
 279 101 279 101 278.5 105 c 128,-1,18
 278 109 278 109 278 114 c 1,19,20
 269 105 269 105 264.5 100 c 128,-1,21
 260 95 260 95 259 94 c 2,22,-1
 204 39 l 1,23,-1
 156 -12 l 1,24,-1
 141 -27 l 1,25,-1
 134 -15 l 2,26,27
 117 12 117 12 104 36 c 2,28,-1
 58 117 l 2,29,30
 50 133 50 133 40 162 c 0,31,32
 20 224 20 224 20 273 c 0,33,34
 20 344 20 344 56 407 c 0,35,36
 70 431 70 431 92 458.5 c 128,-1,37
 114 486 114 486 145 517 c 0,38,39
 159 531 159 531 167.5 540.5 c 128,-1,40
 176 550 176 550 181 555 c 2,41,-1
 211 590 l 2,42,43
 213 592 213 592 215.5 595 c 128,-1,44
 218 598 218 598 222 603 c 1,45,46
 224 601 224 601 228.5 598 c 128,-1,47
 233 595 233 595 239 590 c 0,48,49
 274 564 274 564 299 546.5 c 128,-1,50
 324 529 324 529 339 519 c 0,51,52
 351 511 351 511 370.5 501.5 c 128,-1,53
 390 492 390 492 417 479 c 1,54,-1
 382 445 l 1,0,-1
161 501 m 1,55,56
 102 442 102 442 102 348 c 0,57,58
 102 312 102 312 110.5 275.5 c 128,-1,59
 119 239 119 239 134.5 205 c 128,-1,60
 150 171 150 171 172 141 c 128,-1,61
 194 111 194 111 221 87 c 1,62,-1
 276 139 l 1,63,64
 272 206 272 206 270.5 265.5 c 128,-1,65
 269 325 269 325 269 379 c 0,66,67
 269 396 269 396 269 408.5 c 128,-1,68
 269 421 269 421 270 429 c 1,69,-1
 161 501 l 1,55,56
EndSplineSet
Validated: 1
EndChar

StartChar: r
Encoding: 114 114 81
Width: 355
GlyphClass: 1
Flags: W
LayerCount: 2
Fore
SplineSet
182 129 m 1,0,-1
 238 82 l 1,1,-1
 306 143 l 1,2,-1
 318 129 l 1,3,4
 280 94 280 94 233 47 c 2,5,-1
 178 -8 l 2,6,7
 176 -10 176 -10 172.5 -13 c 128,-1,8
 169 -16 169 -16 165 -20 c 1,9,10
 133 18 133 18 97 47 c 128,-1,11
 61 76 61 76 23 96 c 1,12,13
 51 113 51 113 61 131 c 128,-1,14
 71 149 71 149 71 183 c 2,15,-1
 71 379 l 2,16,17
 71 446 71 446 27 466 c 1,18,-1
 -3 431 l 1,19,-1
 -18 445 l 1,20,21
 47 517 47 517 99 594 c 1,22,-1
 137 547 l 1,23,-1
 161 519 l 2,24,25
 179 498 179 498 182 452 c 1,26,27
 182 452 182 452 195 470 c 0,28,29
 211 490 211 490 220 503.5 c 128,-1,30
 229 517 229 517 233 523 c 2,31,-1
 267 577 l 2,32,33
 269 581 269 581 272 585 c 128,-1,34
 275 589 275 589 277 594 c 1,35,-1
 352 485 l 1,36,-1
 277 369 l 1,37,38
 263 396 263 396 248.5 420 c 128,-1,39
 234 444 234 444 218 466 c 1,40,-1
 182 421 l 1,41,-1
 182 129 l 1,0,-1
EndSplineSet
Validated: 1
EndChar

StartChar: s
Encoding: 115 115 82
Width: 428
GlyphClass: 1
Flags: W
LayerCount: 2
Fore
SplineSet
117 611 m 1,0,1
 166 726 166 726 269 726 c 0,2,3
 328 726 328 726 371 689 c 0,4,5
 414 653 414 653 414 595 c 0,6,7
 414 542 414 542 376 504 c 0,8,9
 339 467 339 467 284 467 c 0,10,11
 226 467 226 467 164 529 c 0,12,13
 161 530 161 530 158 535 c 1,14,15
 132 518 132 518 132 487 c 0,16,17
 132 471 132 471 139 450 c 2,18,-1
 168 357 l 1,19,-1
 342 450 l 1,20,21
 346 437 346 437 350.5 424.5 c 128,-1,22
 355 412 355 412 362 400 c 2,23,-1
 385 358 l 2,24,25
 412 308 412 308 412 253 c 0,26,27
 412 180 412 180 369 116 c 256,28,29
 326 52 326 52 261 16 c 2,30,-1
 205 -14 l 2,31,32
 199 -18 199 -18 189 -23 c 1,33,34
 171 12 171 12 150 27 c 2,35,-1
 112 54 l 2,36,37
 17 122 17 122 17 190 c 0,38,39
 17 236 17 236 68 295 c 1,40,-1
 22 450 l 1,41,42
 26 452 26 452 36 462 c 2,43,-1
 96 516 l 2,44,45
 102 521 102 521 133.5 544 c 128,-1,46
 165 567 165 567 223 609 c 2,47,-1
 244 624 l 1,48,49
 252 587 252 587 274.5 564 c 128,-1,50
 297 541 297 541 326 541 c 0,51,52
 351 541 351 541 370 560.5 c 128,-1,53
 389 580 389 580 389 606 c 0,54,55
 389 650 389 650 351 679 c 256,56,57
 313 708 313 708 269 708 c 0,58,59
 223 708 223 708 192.5 684.5 c 128,-1,60
 162 661 162 661 135 604 c 1,61,-1
 117 611 l 1,0,1
244 32 m 1,62,63
 315 80 315 80 315 178 c 0,64,65
 315 235 315 235 283 285 c 0,66,67
 247 341 247 341 193 341 c 0,68,69
 156 341 156 341 122 316 c 0,70,71
 84 289 84 289 84 254 c 0,72,73
 84 215 84 215 133 181 c 2,74,-1
 149 170 l 2,75,76
 200 135 200 135 217 114 c 0,77,78
 244 81 244 81 244 32 c 1,62,63
EndSplineSet
Validated: 1
EndChar

StartChar: t
Encoding: 116 116 83
Width: 289
GlyphClass: 1
Flags: W
LayerCount: 2
Fore
SplineSet
289 525 m 1,0,-1
 289 435 l 1,1,-1
 179 435 l 1,2,-1
 179 118 l 1,3,-1
 229 81 l 1,4,-1
 287 140 l 1,5,-1
 301 127 l 1,6,7
 299 125 299 125 296 121.5 c 128,-1,8
 293 118 293 118 289 113 c 2,9,-1
 228 51 l 1,10,-1
 159 -20 l 1,11,12
 84 52 84 52 21 95 c 1,13,14
 50 116 50 116 56 124 c 0,15,16
 68 140 68 140 68 166 c 2,17,-1
 68 435 l 1,18,-1
 -8 435 l 1,19,20
 31 470 31 470 61 502 c 128,-1,21
 91 534 91 534 112 562 c 0,22,23
 162 628 162 628 191 717 c 1,24,-1
 213 718 l 1,25,26
 200 673 200 673 191.5 625 c 128,-1,27
 183 577 183 577 178 525 c 1,28,-1
 289 525 l 1,0,-1
EndSplineSet
Validated: 1
EndChar

StartChar: u
Encoding: 117 117 84
Width: 486
GlyphClass: 1
Flags: W
AnchorPoint: "umlaut" 233 700 basechar 0
AnchorPoint: "top" 260 680 basechar 0
LayerCount: 2
Fore
SplineSet
497 127 m 1,0,-1
 486 114 l 1,1,-1
 435 51 l 2,2,3
 427 42 427 42 412.5 24.5 c 128,-1,4
 398 7 398 7 375 -19 c 1,5,-1
 334 39 l 2,6,7
 304 82 304 82 304 127 c 1,8,9
 269 99 269 99 233.5 63 c 128,-1,10
 198 27 198 27 163 -19 c 1,11,12
 152 -8 152 -8 134.5 9.5 c 128,-1,13
 117 27 117 27 92 50 c 0,14,15
 66 72 66 72 20 113 c 1,16,17
 49 125 49 125 58.5 137 c 128,-1,18
 68 149 68 149 68 179 c 2,19,-1
 68 441 l 1,20,-1
 34 474 l 1,21,-1
 4 441 l 1,22,-1
 -8 454 l 2,23,24
 -6 456 -6 456 -4 459 c 128,-1,25
 -2 462 -2 462 1 467 c 2,26,-1
 48 522 l 2,27,28
 53 527 53 527 64.5 542 c 128,-1,29
 76 557 76 557 93 580 c 0,30,31
 96 584 96 584 102 592 c 1,32,-1
 132 554 l 1,33,-1
 160 521 l 2,34,35
 179 499 179 499 179 454 c 2,36,-1
 179 133 l 1,37,-1
 231 88 l 1,38,-1
 304 155 l 1,39,-1
 304 398 l 2,40,41
 304 437 304 437 258 467 c 1,42,43
 323 524 323 524 356 592 c 1,44,45
 401 516 401 516 468 474 c 1,46,47
 435 455 435 455 424 438 c 0,48,49
 415 421 415 421 415 381 c 2,50,-1
 415 164 l 2,51,52
 415 137 415 137 420 123 c 128,-1,53
 425 109 425 109 444 94 c 1,54,-1
 482 140 l 1,55,-1
 497 127 l 1,0,-1
EndSplineSet
Validated: 1
EndChar

StartChar: v
Encoding: 118 118 85
Width: 451
GlyphClass: 1
Flags: W
LayerCount: 2
Fore
SplineSet
327 602 m 1,0,1
 337 574 337 574 352.5 538.5 c 128,-1,2
 368 503 368 503 391 459 c 0,3,4
 431 383 431 383 431 331 c 0,5,6
 431 239 431 239 337 115 c 0,7,8
 267 22 267 22 219 -21 c 1,9,-1
 201 -6 l 2,10,11
 109 69 109 69 12 93 c 1,12,13
 64 130 64 130 64 191 c 2,14,-1
 64 337 l 2,15,16
 64 399 64 399 47 436 c 0,17,18
 22 487 22 487 22 519 c 0,19,20
 22 599 22 599 118 631 c 1,21,-1
 128 618 l 1,22,23
 94 600 94 600 94 579 c 0,24,25
 94 564 94 564 105 553 c 2,26,-1
 130 528 l 2,27,28
 154 504 154 504 170 450 c 1,29,-1
 327 602 l 1,0,1
281 75 m 1,30,31
 348 157 348 157 348 237 c 0,32,33
 348 298 348 298 316 354 c 2,34,-1
 280 417 l 2,35,36
 275 430 275 430 250 473 c 2,37,-1
 240 491 l 1,38,-1
 175 428 l 1,39,-1
 175 140 l 1,40,-1
 281 75 l 1,30,31
EndSplineSet
Validated: 1
EndChar

StartChar: w
Encoding: 119 119 86
Width: 681
GlyphClass: 1
Flags: W
LayerCount: 2
Fore
SplineSet
133 632 m 1,0,1
 91 614 91 614 91 586 c 0,2,3
 91 571 91 571 126 533 c 0,4,5
 164 490 164 490 173 451 c 1,6,-1
 306 606 l 1,7,-1
 356 559 l 2,8,9
 402 515 402 515 413 463 c 1,10,-1
 544 606 l 1,11,12
 551 590 551 590 552 590 c 2,13,-1
 579 540 l 2,14,15
 591 518 591 518 606 488 c 128,-1,16
 621 458 621 458 640 420 c 1,17,18
 661 363 661 363 661 316 c 0,19,20
 661 205 661 205 565 106 c 2,21,-1
 510 49 l 2,22,23
 498 36 498 36 485 22 c 128,-1,24
 472 8 472 8 458 -8 c 2,25,-1
 447 -21 l 1,26,27
 343 61 343 61 261 90 c 1,28,29
 288 105 288 105 296.5 121 c 128,-1,30
 305 137 305 137 305 169 c 2,31,-1
 305 403 l 2,32,33
 305 430 305 430 261 469 c 2,34,-1
 234 493 l 1,35,-1
 178 425 l 1,36,-1
 178 170 l 2,37,38
 178 142 178 142 188.5 125.5 c 128,-1,39
 199 109 199 109 228 90 c 1,40,41
 167 61 167 61 121 -13 c 1,42,43
 86 49 86 49 15 95 c 1,44,45
 67 128 67 128 67 180 c 2,46,-1
 67 359 l 2,47,48
 67 394 67 394 52 423 c 0,49,50
 20 484 20 484 20 522 c 0,51,52
 20 612 20 612 124 644 c 1,53,-1
 133 632 l 1,0,1
510 82 m 1,54,55
 580 155 580 155 580 236 c 0,56,57
 580 296 580 296 511 418 c 2,58,-1
 479 474 l 2,59,60
 477 479 477 479 468 493 c 1,61,-1
 416 437 l 1,62,-1
 416 144 l 1,63,-1
 510 82 l 1,54,55
EndSplineSet
Validated: 1
EndChar

StartChar: x
Encoding: 120 120 87
Width: 377
GlyphClass: 1
Flags: W
LayerCount: 2
Fore
SplineSet
263 79 m 1,0,-1
 335 152 l 1,1,-1
 350 138 l 1,2,3
 337 127 337 127 319 108 c 128,-1,4
 301 89 301 89 276 63 c 2,5,-1
 197 -21 l 1,6,7
 123 47 123 47 73 47 c 0,8,9
 43 47 43 47 24 26.5 c 128,-1,10
 5 6 5 6 5 -24 c 0,11,12
 5 -48 5 -48 15.5 -68.5 c 128,-1,13
 26 -89 26 -89 44 -104 c 128,-1,14
 62 -119 62 -119 86.5 -127.5 c 128,-1,15
 111 -136 111 -136 140 -136 c 0,16,17
 163 -136 163 -136 186 -124 c 1,18,19
 164 -103 164 -103 164 -82 c 0,20,21
 164 -60 164 -60 179 -45.5 c 128,-1,22
 194 -31 194 -31 217 -31 c 0,23,24
 266 -31 266 -31 266 -81 c 0,25,26
 266 -115 266 -115 233 -136.5 c 128,-1,27
 200 -158 200 -158 146 -158 c 0,28,29
 79 -158 79 -158 33 -119 c 0,30,31
 -15 -77 -15 -77 -15 -11 c 0,32,33
 -15 34 -15 34 10 77 c 0,34,35
 36 122 36 122 75 139 c 1,36,-1
 75 347 l 2,37,38
 75 400 75 400 71 417 c 0,39,40
 64 452 64 452 34 472 c 1,41,-1
 -5 427 l 1,42,-1
 -18 440 l 1,43,44
 -16 442 -16 442 -13 445.5 c 128,-1,45
 -10 449 -10 449 -6 454 c 2,46,-1
 43 509 l 2,47,48
 50 516 50 516 65 534.5 c 128,-1,49
 80 553 80 553 104 582 c 1,50,-1
 144 536 l 2,51,52
 171 504 171 504 176 493 c 0,53,54
 183 482 183 482 186 450 c 1,55,-1
 313 590 l 1,56,57
 334 525 334 525 374 460 c 1,58,59
 355 441 355 441 333.5 417 c 128,-1,60
 312 393 312 393 287 363 c 1,61,62
 265 423 265 423 229 464 c 1,63,-1
 186 418 l 1,64,-1
 186 128 l 1,65,-1
 263 79 l 1,0,-1
EndSplineSet
Validated: 1
EndChar

StartChar: y
Encoding: 121 121 88
Width: 451
GlyphClass: 1
Flags: W
LayerCount: 2
Fore
SplineSet
354 608 m 1,0,-1
 359 588 l 2,1,2
 361 579 361 579 365 564 c 128,-1,3
 369 549 369 549 374 529 c 2,4,-1
 394 466 l 2,5,6
 425 370 425 370 425 284 c 0,7,8
 425 245 425 245 418 209 c 128,-1,9
 411 173 411 173 395.5 137 c 128,-1,10
 380 101 380 101 356 63 c 128,-1,11
 332 25 332 25 298 -17 c 0,12,13
 233 -98 233 -98 143 -175 c 1,14,-1
 128 -160 l 1,15,16
 213 -82 213 -82 269 8 c 0,17,18
 334 117 334 117 334 214 c 0,19,20
 334 276 334 276 306 356 c 0,21,22
 280 429 280 429 243 488 c 1,23,-1
 176 432 l 1,24,-1
 176 119 l 1,25,-1
 207 92 l 1,26,-1
 250 147 l 1,27,-1
 267 134 l 2,28,29
 265 131 265 131 262.5 127 c 128,-1,30
 260 123 260 123 256 118 c 2,31,-1
 210 58 l 2,32,33
 205 52 205 52 193.5 35.5 c 128,-1,34
 182 19 182 19 162 -7 c 2,35,-1
 152 -21 l 1,36,37
 74 58 74 58 20 90 c 1,38,39
 53 108 53 108 60 127 c 0,40,41
 65 140 65 140 65 173 c 2,42,-1
 66 383 l 2,43,44
 66 407 66 407 43 455 c 0,45,46
 21 500 21 500 21 527 c 0,47,48
 21 598 21 598 103 661 c 1,49,-1
 118 648 l 1,50,51
 87 617 87 617 87 593 c 0,52,53
 87 578 87 578 97 568 c 2,54,-1
 124 544 l 2,55,56
 163 510 163 510 176 459 c 1,57,-1
 354 608 l 1,0,-1
EndSplineSet
Validated: 1
EndChar

StartChar: z
Encoding: 122 122 89
Width: 294
GlyphClass: 1
Flags: W
LayerCount: 2
Fore
SplineSet
297 289 m 1,0,1
 285 284 285 284 285 284 c 1,2,-1
 256 269 l 2,3,4
 244 262 244 262 233 256 c 128,-1,5
 222 250 222 250 212 244 c 1,6,7
 258 165 258 165 258 85 c 0,8,9
 258 3 258 3 224 -66 c 0,10,11
 180 -155 180 -155 109 -155 c 0,12,13
 66 -155 66 -155 39 -114 c 128,-1,14
 12 -73 12 -73 12 -7 c 0,15,16
 12 107 12 107 104 187 c 1,17,18
 68 233 68 233 0 244 c 1,19,20
 64 270 64 270 92 293 c 0,21,22
 138 330 138 330 138 381 c 0,23,24
 138 407 138 407 124.5 428 c 128,-1,25
 111 449 111 449 72 482 c 1,26,-1
 26 432 l 1,27,-1
 10 446 l 1,28,29
 13 449 13 449 16.5 453 c 128,-1,30
 20 457 20 457 25 462 c 2,31,-1
 79 522 l 2,32,33
 85 529 85 529 124 576 c 2,34,-1
 138 593 l 1,35,36
 148 582 148 582 157 572 c 128,-1,37
 166 562 166 562 175 554 c 0,38,39
 192 537 192 537 202.5 526.5 c 128,-1,40
 213 516 213 516 217 511 c 0,41,42
 239 483 239 483 239 456 c 0,43,44
 239 424 239 424 218 394.5 c 128,-1,45
 197 365 197 365 143 323 c 1,46,47
 180 294 180 294 202 260 c 1,48,49
 227 275 227 275 248 287 c 128,-1,50
 269 299 269 299 288 307 c 1,51,-1
 297 289 l 1,0,1
116 172 m 1,52,53
 31 96 31 96 31 -9 c 0,54,55
 31 -35 31 -35 37 -58 c 128,-1,56
 43 -81 43 -81 53 -98 c 128,-1,57
 63 -115 63 -115 77 -125 c 128,-1,58
 91 -135 91 -135 107 -135 c 0,59,60
 175 -135 175 -135 175 -11 c 0,61,62
 175 104 175 104 116 172 c 1,52,53
EndSplineSet
Validated: 1
EndChar

StartChar: longs_c_h
Encoding: 62714 62714 90
Width: 954
GlyphClass: 1
Flags: W
LayerCount: 2
Fore
SplineSet
-18 434 m 1,0,1
 27 458 27 458 47 511 c 0,2,3
 58 542 58 542 66 615 c 0,4,5
 83 773 83 773 189 773 c 0,6,7
 218 773 218 773 276 750 c 0,8,9
 289 743 289 743 300 743 c 0,10,11
 322 743 322 743 322 774 c 0,12,13
 322 783 322 783 321 785 c 1,14,-1
 338 785 l 1,15,16
 342 766 342 766 342 739 c 0,17,18
 342 699 342 699 314 671.5 c 128,-1,19
 286 644 286 644 246 644 c 0,20,21
 224 644 224 644 179 661 c 256,22,23
 134 678 134 678 117 678 c 0,24,25
 91 678 91 678 91 647 c 0,26,27
 91 623 91 623 108 601 c 2,28,-1
 139 563 l 2,29,30
 184 507 184 507 184 416 c 0,31,32
 184 309 184 309 175 188 c 2,33,-1
 161 0 l 2,34,35
 156 -58 156 -58 152 -97 c 128,-1,36
 148 -136 148 -136 144 -158 c 0,37,38
 144 -164 144 -164 138 -185 c 1,39,-1
 119 -185 l 1,40,-1
 115 -163 l 2,41,42
 110 -139 110 -139 105.5 -98.5 c 128,-1,43
 101 -58 101 -58 96 0 c 2,44,-1
 82 164 l 2,45,46
 80 195 80 195 77 234 c 128,-1,47
 74 273 74 273 70 321 c 2,48,-1
 62 434 l 1,49,-1
 -18 434 l 1,0,1
469 417 m 1,50,-1
 384 520 l 1,51,52
 382 505 382 505 381 485 c 128,-1,53
 380 465 380 465 379 439 c 0,54,55
 378 402 378 402 377.5 373 c 128,-1,56
 377 344 377 344 377 324 c 0,57,58
 377 221 377 221 381 204 c 0,59,60
 390 159 390 159 438 103 c 2,61,-1
 452 87 l 1,62,-1
 564 175 l 1,63,-1
 564 464 l 2,64,65
 564 502 564 502 564 524.5 c 128,-1,66
 564 547 564 547 563 552 c 0,67,68
 560 582 560 582 556 604 c 128,-1,69
 552 626 552 626 545.5 643.5 c 128,-1,70
 539 661 539 661 529.5 675.5 c 128,-1,71
 520 690 520 690 505 705 c 1,72,-1
 523 719 l 1,73,74
 553 685 553 685 576 646 c 1,75,76
 590 676 590 676 613 699.5 c 128,-1,77
 636 723 636 723 666 740 c 128,-1,78
 696 757 696 757 731.5 766 c 128,-1,79
 767 775 767 775 805 775 c 2,80,-1
 822 775 l 1,81,-1
 821 751 l 1,82,83
 783 751 783 751 756.5 740 c 128,-1,84
 730 729 730 729 713 705.5 c 128,-1,85
 696 682 696 682 687.5 644.5 c 128,-1,86
 679 607 679 607 678 553 c 2,87,-1
 676 450 l 1,88,-1
 857 592 l 1,89,90
 863 542 863 542 900 420 c 0,91,92
 933 310 933 310 933 263 c 0,93,94
 933 75 933 75 660 -160 c 1,95,-1
 643 -142 l 1,96,-1
 661 -125 l 2,97,98
 833 35 833 35 833 166 c 0,99,100
 833 241 833 241 775 406 c 2,101,-1
 749 481 l 1,102,-1
 675 423 l 1,103,-1
 675 170 l 2,104,105
 675 141 675 141 685 125 c 0,106,107
 693 112 693 112 717 94 c 1,108,-1
 775 153 l 1,109,-1
 787 140 l 1,110,111
 778 128 778 128 776 126 c 2,112,-1
 713 62 l 2,113,114
 692 40 692 40 657 0 c 2,115,-1
 641 -19 l 1,116,-1
 625 -3 l 1,117,-1
 581 42 l 2,118,119
 580 43 580 43 575 48.5 c 128,-1,120
 570 54 570 54 560 65 c 1,121,122
 563 96 563 96 563 108 c 2,123,-1
 563 147 l 1,124,-1
 545 132 l 1,125,-1
 526 118 l 2,126,127
 487 89 487 89 418 19 c 0,128,129
 413 14 413 14 402.5 3.5 c 128,-1,130
 392 -7 392 -7 376 -21 c 1,131,132
 360 7 360 7 338 35 c 256,133,134
 316 63 316 63 303 80.5 c 128,-1,135
 290 98 290 98 286 106 c 0,136,137
 263 147 263 147 263 188 c 0,138,139
 263 217 263 217 264 249.5 c 128,-1,140
 265 282 265 282 267 320 c 2,141,-1
 270 380 l 2,142,143
 273 434 273 434 289 459 c 0,144,145
 294 467 294 467 309 482 c 128,-1,146
 324 497 324 497 349 517 c 0,147,148
 369 534 369 534 397.5 554.5 c 128,-1,149
 426 575 426 575 463 599 c 1,150,-1
 555 483 l 1,151,-1
 469 417 l 1,50,-1
EndSplineSet
Validated: 1
Ligature2: "'ccmp' Glyphen-Zusammensetzung/Zerlegung in Lateinisch Nachschlagetabelle 0-1" longs c h
EndChar

StartChar: longs_t
Encoding: 64261 64261 91
Width: 467
GlyphClass: 1
Flags: W
LayerCount: 2
Fore
SplineSet
467 525 m 1,0,-1
 467 435 l 1,1,-1
 357 435 l 1,2,-1
 357 118 l 1,3,-1
 407 81 l 1,4,-1
 465 140 l 1,5,-1
 479 127 l 1,6,7
 477 125 477 125 474 121.5 c 128,-1,8
 471 118 471 118 467 113 c 2,9,-1
 406 51 l 1,10,-1
 337 -20 l 1,11,12
 299 16 299 16 264.5 44.5 c 128,-1,13
 230 73 230 73 199 95 c 1,14,15
 228 116 228 116 234 124 c 0,16,17
 246 140 246 140 246 166 c 2,18,-1
 246 435 l 1,19,-1
 184 435 l 1,20,-1
 184 416 l 2,21,22
 184 309 184 309 175 188 c 2,23,-1
 161 0 l 2,24,25
 156 -58 156 -58 152 -97 c 128,-1,26
 148 -136 148 -136 144 -158 c 0,27,28
 144 -164 144 -164 138 -185 c 1,29,-1
 119 -185 l 1,30,-1
 115 -163 l 2,31,32
 110 -139 110 -139 105.5 -98.5 c 128,-1,33
 101 -58 101 -58 96 0 c 2,34,-1
 82 164 l 2,35,36
 80 195 80 195 77 234 c 128,-1,37
 74 273 74 273 70 321 c 2,38,-1
 62 434 l 1,39,-1
 -18 434 l 1,40,41
 27 458 27 458 47 511 c 0,42,43
 58 542 58 542 66 615 c 0,44,45
 83 773 83 773 189 773 c 0,46,47
 218 773 218 773 276 750 c 0,48,49
 289 743 289 743 300 743 c 0,50,51
 322 743 322 743 322 774 c 0,52,53
 322 783 322 783 321 785 c 1,54,-1
 338 785 l 1,55,56
 342 766 342 766 342 739 c 0,57,58
 342 699 342 699 314 671.5 c 128,-1,59
 286 644 286 644 246 644 c 0,60,61
 224 644 224 644 179 661 c 256,62,63
 134 678 134 678 117 678 c 0,64,65
 91 678 91 678 91 647 c 0,66,67
 91 623 91 623 108 601 c 2,68,-1
 139 563 l 2,69,70
 148 552 148 552 155.5 543 c 128,-1,71
 163 534 163 534 168.5 524 c 128,-1,72
 174 514 174 514 177.5 502 c 128,-1,73
 181 490 181 490 183 472 c 1,74,75
 199 474 199 474 215 484.5 c 128,-1,76
 231 495 231 495 245.5 509 c 128,-1,77
 260 523 260 523 272.5 539 c 128,-1,78
 285 555 285 555 295 569 c 0,79,80
 343 635 343 635 369 717 c 1,81,-1
 391 718 l 1,82,83
 378 673 378 673 369.5 625 c 128,-1,84
 361 577 361 577 356 525 c 1,85,-1
 467 525 l 1,0,-1
EndSplineSet
Validated: 1
Ligature2: "'ccmp' Glyphen-Zusammensetzung/Zerlegung in Lateinisch Nachschlagetabelle 0-1" longs t
EndChar

StartChar: longs_longs
Encoding: 60326 60326 92
Width: 476
GlyphClass: 1
Flags: W
LayerCount: 2
Fore
SplineSet
220 434 m 1,0,1
 266 458 266 458 286 511 c 0,2,3
 297 542 297 542 305 615 c 0,4,5
 307 631 307 631 309 645.5 c 128,-1,6
 311 660 311 660 315 673 c 1,7,8
 286 644 286 644 246 644 c 0,9,10
 224 644 224 644 179 661 c 256,11,12
 134 678 134 678 117 678 c 0,13,14
 91 678 91 678 91 647 c 0,15,16
 91 623 91 623 108 601 c 2,17,-1
 139 563 l 2,18,19
 184 507 184 507 184 416 c 0,20,21
 184 309 184 309 175 188 c 2,22,-1
 161 0 l 2,23,24
 156 -58 156 -58 152 -97 c 128,-1,25
 148 -136 148 -136 144 -158 c 0,26,27
 144 -164 144 -164 138 -185 c 1,28,-1
 119 -185 l 1,29,-1
 115 -163 l 2,30,31
 110 -139 110 -139 105.5 -98.5 c 128,-1,32
 101 -58 101 -58 96 0 c 2,33,-1
 82 164 l 2,34,35
 80 195 80 195 77 234 c 128,-1,36
 74 273 74 273 70 321 c 2,37,-1
 62 434 l 1,38,-1
 -18 434 l 1,39,40
 27 458 27 458 47 511 c 0,41,42
 58 542 58 542 66 615 c 0,43,44
 83 773 83 773 189 773 c 0,45,46
 218 773 218 773 276 750 c 0,47,48
 289 743 289 743 300 743 c 0,49,50
 322 743 322 743 322 774 c 0,51,52
 322 783 322 783 321 785 c 1,53,-1
 338 785 l 1,54,55
 342 766 342 766 342 739 c 2,56,-1
 342 730 l 1,57,58
 376 773 376 773 428 773 c 0,59,60
 457 773 457 773 515 750 c 0,61,62
 528 743 528 743 539 743 c 0,63,64
 561 743 561 743 561 774 c 0,65,66
 561 783 561 783 560 785 c 1,67,-1
 577 785 l 1,68,69
 581 766 581 766 581 739 c 0,70,71
 581 699 581 699 553 671.5 c 128,-1,72
 525 644 525 644 485 644 c 0,73,74
 463 644 463 644 418 661 c 256,75,76
 373 678 373 678 356 678 c 0,77,78
 330 678 330 678 330 647 c 0,79,80
 330 623 330 623 347 601 c 2,81,-1
 378 563 l 2,82,83
 423 507 423 507 423 416 c 0,84,85
 423 309 423 309 414 188 c 2,86,-1
 400 0 l 2,87,88
 395 -58 395 -58 391 -97 c 128,-1,89
 387 -136 387 -136 383 -158 c 0,90,91
 383 -164 383 -164 377 -185 c 1,92,-1
 358 -185 l 1,93,-1
 354 -163 l 2,94,95
 349 -139 349 -139 344.5 -98.5 c 128,-1,96
 340 -58 340 -58 335 0 c 2,97,-1
 321 164 l 2,98,99
 319 195 319 195 316 234 c 128,-1,100
 313 273 313 273 309 321 c 2,101,-1
 301 434 l 1,102,-1
 220 434 l 1,0,1
EndSplineSet
Validated: 1
Ligature2: "'ccmp' Glyphen-Zusammensetzung/Zerlegung in Lateinisch Nachschlagetabelle 0-1" longs longs
EndChar

StartChar: Euro
Encoding: 8364 8364 93
Width: 562
GlyphClass: 1
Flags: W
LayerCount: 2
Fore
SplineSet
516 570 m 1,0,1
 493 581 493 581 467 587 c 128,-1,2
 441 593 441 593 415 593 c 0,3,4
 377 593 377 593 346.5 580 c 128,-1,5
 316 567 316 567 293.5 544.5 c 128,-1,6
 271 522 271 522 255.5 491.5 c 128,-1,7
 240 461 240 461 231 427 c 1,8,-1
 488 427 l 1,9,-1
 475 372 l 1,10,-1
 220 372 l 1,11,12
 219 362 219 362 218.5 352.5 c 128,-1,13
 218 343 218 343 218 333 c 256,14,15
 218 323 218 323 218.5 313.5 c 128,-1,16
 219 304 219 304 220 294 c 1,17,-1
 460 294 l 1,18,-1
 448 239 l 1,19,-1
 231 239 l 1,20,21
 239 205 239 205 254 175 c 128,-1,22
 269 145 269 145 292 123 c 128,-1,23
 315 101 315 101 345.5 88 c 128,-1,24
 376 75 376 75 414 75 c 0,25,26
 440 75 440 75 467 80 c 128,-1,27
 494 85 494 85 517 97 c 1,28,-1
 523 12 l 1,29,30
 497 -2 497 -2 464 -6.5 c 128,-1,31
 431 -11 431 -11 402 -11 c 0,32,33
 344 -11 344 -11 296 7.5 c 128,-1,34
 248 26 248 26 212 59 c 128,-1,35
 176 92 176 92 152.5 138 c 128,-1,36
 129 184 129 184 119 239 c 1,37,-1
 30 239 l 1,38,-1
 43 294 l 1,39,-1
 112 294 l 1,40,41
 111 304 111 304 110.5 314 c 128,-1,42
 110 324 110 324 110 334 c 0,43,44
 110 343 110 343 110.5 353 c 128,-1,45
 111 363 111 363 112 372 c 1,46,-1
 31 372 l 1,47,-1
 44 427 l 1,48,-1
 120 427 l 1,49,50
 131 479 131 479 155.5 525 c 128,-1,51
 180 571 180 571 216 604.5 c 128,-1,52
 252 638 252 638 299 657.5 c 128,-1,53
 346 677 346 677 402 677 c 0,54,55
 434 677 434 677 469.5 670.5 c 128,-1,56
 505 664 505 664 535 651 c 1,57,-1
 516 570 l 1,0,1
EndSplineSet
Validated: 1
EndChar

StartChar: quotesinglbase
Encoding: 8218 8218 94
Width: 177
GlyphClass: 1
Flags: W
LayerCount: 2
Fore
SplineSet
15 78 m 2,0,1
 17 80 17 80 20 83.5 c 128,-1,2
 23 87 23 87 27 91 c 2,3,-1
 64 127 l 1,4,-1
 105 170 l 1,5,-1
 113 158 l 2,6,7
 157 91 157 91 157 43 c 0,8,9
 157 -35 157 -35 69 -114 c 1,10,-1
 57 -104 l 1,11,12
 95 -57 95 -57 95 -15 c 0,13,14
 95 35 95 35 47 82 c 1,15,-1
 28 64 l 1,16,-1
 15 78 l 2,0,1
EndSplineSet
Validated: 1
EndChar

StartChar: florin
Encoding: 402 402 95
Width: 500
GlyphClass: 1
Flags: W
LayerCount: 2
Fore
SplineSet
424 556 m 1,0,1
 411 580 411 580 366 631 c 1,2,3
 349 601 349 601 329 511 c 2,4,-1
 290 331 l 1,5,-1
 364 331 l 1,6,-1
 378 343 l 1,7,-1
 402 327 l 1,8,-1
 351 272 l 1,9,-1
 278 272 l 1,10,-1
 229 38 l 2,11,12
 200 -93 200 -93 129 -145 c 0,13,14
 119 -152 119 -152 101 -162 c 128,-1,15
 83 -172 83 -172 56 -185 c 0,16,17
 44 -191 44 -191 33 -191 c 0,18,19
 17 -191 17 -191 4.5 -175.5 c 128,-1,20
 -8 -160 -8 -160 -20 -144 c 0,21,22
 -23 -140 -23 -140 -30 -131 c 128,-1,23
 -37 -122 -37 -122 -48 -108 c 1,24,-1
 32 -45 l 1,25,26
 42 -61 42 -61 48 -71 c 128,-1,27
 54 -81 54 -81 57 -86 c 0,28,29
 77 -115 77 -115 87 -121 c 1,30,31
 106 -95 106 -95 121 -24 c 2,32,-1
 183 272 l 1,33,-1
 118 272 l 1,34,-1
 101 257 l 1,35,-1
 72 273 l 1,36,-1
 131 331 l 1,37,-1
 196 331 l 1,38,-1
 201 358 l 1,39,-1
 224 463 l 2,40,41
 247 567 247 567 283 614 c 0,42,43
 309 647 309 647 351 675 c 0,44,45
 389 700 389 700 406 701 c 2,46,-1
 412 701 l 2,47,48
 437 701 437 701 468 661 c 0,49,50
 473 656 473 656 482 644 c 128,-1,51
 491 632 491 632 505 614 c 1,52,-1
 424 556 l 1,0,1
EndSplineSet
Validated: 1
EndChar

StartChar: quotedblbase
Encoding: 8222 8222 96
Width: 334
GlyphClass: 1
Flags: W
LayerCount: 2
Fore
SplineSet
18 78 m 2,0,1
 20 80 20 80 23 83.5 c 128,-1,2
 26 87 26 87 30 91 c 2,3,-1
 67 127 l 1,4,-1
 108 170 l 1,5,6
 115 159 115 159 121.5 149 c 128,-1,7
 128 139 128 139 134 128 c 0,8,9
 160 81 160 81 160 43 c 0,10,11
 160 -35 160 -35 72 -114 c 1,12,-1
 60 -104 l 1,13,14
 98 -57 98 -57 98 -15 c 0,15,16
 98 35 98 35 50 82 c 1,17,-1
 31 64 l 1,18,-1
 18 78 l 2,0,1
172 78 m 2,19,20
 174 80 174 80 177 83.5 c 128,-1,21
 180 87 180 87 184 91 c 2,22,-1
 220 127 l 1,23,-1
 262 169 l 1,24,25
 263 168 263 168 264 166 c 256,26,27
 265 164 265 164 266 162 c 128,-1,28
 267 160 267 160 269 158 c 0,29,30
 313 81 313 81 313 43 c 0,31,32
 313 -33 313 -33 226 -114 c 1,33,-1
 214 -104 l 1,34,35
 251 -58 251 -58 251 -15 c 0,36,37
 251 35 251 35 204 82 c 1,38,-1
 185 64 l 1,39,-1
 172 78 l 2,19,20
EndSplineSet
Validated: 1
EndChar

StartChar: ellipsis
Encoding: 8230 8230 97
Width: 690
GlyphClass: 1
Flags: W
LayerCount: 2
Fore
SplineSet
583 171 m 1,0,1
 594 93 594 93 672 81 c 1,2,-1
 672 65 l 1,3,4
 595 59 595 59 583 -21 c 1,5,-1
 567 -21 l 1,6,7
 547 64 547 64 478 65 c 1,8,-1
 478 81 l 1,9,10
 554 87 554 87 567 171 c 1,11,-1
 583 171 l 1,0,1
123 171 m 1,12,13
 134 93 134 93 212 81 c 1,14,-1
 212 65 l 1,15,16
 135 59 135 59 123 -21 c 1,17,-1
 107 -21 l 1,18,19
 87 64 87 64 18 65 c 1,20,-1
 18 81 l 1,21,22
 94 87 94 87 107 171 c 1,23,-1
 123 171 l 1,12,13
353 171 m 1,24,25
 364 93 364 93 442 81 c 1,26,-1
 442 65 l 1,27,28
 365 59 365 59 353 -21 c 1,29,-1
 337 -21 l 1,30,31
 317 64 317 64 248 65 c 1,32,-1
 248 81 l 1,33,34
 324 87 324 87 337 171 c 1,35,-1
 353 171 l 1,24,25
EndSplineSet
Validated: 1
EndChar

StartChar: dagger
Encoding: 8224 8224 98
Width: 552
GlyphClass: 1
Flags: W
LayerCount: 2
Fore
SplineSet
289 365 m 1,0,1
 309 367 309 367 325 370.5 c 128,-1,2
 341 374 341 374 355 378 c 2,3,-1
 394 389 l 2,4,5
 446 404 446 404 476 404 c 0,6,7
 500 404 500 404 515 389 c 128,-1,8
 530 374 530 374 530 351 c 0,9,10
 530 329 530 329 515.5 314 c 128,-1,11
 501 299 501 299 478 299 c 0,12,13
 445 299 445 299 390 314 c 2,14,-1
 346 326 l 2,15,16
 323 333 323 333 289 336 c 1,17,18
 290 304 290 304 301 233 c 2,19,-1
 314 148 l 2,20,21
 327 67 327 67 333 14.5 c 128,-1,22
 339 -38 339 -38 339 -63 c 0,23,24
 339 -160 339 -160 276 -160 c 256,25,26
 213 -160 213 -160 213 -62 c 0,27,28
 213 -38 213 -38 219 14.5 c 128,-1,29
 225 67 225 67 238 148 c 2,30,-1
 251 233 l 2,31,32
 254 252 254 252 257 277.5 c 128,-1,33
 260 303 260 303 264 336 c 1,34,35
 229 333 229 333 206 326 c 2,36,-1
 162 314 l 1,37,-1
 115 304 l 2,38,39
 103 302 103 302 92.5 300.5 c 128,-1,40
 82 299 82 299 72 299 c 0,41,42
 51 299 51 299 36.5 314 c 128,-1,43
 22 329 22 329 22 351 c 0,44,45
 22 374 22 374 37 389 c 128,-1,46
 52 404 52 404 77 404 c 0,47,48
 106 404 106 404 159 389 c 2,49,-1
 197 378 l 2,50,51
 211 374 211 374 227.5 370.5 c 128,-1,52
 244 367 244 367 264 365 c 1,53,54
 260 399 260 399 252 439.5 c 128,-1,55
 244 480 244 480 232 529 c 0,56,57
 212 612 212 612 212 650 c 0,58,59
 212 685 212 685 229.5 707 c 128,-1,60
 247 729 247 729 276 729 c 0,61,62
 304 729 304 729 322 707 c 128,-1,63
 340 685 340 685 340 651 c 0,64,65
 340 614 340 614 320 529 c 0,66,67
 315 509 315 509 309.5 485.5 c 128,-1,68
 304 462 304 462 298 435 c 0,69,70
 293 414 293 414 289 365 c 1,0,1
EndSplineSet
Validated: 1
EndChar

StartChar: daggerdbl
Encoding: 8225 8225 99
Width: 552
GlyphClass: 1
Flags: W
LayerCount: 2
Fore
SplineSet
256 137 m 1,0,1
 253 237 253 237 210 283 c 1,2,3
 253 332 253 332 256 429 c 1,4,-1
 241 429 l 2,5,6
 187 429 187 429 161 413 c 0,7,8
 105 381 105 381 88 381 c 0,9,10
 60 381 60 381 41.5 399.5 c 128,-1,11
 23 418 23 418 23 446 c 0,12,13
 23 475 23 475 41.5 494 c 128,-1,14
 60 513 60 513 88 513 c 0,15,16
 106 513 106 513 161 481 c 0,17,18
 190 464 190 464 241 464 c 2,19,-1
 256 464 l 1,20,-1
 256 481 l 2,21,22
 256 539 256 539 233 577 c 0,23,24
 219 598 219 598 205.5 621 c 128,-1,25
 192 644 192 644 192 663 c 0,26,27
 192 693 192 693 215 712 c 128,-1,28
 238 731 238 731 275 731 c 256,29,30
 312 731 312 731 335 712 c 128,-1,31
 358 693 358 693 358 663 c 0,32,33
 358 644 358 644 344.5 621 c 128,-1,34
 331 598 331 598 317 577 c 0,35,36
 294 539 294 539 294 481 c 2,37,-1
 294 464 l 1,38,-1
 310 464 l 2,39,40
 361 464 361 464 390 481 c 0,41,42
 445 513 445 513 463 513 c 0,43,44
 490 513 490 513 508.5 494 c 128,-1,45
 527 475 527 475 527 446 c 0,46,47
 527 416 527 416 508.5 398.5 c 128,-1,48
 490 381 490 381 463 381 c 0,49,50
 446 381 446 381 390 413 c 0,51,52
 362 429 362 429 310 429 c 2,53,-1
 294 429 l 1,54,55
 297 333 297 333 341 283 c 1,56,57
 297 236 297 236 294 137 c 1,58,-1
 310 137 l 2,59,60
 362 137 362 137 390 153 c 0,61,62
 446 185 446 185 463 185 c 0,63,64
 490 185 490 185 508.5 167.5 c 128,-1,65
 527 150 527 150 527 120 c 0,66,67
 527 91 527 91 508.5 72.5 c 128,-1,68
 490 54 490 54 463 54 c 0,69,70
 445 54 445 54 390 86 c 0,71,72
 361 103 361 103 310 103 c 2,73,-1
 294 103 l 1,74,-1
 294 86 l 2,75,76
 294 27 294 27 317 -8 c 0,77,78
 324 -19 324 -19 331 -29.5 c 128,-1,79
 338 -40 338 -40 345 -51 c 0,80,81
 358 -74 358 -74 358 -94 c 0,82,83
 358 -124 358 -124 335 -143 c 128,-1,84
 312 -162 312 -162 275 -162 c 256,85,86
 238 -162 238 -162 215 -143 c 128,-1,87
 192 -124 192 -124 192 -94 c 0,88,89
 192 -76 192 -76 206 -51 c 0,90,91
 213 -40 213 -40 219.5 -29.5 c 128,-1,92
 226 -19 226 -19 233 -8 c 0,93,94
 256 27 256 27 256 86 c 2,95,-1
 256 103 l 1,96,-1
 241 103 l 2,97,98
 190 103 190 103 161 86 c 0,99,100
 106 54 106 54 88 54 c 0,101,102
 60 54 60 54 41.5 72.5 c 128,-1,103
 23 91 23 91 23 120 c 0,104,105
 23 148 23 148 41.5 166.5 c 128,-1,106
 60 185 60 185 88 185 c 0,107,108
 105 185 105 185 161 153 c 0,109,110
 187 137 187 137 241 137 c 2,111,-1
 256 137 l 1,0,1
EndSplineSet
Validated: 1
EndChar

StartChar: circumflex
Encoding: 710 710 100
Width: 0
GlyphClass: 1
Flags: W
LayerCount: 2
Fore
SplineSet
-91 586 m 1,0,-1
 30 733 l 1,1,-1
 128 618 l 1,2,-1
 149 645 l 1,3,-1
 166 630 l 1,4,-1
 99 548 l 1,5,-1
 2 662 l 1,6,-1
 -74 572 l 1,7,-1
 -91 586 l 1,0,-1
EndSplineSet
Validated: 1
EndChar

StartChar: perthousand
Encoding: 8240 8240 101
Width: 1134
GlyphClass: 1
Flags: W
LayerCount: 2
Fore
SplineSet
570 406 m 0,0,1
 647 406 647 406 695 337 c 0,2,3
 737 275 737 275 737 195 c 0,4,5
 737 111 737 111 694 55 c 0,6,7
 648 -6 648 -6 567 -6 c 0,8,9
 487 -6 487 -6 441 55 c 0,10,11
 399 110 399 110 399 194 c 0,12,13
 399 277 399 277 442 338 c 0,14,15
 490 406 490 406 570 406 c 0,0,1
569 383 m 256,16,17
 524 383 524 383 504 340 c 128,-1,18
 484 297 484 297 484 198 c 0,19,20
 484 12 484 12 567 12 c 0,21,22
 613 12 613 12 632 55.5 c 128,-1,23
 651 99 651 99 651 203 c 0,24,25
 651 301 651 301 632.5 342 c 128,-1,26
 614 383 614 383 569 383 c 256,16,17
191 693 m 0,27,28
 269 693 269 693 316 624 c 0,29,30
 358 562 358 562 358 482 c 0,31,32
 358 398 358 398 315 342 c 0,33,34
 268 279 268 279 188 279 c 256,35,36
 108 279 108 279 62 342 c 0,37,38
 20 399 20 399 20 481 c 0,39,40
 20 564 20 564 63 625 c 0,41,42
 111 693 111 693 191 693 c 0,27,28
190 670 m 0,43,44
 144 670 144 670 124.5 627 c 128,-1,45
 105 584 105 584 105 485 c 0,46,47
 105 299 105 299 187 299 c 0,48,49
 234 299 234 299 253 342 c 128,-1,50
 272 385 272 385 272 490 c 0,51,52
 272 589 272 589 253.5 629.5 c 128,-1,53
 235 670 235 670 190 670 c 0,43,44
606 693 m 1,54,-1
 197 0 l 1,55,-1
 164 0 l 1,56,-1
 573 693 l 1,57,-1
 606 693 l 1,54,-1
948 406 m 0,58,59
 1025 406 1025 406 1073 337 c 0,60,61
 1115 275 1115 275 1115 195 c 0,62,63
 1115 111 1115 111 1072 55 c 0,64,65
 1026 -6 1026 -6 945 -6 c 0,66,67
 865 -6 865 -6 819 55 c 0,68,69
 777 110 777 110 777 194 c 0,70,71
 777 277 777 277 820 338 c 0,72,73
 868 406 868 406 948 406 c 0,58,59
947 383 m 256,74,75
 902 383 902 383 882 340 c 128,-1,76
 862 297 862 297 862 198 c 0,77,78
 862 12 862 12 945 12 c 0,79,80
 991 12 991 12 1010 55 c 128,-1,81
 1029 98 1029 98 1029 203 c 0,82,83
 1029 302 1029 302 1010.5 342.5 c 128,-1,84
 992 383 992 383 947 383 c 256,74,75
EndSplineSet
Validated: 1
EndChar

StartChar: guilsinglleft
Encoding: 8249 8249 102
Width: 248
GlyphClass: 1
Flags: W
LayerCount: 2
Fore
SplineSet
203 491 m 1,0,-1
 87 339 l 1,1,-1
 223 152 l 1,2,-1
 141 60 l 1,3,-1
 128 77 l 1,4,-1
 159 116 l 1,5,-1
 25 297 l 1,6,-1
 190 508 l 1,7,-1
 203 491 l 1,0,-1
EndSplineSet
Validated: 1
EndChar

StartChar: OE
Encoding: 338 338 103
Width: 1215
GlyphClass: 1
Flags: W
LayerCount: 2
Fore
SplineSet
1060 499 m 1,0,-1
 1023 457 l 1,1,2
 1038 440 1038 440 1048.5 426.5 c 128,-1,3
 1059 413 1059 413 1065 399.5 c 128,-1,4
 1071 386 1071 386 1073.5 372 c 128,-1,5
 1076 358 1076 358 1076 340 c 0,6,7
 1076 272 1076 272 1032 225 c 0,8,9
 989 179 989 179 920 179 c 0,10,11
 862 179 862 179 818 217 c 0,12,13
 775 256 775 256 775 313 c 0,14,15
 775 338 775 338 791 369 c 1,16,-1
 804 359 l 1,17,18
 794 338 794 338 794 313 c 0,19,20
 794 292 794 292 801.5 272.5 c 128,-1,21
 809 253 809 253 822.5 238 c 128,-1,22
 836 223 836 223 854.5 214 c 128,-1,23
 873 205 873 205 894 205 c 0,24,25
 909 205 909 205 924 211.5 c 128,-1,26
 939 218 939 218 950 228.5 c 128,-1,27
 961 239 961 239 968 252 c 128,-1,28
 975 265 975 265 975 279 c 0,29,30
 975 327 975 327 888 392 c 0,31,32
 807 452 807 452 807 517 c 0,33,34
 807 560 807 560 832 600 c 0,35,36
 840 613 840 613 854 630 c 128,-1,37
 868 647 868 647 888 669 c 2,38,-1
 899 681 l 1,39,40
 872 741 872 741 830 741 c 0,41,42
 751 741 751 741 715 627 c 0,43,44
 690 552 690 552 690 450 c 0,45,46
 690 363 690 363 707 295 c 128,-1,47
 724 227 724 227 756 179.5 c 128,-1,48
 788 132 788 132 834 107.5 c 128,-1,49
 880 83 880 83 939 83 c 0,50,51
 1102 83 1102 83 1182 236 c 1,52,-1
 1201 228 l 1,53,54
 1161 98 1161 98 1088.5 37.5 c 128,-1,55
 1016 -23 1016 -23 902 -23 c 0,56,57
 791 -23 791 -23 678 69 c 1,58,59
 578 -23 578 -23 460 -23 c 0,60,61
 358 -23 358 -23 263 41 c 2,62,-1
 146 120 l 2,63,64
 123 136 123 136 89 136 c 0,65,66
 67 136 67 136 51.5 125 c 128,-1,67
 36 114 36 114 36 99 c 0,68,69
 36 85 36 85 48 85 c 0,70,71
 52 85 52 85 66 89.5 c 128,-1,72
 80 94 80 94 86 94 c 0,73,74
 107 94 107 94 121.5 79 c 128,-1,75
 136 64 136 64 136 42 c 0,76,77
 136 19 136 19 121 4 c 128,-1,78
 106 -11 106 -11 84 -11 c 0,79,80
 51 -11 51 -11 28 13.5 c 128,-1,81
 5 38 5 38 5 75 c 0,82,83
 5 130 5 130 45.5 162 c 128,-1,84
 86 194 86 194 158 194 c 0,85,86
 217 194 217 194 280 171 c 0,87,88
 312 158 312 158 395 117 c 0,89,90
 501 62 501 62 570 62 c 0,91,92
 616 62 616 62 659 90 c 1,93,94
 567 215 567 215 567 374 c 0,95,96
 567 385 567 385 568.5 401 c 128,-1,97
 570 417 570 417 572 437 c 0,98,99
 578 479 578 479 578 500 c 0,100,101
 578 546 578 546 522 563 c 0,102,103
 498 570 498 570 433 572 c 0,104,105
 355 574 355 574 320.5 599.5 c 128,-1,106
 286 625 286 625 286 680 c 0,107,108
 286 709 286 709 305 740 c 1,109,110
 260 736 260 736 231 709 c 128,-1,111
 202 682 202 682 202 643 c 0,112,113
 202 611 202 611 225 574 c 0,114,115
 232 562 232 562 272 515 c 0,116,117
 338 435 338 435 338 375 c 0,118,119
 338 312 338 312 288 271 c 0,120,121
 239 231 239 231 175 231 c 0,122,123
 103 231 103 231 59 272 c 128,-1,124
 15 313 15 313 15 379 c 0,125,126
 15 411 15 411 35 449 c 1,127,-1
 58 438 l 1,128,129
 43 405 43 405 43 377 c 0,130,131
 43 353 43 353 51.5 332 c 128,-1,132
 60 311 60 311 74 296 c 128,-1,133
 88 281 88 281 107.5 272 c 128,-1,134
 127 263 127 263 150 263 c 0,135,136
 179 263 179 263 198 280.5 c 128,-1,137
 217 298 217 298 217 326 c 0,138,139
 217 368 217 368 146 448 c 0,140,141
 90 510 90 510 90 558 c 0,142,143
 90 636 90 636 169 702 c 0,144,145
 245 766 245 766 324 766 c 0,146,147
 337 766 337 766 340 765 c 0,148,149
 337 753 337 753 337 750 c 0,150,151
 338 719 338 719 370.5 706.5 c 128,-1,152
 403 694 403 694 481 695 c 0,153,154
 550 696 550 696 571 677 c 256,155,156
 592 658 592 658 603 589 c 1,157,158
 647 673 647 673 683 710 c 0,159,160
 738 770 738 770 809 770 c 0,161,162
 827 770 827 770 840.5 766.5 c 128,-1,163
 854 763 854 763 866 755 c 128,-1,164
 878 747 878 747 889.5 733 c 128,-1,165
 901 719 901 719 915 698 c 1,166,-1
 998 791 l 1,167,168
 1016 711 1016 711 1096 711 c 0,169,170
 1152 711 1152 711 1182 775 c 1,171,-1
 1193 765 l 1,172,173
 1134 625 1134 625 1032 625 c 0,174,175
 977 625 977 625 929 681 c 1,176,177
 887 637 887 637 887 606 c 0,178,179
 887 569 887 569 926 535 c 0,180,181
 954 514 954 514 1010 469 c 1,182,-1
 1116 597 l 1,183,184
 1119 593 1119 593 1133 583 c 0,185,186
 1182 545 1182 545 1188 545 c 0,187,188
 1204 545 1204 545 1228 576 c 1,189,-1
 1242 566 l 1,190,-1
 1135 438 l 1,191,-1
 1060 499 l 1,0,-1
EndSplineSet
Validated: 33
EndChar

StartChar: quoteleft
Encoding: 8216 8216 104
Width: 177
GlyphClass: 1
Flags: W
LayerCount: 2
Fore
SplineSet
162 586 m 1,0,-1
 113 537 l 1,1,-1
 81 504 l 2,2,3
 80 503 80 503 77.5 501 c 128,-1,4
 75 499 75 499 71 495 c 1,5,-1
 64 506 l 2,6,7
 20 576 20 576 20 622 c 0,8,9
 20 702 20 702 108 781 c 1,10,-1
 120 771 l 1,11,12
 82 724 82 724 82 682 c 0,13,14
 82 630 82 630 129 583 c 1,15,-1
 149 601 l 1,16,-1
 162 586 l 1,0,-1
EndSplineSet
Validated: 1
EndChar

StartChar: quoteright
Encoding: 8217 8217 105
Width: 177
GlyphClass: 1
Flags: W
LayerCount: 2
Fore
SplineSet
15 689 m 2,0,1
 17 691 17 691 20 694.5 c 128,-1,2
 23 698 23 698 27 702 c 2,3,-1
 64 738 l 1,4,-1
 105 781 l 1,5,-1
 113 769 l 2,6,7
 157 702 157 702 157 654 c 0,8,9
 157 574 157 574 69 495 c 1,10,-1
 57 505 l 1,11,12
 95 552 95 552 95 594 c 0,13,14
 95 646 95 646 47 693 c 1,15,-1
 28 675 l 1,16,-1
 15 689 l 2,0,1
EndSplineSet
Validated: 1
EndChar

StartChar: quotedblleft
Encoding: 8220 8220 106
Width: 329
GlyphClass: 1
Flags: W
LayerCount: 2
Fore
SplineSet
315 585 m 2,0,1
 313 583 313 583 310 579.5 c 128,-1,2
 307 576 307 576 303 572 c 2,3,-1
 267 536 l 1,4,-1
 235 503 l 2,5,6
 234 502 234 502 231.5 500 c 128,-1,7
 229 498 229 498 225 494 c 1,8,9
 223 496 223 496 221.5 498.5 c 128,-1,10
 220 501 220 501 218 505 c 0,11,12
 174 573 174 573 174 620 c 0,13,14
 174 699 174 699 261 779 c 1,15,-1
 274 770 l 1,16,17
 236 723 236 723 236 681 c 0,18,19
 236 631 236 631 283 581 c 1,20,-1
 303 600 l 1,21,-1
 315 585 l 2,0,1
162 585 m 1,22,-1
 113 536 l 1,23,-1
 81 503 l 2,24,25
 80 502 80 502 77.5 500 c 128,-1,26
 75 498 75 498 71 494 c 1,27,-1
 64 505 l 2,28,29
 20 575 20 575 20 621 c 0,30,31
 20 701 20 701 108 779 c 1,32,-1
 120 770 l 1,33,34
 82 723 82 723 82 681 c 0,35,36
 82 631 82 631 129 581 c 1,37,-1
 149 600 l 1,38,-1
 162 585 l 1,22,-1
EndSplineSet
Validated: 1
EndChar

StartChar: quotedblright
Encoding: 8221 8221 107
Width: 329
GlyphClass: 1
Flags: W
LayerCount: 2
Fore
SplineSet
169 689 m 2,0,1
 171 691 171 691 174 694.5 c 128,-1,2
 177 698 177 698 181 702 c 2,3,-1
 217 738 l 1,4,-1
 259 781 l 1,5,-1
 266 769 l 2,6,7
 310 693 310 693 310 654 c 0,8,9
 310 576 310 576 223 495 c 1,10,-1
 211 505 l 1,11,12
 248 551 248 551 248 594 c 0,13,14
 248 646 248 646 201 693 c 1,15,-1
 182 675 l 1,16,-1
 169 689 l 2,0,1
15 689 m 2,17,18
 17 691 17 691 20 694.5 c 128,-1,19
 23 698 23 698 27 702 c 2,20,-1
 64 738 l 1,21,-1
 105 781 l 1,22,-1
 113 769 l 2,23,24
 157 702 157 702 157 654 c 0,25,26
 157 574 157 574 69 495 c 1,27,-1
 57 505 l 1,28,29
 95 552 95 552 95 594 c 0,30,31
 95 646 95 646 47 693 c 1,32,-1
 28 675 l 1,33,-1
 15 689 l 2,17,18
EndSplineSet
Validated: 1
EndChar

StartChar: bullet
Encoding: 8226 8226 108
Width: 392
GlyphClass: 1
Flags: W
LayerCount: 2
Fore
SplineSet
209 552 m 1,0,1
 227 414 227 414 371 388 c 1,2,-1
 371 360 l 1,3,4
 230 349 230 349 209 201 c 1,5,-1
 181 201 l 1,6,7
 145 358 145 358 19 360 c 1,8,-1
 19 388 l 1,9,10
 83 394 83 394 126.5 438.5 c 128,-1,11
 170 483 170 483 181 552 c 1,12,-1
 209 552 l 1,0,1
EndSplineSet
Validated: 1
EndChar

StartChar: endash
Encoding: 8211 8211 109
Width: 481
GlyphClass: 1
Flags: W
LayerCount: 2
Fore
SplineSet
299 349 m 2,0,1
 330 349 330 349 347 354 c 0,2,3
 370 362 370 362 384 389 c 1,4,-1
 394 389 l 1,5,-1
 366 265 l 1,6,-1
 107 265 l 2,7,8
 41 265 41 265 22 226 c 1,9,-1
 11 226 l 1,10,-1
 40 349 l 1,11,-1
 299 349 l 2,0,1
EndSplineSet
Validated: 1
EndChar

StartChar: emdash
Encoding: 8212 8212 110
Width: 633
GlyphClass: 1
Flags: W
LayerCount: 2
Fore
SplineSet
467 349 m 6,0,1
 493 349 493 349 512 350.5 c 132,-1,2
 531 352 531 352 543 354 c 4,3,4
 578 362 578 362 599 389 c 5,5,-1
 616 389 l 5,6,-1
 572 265 l 5,7,-1
 166 265 l 6,8,9
 64 265 64 265 34 226 c 5,10,-1
 18 226 l 5,11,-1
 62 349 l 5,12,-1
 467 349 l 6,0,1
EndSplineSet
Validated: 1
EndChar

StartChar: tilde
Encoding: 732 732 111
Width: 0
GlyphClass: 1
Flags: W
LayerCount: 2
Fore
SplineSet
140 750 m 1,0,1
 137 727 137 727 128 707 c 128,-1,2
 119 687 119 687 106 672.5 c 128,-1,3
 93 658 93 658 77 649.5 c 128,-1,4
 61 641 61 641 43 641 c 0,5,6
 23 641 23 641 0 654 c 0,7,8
 -6 658 -6 658 -15 663 c 128,-1,9
 -24 668 -24 668 -37 675 c 0,10,11
 -63 689 -63 689 -79 689 c 0,12,13
 -108 689 -108 689 -118 637 c 1,14,-1
 -137 637 l 1,15,16
 -113 758 -113 758 -44 758 c 0,17,18
 -17 758 -17 758 39 729 c 2,19,-1
 64 716 l 2,20,21
 80 707 80 707 89 707 c 0,22,23
 112 707 112 707 121 750 c 1,24,-1
 140 750 l 1,0,1
EndSplineSet
Validated: 1
EndChar

StartChar: trademark
Encoding: 8482 8482 112
Width: 798
GlyphClass: 1
Flags: W
LayerCount: 2
Fore
SplineSet
297 568 m 1,0,1
 294 440 294 440 195 440 c 0,2,3
 164 440 164 440 138 456 c 0,4,5
 131 460 131 460 119 468.5 c 128,-1,6
 107 477 107 477 88 491 c 0,7,8
 63 510 63 510 46 510 c 256,9,10
 29 510 29 510 29 497 c 0,11,12
 29 491 29 491 33 491 c 0,13,14
 36 492 36 492 40 493 c 128,-1,15
 44 494 44 494 47 494 c 0,16,17
 71 494 71 494 71 471 c 256,18,19
 71 448 71 448 45 448 c 0,20,21
 13 448 13 448 13 485 c 0,22,23
 13 535 13 535 61 535 c 0,24,25
 64 535 64 535 68 534.5 c 128,-1,26
 72 534 72 534 77 533 c 1,27,-1
 77 535 l 1,28,29
 66 549 66 549 66 564 c 0,30,31
 66 583 66 583 73 594 c 1,32,-1
 88 587 l 1,33,34
 82 578 82 578 82 564 c 0,35,36
 82 530 82 530 119 530 c 0,37,38
 153 530 153 530 153 562 c 0,39,40
 153 571 153 571 144 588 c 0,41,42
 127 620 127 620 127 636 c 0,43,44
 127 660 127 660 159 689 c 1,45,46
 148 696 148 696 138 702.5 c 128,-1,47
 128 709 128 709 118 716 c 0,48,49
 93 730 93 730 79 730 c 0,50,51
 39 730 39 730 39 685 c 0,52,53
 39 666 39 666 51.5 654 c 128,-1,54
 64 642 64 642 80 642 c 0,55,56
 87 642 87 642 96 646 c 1,57,-1
 100 629 l 1,58,59
 94 626 94 626 81 626 c 0,60,61
 56 626 56 626 40 642.5 c 128,-1,62
 24 659 24 659 24 685 c 0,63,64
 24 720 24 720 48.5 744 c 128,-1,65
 73 768 73 768 108 768 c 0,66,67
 125 768 125 768 152 757 c 0,68,69
 158 755 158 755 169.5 747 c 128,-1,70
 181 739 181 739 198 726 c 0,71,72
 224 706 224 706 241 706 c 0,73,74
 264 706 264 706 264 723 c 0,75,76
 264 732 264 732 256 732 c 2,77,-1
 253 732 l 1,78,79
 243 727 243 727 242 727 c 0,80,81
 220 727 220 727 220 748 c 0,82,83
 220 771 220 771 245 771 c 0,84,85
 278 771 278 771 278 730 c 0,86,87
 278 706 278 706 259 690 c 128,-1,88
 240 674 240 674 211 674 c 0,89,90
 191 674 191 674 172 683 c 1,91,92
 166 678 166 678 166 670 c 0,93,94
 166 658 166 658 178 643 c 0,95,96
 211 604 211 604 211 577 c 0,97,98
 211 551 211 551 191 532.5 c 128,-1,99
 171 514 171 514 144 513 c 1,100,-1
 144 511 l 1,101,102
 188 488 188 488 210 488 c 0,103,104
 280 488 280 488 282 568 c 1,105,-1
 297 568 l 1,0,1
312 623 m 1,106,107
 309 576 309 576 345 576 c 0,108,109
 373 576 373 576 373 601 c 0,110,111
 373 616 373 616 336 644 c 0,112,113
 307 667 307 667 307 698 c 0,114,115
 307 731 307 731 331 750.5 c 128,-1,116
 355 770 355 770 389 770 c 0,117,118
 430 770 430 770 459 735 c 1,119,120
 473 770 473 770 513 770 c 0,121,122
 550 770 550 770 576 735 c 1,123,124
 596 770 596 770 630 770 c 0,125,126
 673 770 673 770 688 714 c 0,127,128
 689 709 689 709 691 701.5 c 128,-1,129
 693 694 693 694 696 684 c 0,130,131
 701 673 701 673 710 673 c 0,132,133
 712 673 712 673 715 674 c 1,134,-1
 715 660 l 1,135,136
 687 663 687 663 667 639 c 128,-1,137
 647 615 647 615 647 576 c 0,138,139
 647 531 647 531 681 490 c 1,140,-1
 711 517 l 1,141,-1
 719 506 l 1,142,-1
 640 437 l 1,143,144
 635 448 635 448 627.5 464 c 128,-1,145
 620 480 620 480 609 501 c 0,146,147
 598 529 598 529 598 552 c 0,148,149
 598 621 598 621 670 659 c 1,150,-1
 670 661 l 1,151,152
 640 661 640 661 636 698 c 0,153,154
 631 723 631 723 630 731 c 0,155,156
 625 745 625 745 610 745 c 0,157,158
 589 745 589 745 584 719 c 1,159,160
 594 695 594 695 594 663 c 0,161,162
 594 556 594 556 487 437 c 1,163,164
 469 454 469 454 444 465 c 1,165,-1
 421 437 l 1,166,-1
 411 447 l 1,167,-1
 470 515 l 1,168,169
 500 499 500 499 512 487 c 1,170,171
 539 533 539 533 539 626 c 0,172,173
 539 752 539 752 498 752 c 0,174,175
 472 752 472 752 471 719 c 1,176,177
 490 684 490 684 490 644 c 0,178,179
 490 580 490 580 453 536 c 2,180,-1
 372 437 l 1,181,182
 353 456 353 456 327 472 c 1,183,-1
 298 437 l 1,184,-1
 288 447 l 1,185,-1
 350 520 l 1,186,187
 376 510 376 510 395 491 c 1,188,189
 433 535 433 535 433 594 c 0,190,191
 433 683 433 683 410 724 c 0,192,193
 394 752 394 752 370 752 c 0,194,195
 339 752 339 752 339 721 c 0,196,197
 339 704 339 704 395 660 c 0,198,199
 411 644 411 644 411 621 c 0,200,201
 411 596 411 596 393 579 c 128,-1,202
 375 562 375 562 351 562 c 0,203,204
 299 562 299 562 296 623 c 1,205,-1
 312 623 l 1,106,107
EndSplineSet
Validated: 33
EndChar

StartChar: guilsinglright
Encoding: 8250 8250 113
Width: 248
GlyphClass: 1
Flags: W
LayerCount: 2
Fore
SplineSet
45 77 m 1,0,-1
 161 229 l 1,1,-1
 25 415 l 1,2,-1
 108 508 l 1,3,-1
 120 490 l 1,4,-1
 89 452 l 1,5,-1
 223 270 l 1,6,-1
 58 60 l 1,7,-1
 45 77 l 1,0,-1
EndSplineSet
Validated: 1
EndChar

StartChar: oe
Encoding: 339 339 114
Width: 603
GlyphClass: 1
Flags: W
LayerCount: 2
Fore
SplineSet
492 602 m 1,0,1
 496 593 496 593 504 581 c 2,2,-1
 543 510 l 2,3,4
 547 503 547 503 558 485.5 c 128,-1,5
 569 468 569 468 588 440 c 2,6,-1
 602 419 l 1,7,-1
 422 290 l 2,8,9
 423 287 423 287 423 281 c 128,-1,10
 423 275 423 275 424 266 c 0,11,12
 428 181 428 181 449 145 c 0,13,14
 472 106 472 106 524 84 c 1,15,-1
 594 147 l 1,16,-1
 608 132 l 1,17,18
 603 128 603 128 583 110 c 128,-1,19
 563 92 563 92 528 60 c 0,20,21
 504 38 504 38 439 -20 c 1,22,23
 437 -16 437 -16 424.5 -3 c 128,-1,24
 412 10 412 10 390 33 c 0,25,26
 343 83 343 83 331 112 c 1,27,-1
 288 63 l 2,28,29
 265 37 265 37 247.5 16.5 c 128,-1,30
 230 -4 230 -4 217 -20 c 1,31,32
 131 40 131 40 7 91 c 1,33,-1
 52 134 l 1,34,-1
 52 476 l 1,35,-1
 216 589 l 1,36,-1
 396 522 l 1,37,-1
 492 602 l 1,0,1
163 504 m 1,38,-1
 163 134 l 1,39,-1
 272 78 l 1,40,-1
 324 137 l 1,41,42
 310 190 310 190 312 280 c 2,43,-1
 313 449 l 1,44,-1
 163 504 l 1,38,-1
502 374 m 1,45,-1
 493 390 l 1,46,-1
 422 509 l 1,47,48
 420 489 420 489 419 467.5 c 128,-1,49
 418 446 418 446 418 422 c 0,50,51
 418 383 418 383 421 317 c 1,52,-1
 502 374 l 1,45,-1
EndSplineSet
Validated: 33
EndChar

StartChar: Ydieresis
Encoding: 376 376 115
Width: 754
GlyphClass: 1
Flags: W
LayerCount: 2
Fore
SplineSet
721 777 m 1,0,1
 684 719 684 719 684 645 c 0,2,3
 684 612 684 612 690 556 c 128,-1,4
 696 500 696 500 707 421 c 0,5,6
 717 352 717 352 722 302.5 c 128,-1,7
 727 253 727 253 727 222 c 0,8,9
 727 11 727 11 601 -92 c 0,10,11
 500 -176 500 -176 360 -176 c 0,12,13
 266 -176 266 -176 194 -140 c 0,14,15
 103 -94 103 -94 103 -9 c 0,16,17
 103 19 103 19 120.5 38.5 c 128,-1,18
 138 58 138 58 165 58 c 0,19,20
 195 58 195 58 215.5 31.5 c 128,-1,21
 236 5 236 5 235 -31 c 2,22,-1
 234 -67 l 2,23,24
 234 -85 234 -85 244 -101 c 128,-1,25
 254 -117 254 -117 272 -128.5 c 128,-1,26
 290 -140 290 -140 315.5 -146.5 c 128,-1,27
 341 -153 341 -153 371 -153 c 0,28,29
 481 -153 481 -153 549 -88 c 0,30,31
 616 -24 616 -24 616 85 c 0,32,33
 616 121 616 121 611.5 166 c 128,-1,34
 607 211 607 211 599 266 c 2,35,-1
 576 413 l 2,36,37
 561 509 561 509 561 587 c 0,38,39
 561 603 561 603 562 620 c 128,-1,40
 563 637 563 637 565 655 c 1,41,-1
 449 581 l 1,42,43
 466 521 466 521 466 435 c 0,44,45
 466 341 466 341 442 295 c 0,46,47
 419 248 419 248 344 194 c 0,48,49
 342 192 342 192 338 189.5 c 128,-1,50
 334 187 334 187 329 183 c 1,51,52
 336 177 336 177 348 164.5 c 128,-1,53
 360 152 360 152 378 133 c 2,54,-1
 411 98 l 2,55,56
 417 90 417 90 429 77 c 1,57,-1
 509 140 l 1,58,-1
 521 125 l 1,59,-1
 506 112 l 2,60,61
 480 90 480 90 442 56.5 c 128,-1,62
 404 23 404 23 354 -24 c 1,63,64
 287 78 287 78 207 119 c 1,65,66
 282 151 282 151 307 203 c 0,67,68
 334 255 334 255 334 366 c 0,69,70
 334 584 334 584 275 670 c 0,71,72
 237 723 237 723 183 723 c 0,73,74
 165 723 165 723 148.5 716.5 c 128,-1,75
 132 710 132 710 119.5 698.5 c 128,-1,76
 107 687 107 687 99.5 672.5 c 128,-1,77
 92 658 92 658 92 642 c 0,78,79
 92 605 92 605 118 568 c 0,80,81
 130 550 130 550 172 508 c 0,82,83
 259 421 259 421 259 340 c 0,84,85
 259 271 259 271 211 223 c 256,86,87
 163 175 163 175 94 175 c 0,88,89
 39 175 39 175 4 208.5 c 128,-1,90
 -31 242 -31 242 -31 296 c 0,91,92
 -31 319 -31 319 -22 343 c 1,93,-1
 -5 336 l 1,94,95
 -10 311 -10 311 -10 297 c 0,96,97
 -10 254 -10 254 15.5 225.5 c 128,-1,98
 41 197 41 197 83 197 c 0,99,100
 113 197 113 197 134.5 220 c 128,-1,101
 156 243 156 243 156 275 c 0,102,103
 156 312 156 312 133 347 c 0,104,105
 128 355 128 355 115.5 369.5 c 128,-1,106
 103 384 103 384 83 407 c 0,107,108
 15 484 15 484 15 553 c 0,109,110
 15 639 15 639 74 695 c 256,111,112
 133 751 133 751 220 751 c 0,113,114
 378 751 378 751 443 601 c 1,115,-1
 721 777 l 1,0,1
293 749 m 1,116,-1
 322 848 l 2,117,118
 332 881 332 881 342 892.5 c 128,-1,119
 352 904 352 904 374 904 c 0,120,121
 405 904 405 904 405 880 c 0,122,123
 405 865 405 865 386 843 c 2,124,-1
 303 744 l 1,125,-1
 293 749 l 1,116,-1
396 749 m 1,126,-1
 425 848 l 2,127,128
 435 881 435 881 445.5 892.5 c 128,-1,129
 456 904 456 904 477 904 c 0,130,131
 510 904 510 904 510 880 c 0,132,133
 510 864 510 864 492 843 c 2,134,-1
 406 744 l 1,135,-1
 396 749 l 1,126,-1
EndSplineSet
Validated: 33
EndChar

StartChar: exclamdown
Encoding: 161 161 117
Width: 266
GlyphClass: 1
Flags: W
LayerCount: 2
Fore
SplineSet
114 558 m 1,0,1
 103 642 103 642 25 648 c 1,2,-1
 25 664 l 1,3,4
 94 665 94 665 114 752 c 1,5,-1
 130 752 l 1,6,7
 142 670 142 670 219 664 c 1,8,-1
 219 648 l 1,9,10
 140 634 140 634 130 558 c 1,11,-1
 114 558 l 1,0,1
167 246 m 1,12,-1
 185 100 l 2,13,14
 187 84 187 84 188 73 c 128,-1,15
 189 62 189 62 189 56 c 0,16,17
 189 -13 189 -13 125 -13 c 0,18,19
 60 -13 60 -13 60 64 c 0,20,21
 60 83 60 83 66 137 c 2,22,-1
 78 246 l 1,23,-1
 109 491 l 1,24,-1
 130 491 l 1,25,-1
 167 246 l 1,12,-1
EndSplineSet
Validated: 1
EndChar

StartChar: cent
Encoding: 162 162 118
Width: 385
GlyphClass: 1
Flags: W
LayerCount: 2
Fore
SplineSet
210 682 m 1,0,-1
 232 682 l 1,1,-1
 232 577 l 1,2,3
 295 572 295 572 332 545 c 128,-1,4
 369 518 369 518 369 476 c 0,5,6
 369 438 369 438 333 438 c 0,7,8
 291 438 291 438 284 493 c 0,9,10
 279 530 279 530 268.5 542.5 c 128,-1,11
 258 555 258 555 232 556 c 1,12,-1
 232 177 l 1,13,14
 331 187 331 187 359 319 c 1,15,-1
 378 314 l 1,16,17
 363 246 363 246 337 212 c 0,18,19
 295 157 295 157 232 156 c 1,20,-1
 232 47 l 1,21,-1
 210 47 l 1,22,-1
 210 156 l 1,23,24
 122 165 122 165 71 220.5 c 128,-1,25
 20 276 20 276 20 366 c 256,26,27
 20 456 20 456 69.5 511.5 c 128,-1,28
 119 567 119 567 210 577 c 1,29,-1
 210 682 l 1,0,-1
210 556 m 1,30,31
 133 530 133 530 133 369 c 0,32,33
 133 207 133 207 210 178 c 1,34,-1
 210 556 l 1,30,31
EndSplineSet
Validated: 1
EndChar

StartChar: sterling
Encoding: 163 163 119
Width: 522
GlyphClass: 1
Flags: W
LayerCount: 2
Fore
SplineSet
355 258 m 1,0,-1
 240 258 l 1,1,2
 235 205 235 205 213 168 c 0,3,4
 196 142 196 142 149 98 c 2,5,-1
 120 71 l 1,6,-1
 162 91 l 2,7,8
 205 112 205 112 252 112 c 0,9,10
 286 112 286 112 326 95 c 0,11,12
 396 65 396 65 414 65 c 0,13,14
 459 65 459 65 473 137 c 1,15,-1
 499 137 l 1,16,17
 486 50 486 50 454 12.5 c 128,-1,18
 422 -25 422 -25 363 -25 c 0,19,20
 325 -25 325 -25 262 3 c 0,21,22
 175 41 175 41 144 41 c 0,23,24
 98 41 98 41 39 0 c 1,25,-1
 23 23 l 1,26,27
 148 107 148 107 148 197 c 0,28,29
 148 225 148 225 138 258 c 1,30,-1
 33 258 l 1,31,-1
 33 282 l 1,32,-1
 130 282 l 1,33,34
 128 287 128 287 126 292 c 128,-1,35
 124 297 124 297 122 302 c 2,36,-1
 103 343 l 2,37,38
 76 401 76 401 76 452 c 0,39,40
 76 533 76 533 144 589 c 0,41,42
 207 640 207 640 291 640 c 0,43,44
 351 640 351 640 407 610 c 0,45,46
 475 575 475 575 475 520 c 0,47,48
 475 476 475 476 433 476 c 0,49,50
 400 476 400 476 382 523 c 2,51,-1
 377 536 l 2,52,53
 368 559 368 559 359 574 c 128,-1,54
 350 589 350 589 339.5 598 c 128,-1,55
 329 607 329 607 314.5 610.5 c 128,-1,56
 300 614 300 614 281 614 c 0,57,58
 233 614 233 614 199 584 c 0,59,60
 164 555 164 555 164 509 c 0,61,62
 164 474 164 474 191 419 c 0,63,64
 231 338 231 338 240 282 c 1,65,-1
 355 282 l 1,66,-1
 355 258 l 1,0,-1
EndSplineSet
Validated: 1
EndChar

StartChar: currency
Encoding: 164 164 120
Width: 600
GlyphClass: 1
Flags: W
LayerCount: 2
Fore
SplineSet
519 61 m 1,0,-1
 424 155 l 1,1,2
 365 116 365 116 300 116 c 0,3,4
 234 116 234 116 176 155 c 1,5,-1
 83 61 l 1,6,-1
 27 115 l 1,7,-1
 123 210 l 1,8,9
 84 267 84 267 84 334 c 256,10,11
 84 401 84 401 123 457 c 1,12,-1
 27 551 l 1,13,-1
 83 607 l 1,14,-1
 176 511 l 1,15,16
 233 550 233 550 300 550 c 0,17,18
 368 550 368 550 424 511 c 1,19,-1
 519 607 l 1,20,-1
 573 551 l 1,21,-1
 479 458 l 1,22,23
 518 399 518 399 518 334 c 0,24,25
 518 268 518 268 479 210 c 1,26,-1
 573 115 l 1,27,-1
 519 61 l 1,0,-1
449 334 m 0,28,29
 449 392 449 392 405 438 c 0,30,31
 361 483 361 483 300 483 c 256,32,33
 239 483 239 483 196 438 c 0,34,35
 153 394 153 394 153 334 c 0,36,37
 153 272 153 272 196 228 c 0,38,39
 239 183 239 183 300 183 c 256,40,41
 361 183 361 183 405 228 c 0,42,43
 449 274 449 274 449 334 c 0,28,29
EndSplineSet
Validated: 1
EndChar

StartChar: yen
Encoding: 165 165 121
Width: 500
GlyphClass: 1
Flags: W
LayerCount: 2
Fore
SplineSet
570 522 m 1,0,1
 521 488 521 488 478 474 c 1,2,3
 471 488 471 488 461 506 c 128,-1,4
 451 524 451 524 437 547 c 1,5,6
 437 543 437 543 434 539 c 0,7,8
 423 523 423 523 396 477.5 c 128,-1,9
 369 432 369 432 324 355 c 1,10,-1
 324 307 l 1,11,-1
 432 307 l 1,12,-1
 446 320 l 1,13,-1
 470 304 l 1,14,-1
 420 249 l 1,15,-1
 324 249 l 1,16,-1
 324 217 l 1,17,-1
 432 217 l 1,18,-1
 446 229 l 1,19,-1
 470 213 l 1,20,-1
 420 158 l 1,21,-1
 324 158 l 1,22,-1
 324 26 l 1,23,24
 274 -6 274 -6 228 -22 c 1,25,-1
 228 158 l 1,26,-1
 120 158 l 1,27,-1
 103 143 l 1,28,-1
 74 159 l 1,29,-1
 133 217 l 1,30,-1
 228 217 l 1,31,-1
 228 249 l 1,32,-1
 120 249 l 1,33,-1
 103 234 l 1,34,-1
 74 250 l 1,35,-1
 133 307 l 1,36,-1
 228 307 l 1,37,-1
 228 308 l 1,38,39
 199 343 199 343 159.5 390.5 c 128,-1,40
 120 438 120 438 70 500 c 0,41,42
 58 516 58 516 28 548 c 0,43,44
 27 549 27 549 27 550 c 1,45,46
 27 550 27 550 25 549 c 2,47,-1
 20 547 l 2,48,49
 -2 536 -2 536 -38 523 c 0,50,51
 -39 524 -39 524 -39 528 c 0,52,53
 -39 552 -39 552 -16 566 c 0,54,55
 18 587 18 587 87 621 c 1,56,-1
 89 621 l 2,57,58
 107 621 107 621 158 553 c 0,59,60
 185 517 185 517 220 475 c 128,-1,61
 255 433 255 433 298 384 c 1,62,63
 312 407 312 407 331.5 441 c 128,-1,64
 351 475 351 475 377 521 c 0,65,66
 384 533 384 533 390 544 c 128,-1,67
 396 555 396 555 404.5 564.5 c 128,-1,68
 413 574 413 574 425 583 c 128,-1,69
 437 592 437 592 456 600 c 0,70,71
 475 607 475 607 513 627 c 1,72,73
 525 601 525 601 570 522 c 1,0,1
EndSplineSet
Validated: 1
EndChar

StartChar: brokenbar
Encoding: 166 166 122
Width: 111
GlyphClass: 1
Flags: W
LayerCount: 2
Fore
SplineSet
41 363 m 1,0,-1
 75 363 l 1,1,-1
 75 -30 l 1,2,-1
 41 -29 l 1,3,-1
 41 363 l 1,0,-1
40 838 m 1,4,-1
 75 838 l 1,5,-1
 75 445 l 1,6,-1
 40 445 l 1,7,-1
 40 838 l 1,4,-1
EndSplineSet
Validated: 1
EndChar

StartChar: section
Encoding: 167 167 123
Width: 448
GlyphClass: 1
Flags: W
LayerCount: 2
Fore
SplineSet
369 66 m 1,0,1
 382 36 382 36 382 0 c 0,2,3
 382 -72 382 -72 331 -118 c 0,4,5
 282 -164 282 -164 207 -164 c 0,6,7
 152 -164 152 -164 103 -136 c 0,8,9
 46 -103 46 -103 46 -52 c 0,10,11
 46 5 46 5 98 5 c 0,12,13
 145 5 145 5 151 -54 c 0,14,15
 159 -140 159 -140 226 -140 c 0,16,17
 263 -140 263 -140 287 -117.5 c 128,-1,18
 311 -95 311 -95 311 -61 c 0,19,20
 311 -14 311 -14 239 34 c 0,21,22
 107 124 107 124 70 178 c 0,23,24
 22 248 22 248 22 325 c 0,25,26
 22 407 22 407 78 487 c 1,27,28
 56 527 56 527 56 572 c 0,29,30
 56 644 56 644 104.5 687 c 128,-1,31
 153 730 153 730 235 730 c 0,32,33
 285 730 285 730 333 706 c 0,34,35
 392 677 392 677 392 632 c 0,36,37
 392 612 392 612 378.5 599 c 128,-1,38
 365 586 365 586 345 586 c 0,39,40
 313 586 313 586 292 627 c 2,41,-1
 275 660 l 2,42,43
 251 707 251 707 206 707 c 0,44,45
 188 707 188 707 172 701.5 c 128,-1,46
 156 696 156 696 143.5 686 c 128,-1,47
 131 676 131 676 124 663.5 c 128,-1,48
 117 651 117 651 117 637 c 0,49,50
 117 602 117 602 155 569 c 0,51,52
 163 563 163 563 180 551.5 c 128,-1,53
 197 540 197 540 223 523 c 0,54,55
 330 456 330 456 370 404 c 0,56,57
 425 334 425 334 425 233 c 0,58,59
 425 134 425 134 369 66 c 1,0,1
359 87 m 1,60,61
 390 136 390 136 390 172 c 0,62,63
 390 233 390 233 307 310 c 0,64,65
 287 328 287 328 253.5 353.5 c 128,-1,66
 220 379 220 379 172 411 c 0,67,68
 118 448 118 448 94 472 c 1,69,70
 67 424 67 424 67 389 c 0,71,72
 67 339 67 339 110 293 c 0,73,74
 126 276 126 276 161.5 248 c 128,-1,75
 197 220 197 220 252 180 c 0,76,77
 334 121 334 121 359 87 c 1,60,61
EndSplineSet
Validated: 1
EndChar

StartChar: dieresis
Encoding: 168 168 124
Width: 0
GlyphClass: 1
Flags: W
LayerCount: 2
Fore
SplineSet
-84 622 m 1,0,-1
 -55 721 l 2,1,2
 -45 754 -45 754 -35 765.5 c 128,-1,3
 -25 777 -25 777 -3 777 c 0,4,5
 28 777 28 777 28 753 c 0,6,7
 28 738 28 738 9 716 c 2,8,-1
 -74 617 l 1,9,-1
 -84 622 l 1,0,-1
19 622 m 1,10,-1
 48 721 l 2,11,12
 58 754 58 754 68.5 765.5 c 128,-1,13
 79 777 79 777 100 777 c 0,14,15
 133 777 133 777 133 753 c 0,16,17
 133 737 133 737 115 716 c 2,18,-1
 29 617 l 1,19,-1
 19 622 l 1,10,-1
EndSplineSet
Validated: 1
EndChar

StartChar: copyright
Encoding: 169 169 125
Width: 798
GlyphClass: 1
Flags: W
LayerCount: 2
Fore
SplineSet
372 771 m 0,0,1
 510 771 510 771 606 675 c 0,2,3
 703 581 703 581 703 442 c 256,4,5
 703 303 703 303 606 207 c 0,6,7
 509 112 509 112 372 112 c 0,8,9
 231 112 231 112 137 206 c 0,10,11
 42 301 42 301 42 441 c 0,12,13
 42 580 42 580 137 675 c 0,14,15
 233 771 233 771 372 771 c 0,0,1
372 150 m 0,16,17
 494 150 494 150 580 234 c 0,18,19
 665 318 665 318 665 441 c 0,20,21
 665 562 665 562 579 648 c 256,22,23
 493 734 493 734 372 734 c 0,24,25
 252 734 252 734 166 648 c 0,26,27
 81 563 81 563 81 442 c 0,28,29
 81 319 81 319 165 234 c 0,30,31
 249 150 249 150 372 150 c 0,16,17
528 384 m 1,32,33
 490 234 490 234 370 234 c 0,34,35
 292 234 292 234 245 284.5 c 128,-1,36
 198 335 198 335 198 431 c 0,37,38
 198 497 198 497 224 557 c 0,39,40
 257 631 257 631 317 631 c 0,41,42
 356 631 356 631 376 593 c 1,43,-1
 383 598 l 1,44,-1
 404 614 l 2,45,46
 408 618 408 618 413 621.5 c 128,-1,47
 418 625 418 625 423 630 c 2,48,-1
 430 636 l 1,49,50
 452 603 452 603 474 603 c 0,51,52
 489 603 489 603 509 632 c 2,53,-1
 511 635 l 1,54,-1
 518 630 l 1,55,56
 484 560 484 560 444 560 c 0,57,58
 415 560 415 560 388 590 c 1,59,60
 360 568 360 568 360 553 c 0,61,62
 360 533 360 533 387 514 c 2,63,-1
 411 497 l 2,64,65
 458 462 458 462 458 418 c 0,66,67
 458 384 458 384 434 363 c 128,-1,68
 410 342 410 342 376 342 c 0,69,70
 346 342 346 342 323 360 c 128,-1,71
 300 378 300 378 300 408 c 0,72,73
 300 418 300 418 306 436 c 1,74,-1
 315 433 l 1,75,76
 309 418 309 418 309 409 c 0,77,78
 309 386 309 386 326.5 370 c 128,-1,79
 344 354 344 354 366 354 c 0,80,81
 383 354 383 354 395 365.5 c 128,-1,82
 407 377 407 377 407 394 c 0,83,84
 407 415 407 415 365 444 c 0,85,86
 323 474 323 474 323 508 c 0,87,88
 323 540 323 540 363 580 c 2,89,-1
 370 587 l 1,90,91
 358 619 358 619 328 619 c 0,92,93
 289 619 289 619 272 554 c 0,94,95
 260 512 260 512 260 460 c 0,96,97
 260 290 260 290 390 290 c 0,98,99
 487 290 487 290 517 386 c 1,100,-1
 528 384 l 1,32,33
EndSplineSet
Validated: 1
EndChar

StartChar: ordfeminine
Encoding: 170 170 126
Width: 283
GlyphClass: 1
Flags: W
LayerCount: 2
Fore
SplineSet
206 381 m 1,0,1
 173 406 173 406 161 444 c 1,2,-1
 66 381 l 1,3,4
 16 443 16 443 16 516 c 0,5,6
 16 610 16 610 156 684 c 1,7,8
 214 637 214 637 256 637 c 2,9,-1
 263 637 l 1,10,-1
 269 621 l 1,11,12
 234 598 234 598 234 555 c 2,13,-1
 234 490 l 2,14,15
 234 464 234 464 249 446 c 1,16,-1
 275 464 l 1,17,-1
 289 447 l 1,18,-1
 206 381 l 1,0,1
165 591 m 1,19,20
 132 603 132 603 114 619 c 1,21,22
 88 590 88 590 88 544 c 0,23,24
 88 501 88 501 125 451 c 1,25,-1
 155 471 l 1,26,27
 152 499 152 499 152 532 c 256,28,29
 152 565 152 565 165 591 c 1,19,20
EndSplineSet
Validated: 1
EndChar

StartChar: guillemotleft
Encoding: 171 171 127
Width: 395
GlyphClass: 1
Flags: W
LayerCount: 2
Fore
SplineSet
203 491 m 1,0,-1
 87 339 l 1,1,-1
 223 152 l 1,2,-1
 141 60 l 1,3,-1
 128 77 l 1,4,-1
 159 116 l 1,5,-1
 25 297 l 1,6,-1
 190 508 l 1,7,-1
 203 491 l 1,0,-1
348 492 m 1,8,-1
 232 340 l 1,9,-1
 368 153 l 1,10,-1
 286 61 l 1,11,-1
 273 78 l 1,12,-1
 304 117 l 1,13,-1
 170 298 l 1,14,-1
 335 509 l 1,15,-1
 348 492 l 1,8,-1
EndSplineSet
Validated: 1
EndChar

StartChar: logicalnot
Encoding: 172 172 128
Width: 230
GlyphClass: 1
Flags: W
LayerCount: 2
Fore
SplineSet
206 333 m 1,0,-1
 191 277 l 1,1,-1
 25 277 l 1,2,-1
 43 333 l 1,3,-1
 206 333 l 1,0,-1
EndSplineSet
Validated: 1
EndChar

StartChar: uni00AD.001
Encoding: 65539 -1 129
Width: 233
GlyphClass: 1
Flags: W
LayerCount: 2
Fore
SplineSet
198 433 m 1,0,-1
 206 372 l 1,1,-1
 34 292 l 1,2,-1
 25 355 l 1,3,-1
 198 433 l 1,0,-1
198 298 m 1,4,-1
 206 237 l 1,5,-1
 34 158 l 1,6,-1
 25 221 l 1,7,-1
 198 298 l 1,4,-1
EndSplineSet
Validated: 1
EndChar

StartChar: registered
Encoding: 174 174 130
Width: 798
GlyphClass: 1
Flags: W
LayerCount: 2
Fore
SplineSet
372 112 m 0,0,1
 234 112 234 112 137 207 c 0,2,3
 42 302 42 302 42 441 c 0,4,5
 42 578 42 578 138 676 c 0,6,7
 234 773 234 773 372 773 c 256,8,9
 510 773 510 773 606 676 c 0,10,11
 703 580 703 580 703 442 c 0,12,13
 703 303 703 303 606 207 c 0,14,15
 509 112 509 112 372 112 c 0,0,1
372 734 m 0,16,17
 250 734 250 734 166 648 c 256,18,19
 82 562 82 562 82 441 c 0,20,21
 82 318 82 318 166 234 c 0,22,23
 251 150 251 150 374 150 c 0,24,25
 496 150 496 150 580 234 c 0,26,27
 665 319 665 319 665 442 c 0,28,29
 665 562 665 562 579 648 c 256,30,31
 493 734 493 734 372 734 c 0,16,17
562 529 m 1,32,-1
 492 502 l 1,33,-1
 502 346 l 2,34,35
 503 315 503 315 529 294 c 1,36,-1
 562 325 l 1,37,-1
 569 318 l 1,38,39
 566 314 566 314 562 311 c 2,40,-1
 527 280 l 2,41,42
 517 271 517 271 507 261.5 c 128,-1,43
 497 252 497 252 486 241 c 1,44,45
 482 249 482 249 470 261 c 0,46,47
 445 289 445 289 445 302 c 2,48,-1
 436 480 l 1,49,-1
 401 466 l 1,50,51
 398 385 398 385 373 325 c 0,52,53
 338 239 338 239 272 239 c 0,54,55
 234 239 234 239 203 281 c 0,56,57
 187 303 187 303 165 314 c 1,58,59
 185 334 185 334 200 364 c 1,60,61
 211 353 211 353 223.5 344 c 128,-1,62
 236 335 236 335 249 328 c 1,63,64
 224 310 224 310 224 290 c 0,65,66
 224 274 224 274 237.5 262 c 128,-1,67
 251 250 251 250 270 250 c 0,68,69
 338 250 338 250 338 435 c 0,70,71
 338 524 338 524 328 563 c 0,72,73
 313 625 313 625 272 625 c 0,74,75
 236 625 236 625 236 588 c 0,76,77
 236 569 236 569 280 528 c 0,78,79
 311 498 311 498 311 464 c 0,80,81
 311 434 311 434 292 414 c 128,-1,82
 273 394 273 394 243 394 c 0,83,84
 189 394 189 394 179 454 c 1,85,-1
 188 455 l 1,86,87
 196 405 196 405 240 405 c 0,88,89
 271 405 271 405 271 434 c 0,90,91
 271 450 271 450 251 470 c 0,92,93
 222 497 222 497 216 506 c 0,94,95
 201 527 201 527 201 552 c 0,96,97
 201 589 201 589 226.5 613.5 c 128,-1,98
 252 638 252 638 289 638 c 0,99,100
 334 638 334 638 375 587 c 1,101,102
 399 636 399 636 452 636 c 0,103,104
 510 636 510 636 529 563 c 0,105,106
 536 535 536 535 545 535 c 0,107,108
 547 535 547 535 553 537 c 0,109,110
 554 538 554 538 558 538 c 2,111,-1
 562 529 l 1,32,-1
508 518 m 1,112,113
 483 522 483 522 473.5 532 c 128,-1,114
 464 542 464 542 460 564 c 0,115,116
 452 617 452 617 426 617 c 0,117,118
 399 617 399 617 381 577 c 1,119,120
 399 546 399 546 401 476 c 1,121,-1
 508 518 l 1,112,113
EndSplineSet
Validated: 1
EndChar

StartChar: degree
Encoding: 176 176 131
Width: 400
GlyphClass: 1
Flags: W
LayerCount: 2
Fore
SplineSet
343 592 m 256,0,1
 343 532 343 532 301 490 c 0,2,3
 260 449 260 449 200 449 c 0,4,5
 141 449 141 449 98 490 c 0,6,7
 57 533 57 533 57 592 c 0,8,9
 57 652 57 652 98 693 c 0,10,11
 140 735 140 735 200 735 c 256,12,13
 260 735 260 735 301 693 c 0,14,15
 343 652 343 652 343 592 c 256,0,1
293 592 m 0,16,17
 293 611 293 611 285.5 629 c 128,-1,18
 278 647 278 647 265.5 660 c 128,-1,19
 253 673 253 673 236 681 c 128,-1,20
 219 689 219 689 200 689 c 256,21,22
 181 689 181 689 164 681 c 128,-1,23
 147 673 147 673 134.5 660 c 128,-1,24
 122 647 122 647 114.5 629 c 128,-1,25
 107 611 107 611 107 592 c 0,26,27
 107 572 107 572 114.5 554.5 c 128,-1,28
 122 537 122 537 134.5 524 c 128,-1,29
 147 511 147 511 164 503 c 128,-1,30
 181 495 181 495 200 495 c 256,31,32
 219 495 219 495 236 503 c 128,-1,33
 253 511 253 511 265.5 524 c 128,-1,34
 278 537 278 537 285.5 554.5 c 128,-1,35
 293 572 293 572 293 592 c 0,16,17
EndSplineSet
Validated: 1
EndChar

StartChar: plusminus
Encoding: 177 177 132
Width: 427
GlyphClass: 1
Flags: W
LayerCount: 2
Fore
SplineSet
395 206 m 1,0,-1
 381 156 l 1,1,-1
 34 156 l 1,2,-1
 50 206 l 1,3,-1
 395 206 l 1,0,-1
181 399 m 1,4,-1
 25 399 l 1,5,-1
 41 449 l 1,6,-1
 181 449 l 1,7,-1
 181 605 l 1,8,-1
 231 591 l 1,9,-1
 231 449 l 1,10,-1
 386 449 l 1,11,-1
 372 399 l 1,12,-1
 231 399 l 1,13,-1
 231 244 l 1,14,-1
 181 260 l 1,15,-1
 181 399 l 1,4,-1
EndSplineSet
Validated: 1
EndChar

StartChar: twosuperior
Encoding: 178 178 133
Width: 375
GlyphClass: 1
Flags: W
LayerCount: 2
Fore
SplineSet
301 433 m 1,0,1
 285 330 285 330 215 330 c 0,2,3
 191 330 191 330 169 342 c 2,4,-1
 145 355 l 2,5,6
 135 360 135 360 126 360 c 0,7,8
 103 360 103 360 87 326 c 1,9,-1
 76 330 l 1,10,11
 81 343 81 343 87 352.5 c 128,-1,12
 93 362 93 362 98 369 c 0,13,14
 103 377 103 377 117 391.5 c 128,-1,15
 131 406 131 406 154 429 c 0,16,17
 233 507 233 507 233 586 c 0,18,19
 233 618 233 618 219.5 638 c 128,-1,20
 206 658 206 658 184 658 c 0,21,22
 153 658 153 658 124 623 c 0,23,24
 96 589 96 589 96 556 c 0,25,26
 96 529 96 529 120 529 c 0,27,28
 140 529 140 529 161 550 c 0,29,30
 183 571 183 571 183 591 c 0,31,32
 183 609 183 609 170 625 c 1,33,-1
 178 631 l 1,34,35
 196 611 196 611 196 584 c 0,36,37
 196 554 196 554 173 525 c 0,38,39
 150 498 150 498 121 498 c 0,40,41
 82 498 82 498 82 548 c 0,42,43
 82 594 82 594 118 635 c 256,44,45
 154 676 154 676 200 676 c 0,46,47
 239 676 239 676 265 648 c 128,-1,48
 291 620 291 620 291 581 c 0,49,50
 291 516 291 516 192 441 c 0,51,52
 155 413 155 413 145 402 c 1,53,54
 154 405 154 405 159 405 c 0,55,56
 172 405 172 405 186 398 c 0,57,58
 192 392 192 392 214 381 c 0,59,60
 235 371 235 371 245 371 c 0,61,62
 283 371 283 371 288 436 c 1,63,-1
 301 433 l 1,0,1
EndSplineSet
Validated: 1
EndChar

StartChar: threesuperior
Encoding: 179 179 134
Width: 375
GlyphClass: 1
Flags: W
LayerCount: 2
Fore
SplineSet
191 629 m 1,0,1
 193 619 193 619 193 614 c 0,2,3
 193 589 193 589 175 568.5 c 128,-1,4
 157 548 157 548 132 548 c 0,5,6
 97 548 97 548 97 581 c 0,7,8
 97 616 97 616 135 642 c 0,9,10
 169 664 169 664 207 664 c 0,11,12
 233 664 233 664 254 648.5 c 128,-1,13
 275 633 275 633 275 608 c 0,14,15
 275 564 275 564 207 531 c 2,16,-1
 197 526 l 1,17,18
 233 521 233 521 252 507 c 0,19,20
 288 478 288 478 288 433 c 0,21,22
 288 386 288 386 250 353 c 256,23,24
 212 320 212 320 165 320 c 0,25,26
 128 320 128 320 97 342 c 256,27,28
 66 364 66 364 66 399 c 0,29,30
 66 436 66 436 95 436 c 256,31,32
 124 436 124 436 124 402 c 0,33,34
 124 398 124 398 123.5 393.5 c 128,-1,35
 123 389 123 389 122 384 c 2,36,-1
 120 375 l 2,37,38
 119 374 119 374 119 368 c 0,39,40
 119 331 119 331 161 331 c 0,41,42
 229 331 229 331 229 429 c 0,43,44
 229 515 229 515 178 515 c 0,45,46
 160 515 160 515 147 505 c 2,47,-1
 130 493 l 2,48,49
 125 490 125 490 120 490 c 0,50,51
 113 490 113 490 113 498 c 0,52,53
 113 510 113 510 153 522 c 2,54,-1
 179 529 l 2,55,56
 224 542 224 542 224 598 c 0,57,58
 224 646 224 646 182 646 c 0,59,60
 161 646 161 646 136 628 c 256,61,62
 111 610 111 610 111 589 c 0,63,64
 111 572 111 572 133 572 c 0,65,66
 154 572 154 572 168.5 584.5 c 128,-1,67
 183 597 183 597 183 615 c 1,68,69
 183 614 183 614 183 617 c 128,-1,70
 183 620 183 620 182 627 c 1,71,-1
 191 629 l 1,0,1
EndSplineSet
Validated: 1
EndChar

StartChar: acute
Encoding: 180 180 135
Width: 0
GlyphClass: 1
Flags: W
LayerCount: 2
Fore
SplineSet
-39 629 m 1,0,-1
 24 755 l 2,1,2
 36 779 36 779 66 779 c 0,3,4
 85 779 85 779 98 767.5 c 128,-1,5
 111 756 111 756 111 740 c 0,6,7
 111 714 111 714 77 690 c 2,8,-1
 -29 616 l 1,9,-1
 -39 629 l 1,0,-1
EndSplineSet
Validated: 1
EndChar

StartChar: mu
Encoding: 181 181 136
Width: 452
GlyphClass: 1
Flags: W
LayerCount: 2
Fore
SplineSet
176 115 m 1,0,1
 187 107 187 107 199.5 96 c 128,-1,2
 212 85 212 85 227 69 c 1,3,-1
 153 -7 l 1,4,5
 145 -45 145 -45 137 -78.5 c 128,-1,6
 129 -112 129 -112 122 -140 c 1,7,8
 114 -88 114 -88 104 -28 c 128,-1,9
 94 32 94 32 83 101 c 1,10,-1
 83 366 l 2,11,12
 83 425 83 425 48 425 c 1,13,-1
 22 398 l 1,14,-1
 109 497 l 1,15,16
 176 458 176 458 176 402 c 2,17,-1
 176 115 l 1,0,1
375 2 m 1,18,19
 333 28 333 28 313 54 c 0,20,21
 298 73 298 73 298 140 c 2,22,-1
 298 367 l 2,23,24
 298 395 298 395 271 409 c 1,25,26
 319 428 319 428 347 495 c 1,27,28
 376 426 376 426 420 408 c 1,29,30
 393 394 393 394 393 367 c 2,31,-1
 393 119 l 2,32,33
 393 93 393 93 432 74 c 1,34,-1
 375 2 l 1,18,19
230 66 m 1,35,-1
 227 69 l 1,36,-1
 298 142 l 1,37,-1
 298 140 l 1,38,-1
 230 66 l 1,35,-1
EndSplineSet
Validated: 5
EndChar

StartChar: paragraph
Encoding: 182 182 137
Width: 478
GlyphClass: 1
Flags: W
LayerCount: 2
Fore
SplineSet
448 509 m 1,0,-1
 352 509 l 1,1,-1
 352 35 l 1,2,-1
 448 35 l 1,3,-1
 448 7 l 1,4,-1
 352 7 l 1,5,-1
 352 -97 l 1,6,-1
 315 -97 l 1,7,-1
 315 7 l 1,8,9
 250 11 250 11 203.5 20 c 128,-1,10
 157 29 157 29 128 45 c 0,11,12
 23 100 23 100 23 265 c 0,13,14
 23 469 23 469 167 519 c 0,15,16
 215 536 215 536 315 537 c 1,17,-1
 315 612 l 1,18,-1
 352 612 l 1,19,-1
 352 537 l 1,20,-1
 448 537 l 1,21,-1
 448 509 l 1,0,-1
315 509 m 1,22,23
 201 486 201 486 201 334 c 2,24,-1
 201 290 l 2,25,26
 201 197 201 197 204 173 c 0,27,28
 211 107 211 107 246 69 c 0,29,30
 274 38 274 38 315 35 c 1,31,-1
 315 509 l 1,22,23
EndSplineSet
Validated: 1
EndChar

StartChar: periodcentered
Encoding: 183 183 138
Width: 347
GlyphClass: 1
Flags: W
LayerCount: 2
Fore
SplineSet
183 492 m 1,0,1
 195 400 195 400 291 383 c 1,2,-1
 291 364 l 1,3,4
 196 356 196 356 183 258 c 1,5,-1
 164 258 l 1,6,7
 140 363 140 363 56 364 c 1,8,-1
 56 383 l 1,9,10
 99 387 99 387 128 416.5 c 128,-1,11
 157 446 157 446 164 492 c 1,12,-1
 183 492 l 1,0,1
EndSplineSet
Validated: 1
EndChar

StartChar: cedilla
Encoding: 184 184 139
Width: 0
GlyphClass: 1
Flags: W
LayerCount: 2
Fore
SplineSet
-37 -244 m 1,0,1
 4 -208 4 -208 4 -168 c 0,2,3
 4 -133 4 -133 -49 -101 c 1,4,-1
 -51 -100 l 2,5,6
 -53 -99 -53 -99 -59 -95 c 1,7,-1
 8 -30 l 1,8,9
 75 -54 75 -54 75 -117 c 0,10,11
 75 -154 75 -154 40 -198 c 0,12,13
 8 -238 8 -238 -28 -255 c 1,14,-1
 -37 -244 l 1,0,1
EndSplineSet
Validated: 1
EndChar

StartChar: onesuperior
Encoding: 185 185 140
Width: 375
GlyphClass: 1
Flags: W
LayerCount: 2
Fore
SplineSet
101 543 m 1,0,1
 154 601 154 601 208 683 c 1,2,3
 207 676 207 676 205 654 c 2,4,-1
 204 630 l 2,5,6
 203 624 203 624 203 618 c 128,-1,7
 203 612 203 612 203 606 c 2,8,-1
 203 395 l 2,9,10
 203 362 203 362 206 356 c 0,11,12
 211 342 211 342 237 342 c 2,13,-1
 245 342 l 1,14,-1
 245 331 l 1,15,16
 241 332 241 332 196 332 c 2,17,-1
 173 332 l 2,18,19
 152 332 152 332 135.5 332 c 128,-1,20
 119 332 119 332 106 331 c 1,21,-1
 106 342 l 1,22,-1
 124 342 l 2,23,24
 144 342 144 342 149 350.5 c 128,-1,25
 154 359 154 359 154 382 c 2,26,-1
 154 587 l 1,27,-1
 111 535 l 1,28,-1
 101 543 l 1,0,1
EndSplineSet
Validated: 1
EndChar

StartChar: ordmasculine
Encoding: 186 186 141
Width: 375
GlyphClass: 1
Flags: W
LayerCount: 2
Fore
SplineSet
186 656 m 0,0,1
 247 656 247 656 283 596 c 0,2,3
 314 546 314 546 314 480 c 0,4,5
 314 413 314 413 283 367 c 0,6,7
 247 312 247 312 184 312 c 256,8,9
 121 312 121 312 87 367 c 0,10,11
 56 413 56 413 56 479 c 0,12,13
 56 546 56 546 87 596 c 0,14,15
 124 656 124 656 186 656 c 0,0,1
185 643 m 0,16,17
 146 643 146 643 133 607 c 0,18,19
 117 569 117 569 117 482 c 0,20,21
 117 322 117 322 184 322 c 0,22,23
 232 322 232 322 245 386 c 0,24,25
 252 414 252 414 252 487 c 0,26,27
 252 555 252 555 245 582 c 0,28,29
 232 643 232 643 185 643 c 0,16,17
EndSplineSet
Validated: 1
EndChar

StartChar: guillemotright
Encoding: 187 187 142
Width: 395
GlyphClass: 1
Flags: W
LayerCount: 2
Fore
SplineSet
190 78 m 1,0,-1
 306 230 l 1,1,-1
 170 417 l 1,2,-1
 252 509 l 1,3,-1
 265 492 l 1,4,-1
 234 453 l 1,5,-1
 368 272 l 1,6,-1
 203 61 l 1,7,-1
 190 78 l 1,0,-1
45 77 m 1,8,-1
 161 229 l 1,9,-1
 25 416 l 1,10,-1
 107 508 l 1,11,-1
 120 491 l 1,12,-1
 89 452 l 1,13,-1
 223 271 l 1,14,-1
 58 60 l 1,15,-1
 45 77 l 1,8,-1
EndSplineSet
Validated: 1
EndChar

StartChar: onequarter
Encoding: 188 188 143
Width: 757
GlyphClass: 1
Flags: W
LayerCount: 2
Fore
SplineSet
659 115 m 1,0,-1
 659 86 l 1,1,-1
 593 86 l 1,2,-1
 593 55 l 2,3,4
 593 14 593 14 631 14 c 2,5,-1
 649 14 l 1,6,-1
 649 0 l 1,7,-1
 637 0 l 1,8,-1
 552 2 l 2,9,10
 550 2 550 2 546.5 2 c 128,-1,11
 543 2 543 2 538 1 c 2,12,-1
 496 1 l 2,13,14
 494 0 494 0 471 0 c 1,15,-1
 471 14 l 1,16,-1
 498 14 l 2,17,18
 521 14 521 14 529 25 c 0,19,20
 534 33 534 33 534 55 c 2,21,-1
 534 86 l 1,22,-1
 388 86 l 1,23,24
 398 100 398 100 408.5 119 c 128,-1,25
 419 138 419 138 431 161 c 2,26,-1
 480 254 l 2,27,28
 505 302 505 302 525 341 c 128,-1,29
 545 380 545 380 559 411 c 1,30,-1
 585 411 l 1,31,-1
 418 115 l 1,32,-1
 534 115 l 1,33,-1
 534 249 l 1,34,-1
 598 368 l 1,35,36
 597 357 597 357 596.5 345.5 c 128,-1,37
 596 334 596 334 595 321 c 2,38,-1
 594 279 l 2,39,40
 593 268 593 268 593 259 c 128,-1,41
 593 250 593 250 593 242 c 2,42,-1
 593 115 l 1,43,-1
 659 115 l 1,0,-1
101 529 m 1,44,45
 162 596 162 596 227 694 c 1,46,47
 225 685 225 685 224 660 c 2,48,-1
 222 631 l 1,49,-1
 222 354 l 2,50,51
 222 315 222 315 225 308 c 0,52,53
 231 292 231 292 261 292 c 2,54,-1
 271 292 l 1,55,-1
 271 279 l 1,56,57
 266 280 266 280 213 280 c 2,58,-1
 186 280 l 2,59,60
 161 280 161 280 141.5 280 c 128,-1,61
 122 280 122 280 107 279 c 1,62,-1
 107 292 l 1,63,-1
 129 292 l 2,64,65
 152 292 152 292 158 302 c 128,-1,66
 164 312 164 312 164 339 c 2,67,-1
 164 581 l 1,68,-1
 113 519 l 1,69,-1
 101 529 l 1,44,45
606 693 m 1,70,-1
 197 0 l 1,71,-1
 164 0 l 1,72,-1
 573 693 l 1,73,-1
 606 693 l 1,70,-1
EndSplineSet
Validated: 1
EndChar

StartChar: onehalf
Encoding: 189 189 144
Width: 757
GlyphClass: 1
Flags: W
LayerCount: 2
Fore
SplineSet
691 118 m 1,0,1
 671 -2 671 -2 589 -2 c 0,2,3
 562 -2 562 -2 534 12 c 2,4,-1
 507 26 l 2,5,6
 495 32 495 32 484 32 c 0,7,8
 456 32 456 32 438 -7 c 1,9,-1
 425 -2 l 1,10,11
 432 12 432 12 438 24 c 128,-1,12
 444 36 444 36 451 44 c 256,13,14
 458 52 458 52 474.5 70 c 128,-1,15
 491 88 491 88 517 114 c 0,16,17
 610 205 610 205 610 300 c 0,18,19
 610 337 610 337 594 360.5 c 128,-1,20
 578 384 578 384 552 384 c 0,21,22
 515 384 515 384 482 343 c 256,23,24
 449 302 449 302 449 264 c 0,25,26
 449 232 449 232 477 232 c 0,27,28
 501 232 501 232 526 257 c 256,29,30
 551 282 551 282 551 305 c 0,31,32
 551 327 551 327 535 346 c 1,33,-1
 545 353 l 1,34,35
 566 330 566 330 566 297 c 0,36,37
 566 259 566 259 541 228 c 0,38,39
 512 195 512 195 478 195 c 0,40,41
 458 195 458 195 445 211.5 c 128,-1,42
 432 228 432 228 432 254 c 0,43,44
 432 310 432 310 474 357 c 0,45,46
 516 405 516 405 571 405 c 0,47,48
 595 405 595 405 614.5 396 c 128,-1,49
 634 387 634 387 648.5 372 c 128,-1,50
 663 357 663 357 671 336.5 c 128,-1,51
 679 316 679 316 679 293 c 0,52,53
 679 250 679 250 653 216 c 0,54,55
 634 193 634 193 611.5 170.5 c 128,-1,56
 589 148 589 148 561 128 c 0,57,58
 540 112 540 112 526.5 100.5 c 128,-1,59
 513 89 513 89 507 82 c 1,60,61
 517 85 517 85 523 85 c 0,62,63
 536 85 536 85 555 77 c 1,64,65
 563 69 563 69 588 57 c 256,66,67
 613 45 613 45 625 45 c 0,68,69
 670 45 670 45 675 122 c 1,70,-1
 691 118 l 1,0,1
101 529 m 1,71,72
 162 596 162 596 227 694 c 1,73,74
 225 685 225 685 224 660 c 2,75,-1
 222 631 l 1,76,-1
 222 354 l 2,77,78
 222 315 222 315 225 308 c 0,79,80
 231 292 231 292 261 292 c 2,81,-1
 271 292 l 1,82,-1
 271 279 l 1,83,84
 266 280 266 280 213 280 c 2,85,-1
 186 280 l 2,86,87
 161 280 161 280 141.5 280 c 128,-1,88
 122 280 122 280 107 279 c 1,89,-1
 107 292 l 1,90,-1
 129 292 l 2,91,92
 152 292 152 292 158 302 c 128,-1,93
 164 312 164 312 164 339 c 2,94,-1
 164 581 l 1,95,-1
 113 519 l 1,96,-1
 101 529 l 1,71,72
606 693 m 1,97,-1
 197 0 l 1,98,-1
 164 0 l 1,99,-1
 573 693 l 1,100,-1
 606 693 l 1,97,-1
EndSplineSet
Validated: 1
EndChar

StartChar: threequarters
Encoding: 190 190 145
Width: 757
GlyphClass: 1
Flags: W
LayerCount: 2
Fore
SplineSet
203 646 m 1,0,1
 206 637 206 637 206 628 c 0,2,3
 206 613 206 613 200 599 c 128,-1,4
 194 585 194 585 184.5 574 c 128,-1,5
 175 563 175 563 162 556.5 c 128,-1,6
 149 550 149 550 134 550 c 0,7,8
 92 550 92 550 92 589 c 0,9,10
 92 633 92 633 138 661 c 0,11,12
 178 687 178 687 223 687 c 0,13,14
 253 687 253 687 278 668.5 c 128,-1,15
 303 650 303 650 303 621 c 0,16,17
 303 568 303 568 223 530 c 2,18,-1
 210 524 l 1,19,20
 253 519 253 519 276 501 c 0,21,22
 318 466 318 466 318 415 c 0,23,24
 318 359 318 359 273 320 c 0,25,26
 229 281 229 281 173 281 c 0,27,28
 128 281 128 281 94 305 c 0,29,30
 56 334 56 334 56 374 c 0,31,32
 56 418 56 418 91 418 c 0,33,34
 105 418 105 418 114.5 406.5 c 128,-1,35
 124 395 124 395 124 377 c 0,36,37
 124 372 124 372 123.5 367 c 128,-1,38
 123 362 123 362 122 357 c 2,39,-1
 119 346 l 1,40,-1
 119 337 l 2,41,42
 119 318 119 318 133 306 c 128,-1,43
 147 294 147 294 168 294 c 0,44,45
 249 294 249 294 249 409 c 0,46,47
 249 511 249 511 188 511 c 0,48,49
 169 511 169 511 152 500 c 2,50,-1
 132 485 l 2,51,52
 127 481 127 481 120 481 c 0,53,54
 112 481 112 481 112 491 c 0,55,56
 112 506 112 506 158 519 c 2,57,-1
 189 528 l 2,58,59
 242 543 242 543 242 609 c 0,60,61
 242 634 242 634 228 650 c 128,-1,62
 214 666 214 666 193 666 c 0,63,64
 167 666 167 666 138 644 c 0,65,66
 109 623 109 623 109 599 c 0,67,68
 109 578 109 578 135 578 c 0,69,70
 160 578 160 578 177 593 c 128,-1,71
 194 608 194 608 194 629 c 1,72,73
 194 628 194 628 194 632 c 128,-1,74
 194 636 194 636 193 644 c 1,75,-1
 203 646 l 1,0,1
659 115 m 1,76,-1
 659 86 l 1,77,-1
 593 86 l 1,78,-1
 593 55 l 2,79,80
 593 14 593 14 631 14 c 2,81,-1
 649 14 l 1,82,-1
 649 0 l 1,83,-1
 637 0 l 1,84,-1
 552 2 l 2,85,86
 550 2 550 2 546.5 2 c 128,-1,87
 543 2 543 2 538 1 c 2,88,-1
 496 1 l 2,89,90
 494 0 494 0 471 0 c 1,91,-1
 471 14 l 1,92,-1
 498 14 l 2,93,94
 521 14 521 14 529 25 c 0,95,96
 534 33 534 33 534 55 c 2,97,-1
 534 86 l 1,98,-1
 388 86 l 1,99,100
 398 100 398 100 408.5 119 c 128,-1,101
 419 138 419 138 431 161 c 2,102,-1
 480 254 l 2,103,104
 505 302 505 302 525 341 c 128,-1,105
 545 380 545 380 559 411 c 1,106,-1
 585 411 l 1,107,-1
 418 115 l 1,108,-1
 534 115 l 1,109,-1
 534 249 l 1,110,-1
 598 368 l 1,111,112
 597 357 597 357 596.5 345.5 c 128,-1,113
 596 334 596 334 595 321 c 2,114,-1
 594 279 l 2,115,116
 593 268 593 268 593 259 c 128,-1,117
 593 250 593 250 593 242 c 2,118,-1
 593 115 l 1,119,-1
 659 115 l 1,76,-1
606 693 m 1,120,-1
 197 0 l 1,121,-1
 164 0 l 1,122,-1
 573 693 l 1,123,-1
 606 693 l 1,120,-1
EndSplineSet
Validated: 1
EndChar

StartChar: questiondown
Encoding: 191 191 146
Width: 359
GlyphClass: 1
Flags: W
LayerCount: 2
Fore
SplineSet
176 558 m 1,0,1
 165 635 165 635 87 648 c 1,2,-1
 87 663 l 1,3,4
 164 671 164 671 176 751 c 1,5,-1
 192 751 l 1,6,7
 211 664 211 664 281 663 c 1,8,-1
 281 648 l 1,9,10
 203 641 203 641 192 558 c 1,11,-1
 176 558 l 1,0,1
10 334 m 1,12,13
 22 398 22 398 65.5 436.5 c 128,-1,14
 109 475 109 475 169 475 c 0,15,16
 223 475 223 475 260 441 c 0,17,18
 299 406 299 406 299 355 c 0,19,20
 299 294 299 294 204 205 c 0,21,22
 185 188 185 188 173 175 c 128,-1,23
 161 162 161 162 154 153 c 0,24,25
 130 121 130 121 130 88 c 0,26,27
 130 51 130 51 149 29.5 c 128,-1,28
 168 8 168 8 200 8 c 0,29,30
 237 8 237 8 261 36 c 0,31,32
 273 49 273 49 271 55 c 0,33,34
 270 58 270 58 264 59 c 0,35,36
 216 69 216 69 216 115 c 0,37,38
 216 137 216 137 232 152.5 c 128,-1,39
 248 168 248 168 270 168 c 0,40,41
 294 168 294 168 309.5 151 c 128,-1,42
 325 134 325 134 325 108 c 0,43,44
 325 53 325 53 284 20 c 256,45,46
 243 -13 243 -13 187 -13 c 0,47,48
 154 -13 154 -13 127 -3.5 c 128,-1,49
 100 6 100 6 80 23.5 c 128,-1,50
 60 41 60 41 49 64.5 c 128,-1,51
 38 88 38 88 38 117 c 0,52,53
 38 188 38 188 113 260 c 2,54,-1
 157 302 l 2,55,56
 199 342 199 342 199 379 c 0,57,58
 199 405 199 405 182 423 c 128,-1,59
 165 441 165 441 140 441 c 0,60,61
 60 441 60 441 26 330 c 1,62,-1
 10 334 l 1,12,13
EndSplineSet
Validated: 1
EndChar

